<?xml version="1.0" encoding="UTF-8"?><svg xmlns="http://www.w3.org/2000/svg" xmlns:xlink="http://www.w3.org/1999/xlink" fill-opacity="1" color-rendering="auto" color-interpolation="auto" text-rendering="auto" stroke="black" stroke-linecap="square" width="963" stroke-miterlimit="10" shape-rendering="auto" stroke-opacity="1" fill="black" stroke-dasharray="none" font-weight="normal" stroke-width="1" height="660" font-family="'Dialog'" font-style="normal" stroke-linejoin="miter" font-size="12px" stroke-dashoffset="0" image-rendering="auto">
  <!--Generated by ySVG 2.5-->
  <defs id="genericDefs"/>
  <g>
    <defs id="defs1">
      <clipPath clipPathUnits="userSpaceOnUse" id="clipPath1">
        <path d="M0 0 L963 0 L963 660 L0 660 L0 0 Z"/>
      </clipPath>
      <clipPath clipPathUnits="userSpaceOnUse" id="clipPath2">
        <path d="M-25113.5996 -3123.2 L24192 -3123.2 L24192 30668.8008 L-25113.5996 30668.8008 L-25113.5996 -3123.2 Z"/>
      </clipPath>
      <clipPath clipPathUnits="userSpaceOnUse" id="clipPath3">
        <path d="M-24729.5996 -2995.2 L24576 -2995.2 L24576 30796.8008 L-24729.5996 30796.8008 L-24729.5996 -2995.2 Z"/>
      </clipPath>
      <clipPath clipPathUnits="userSpaceOnUse" id="clipPath4">
        <path d="M-28453.334 -8037.3335 L28042.666 -8037.3335 L28042.666 30682.666 L-28453.334 30682.666 L-28453.334 -8037.3335 Z"/>
      </clipPath>
      <clipPath clipPathUnits="userSpaceOnUse" id="clipPath5">
        <path d="M-28453.334 -7909.3335 L28042.666 -7909.3335 L28042.666 30810.666 L-28453.334 30810.666 L-28453.334 -7909.3335 Z"/>
      </clipPath>
      <clipPath clipPathUnits="userSpaceOnUse" id="clipPath6">
        <path d="M-28971.4277 -21037.7148 L28258.2852 -21037.7148 L28258.2852 18185.1426 L-28971.4277 18185.1426 L-28971.4277 -21037.7148 Z"/>
      </clipPath>
      <clipPath clipPathUnits="userSpaceOnUse" id="clipPath7">
        <path d="M-28843.4277 -21037.7148 L28386.2852 -21037.7148 L28386.2852 18185.1426 L-28843.4277 18185.1426 L-28843.4277 -21037.7148 Z"/>
      </clipPath>
      <clipPath clipPathUnits="userSpaceOnUse" id="clipPath8">
        <path d="M-28971.4277 -25376 L28258.2852 -25376 L28258.2852 13846.8574 L-28971.4277 13846.8574 L-28971.4277 -25376 Z"/>
      </clipPath>
      <clipPath clipPathUnits="userSpaceOnUse" id="clipPath9">
        <path d="M-28843.4277 -25376 L28386.2852 -25376 L28386.2852 13846.8574 L-28843.4277 13846.8574 L-28843.4277 -25376 Z"/>
      </clipPath>
      <clipPath clipPathUnits="userSpaceOnUse" id="clipPath10">
        <path d="M-26901.334 -27677.8672 L26513.0664 -27677.8672 L26513.0664 8930.1338 L-26901.334 8930.1338 L-26901.334 -27677.8672 Z"/>
      </clipPath>
      <clipPath clipPathUnits="userSpaceOnUse" id="clipPath11">
        <path d="M-28971.4277 -16699.4277 L28258.2852 -16699.4277 L28258.2852 22523.4277 L-28971.4277 22523.4277 L-28971.4277 -16699.4277 Z"/>
      </clipPath>
      <clipPath clipPathUnits="userSpaceOnUse" id="clipPath12">
        <path d="M-28843.4277 -16699.4277 L28386.2852 -16699.4277 L28386.2852 22523.4277 L-28843.4277 22523.4277 L-28843.4277 -16699.4277 Z"/>
      </clipPath>
      <clipPath clipPathUnits="userSpaceOnUse" id="clipPath13">
        <path d="M-28453.334 -12320 L28042.666 -12320 L28042.666 26400 L-28453.334 26400 L-28453.334 -12320 Z"/>
      </clipPath>
      <clipPath clipPathUnits="userSpaceOnUse" id="clipPath14">
        <path d="M-28453.334 -12192 L28042.666 -12192 L28042.666 26528 L-28453.334 26528 L-28453.334 -12192 Z"/>
      </clipPath>
      <clipPath clipPathUnits="userSpaceOnUse" id="clipPath15">
        <path d="M-5 -5 L958 -5 L958 655 L-5 655 L-5 -5 Z"/>
      </clipPath>
    </defs>
    <g stroke-linecap="butt" fill="rgb(255,130,0)" text-rendering="geometricPrecision" shape-rendering="geometricPrecision" stroke-dasharray="18,6" stroke="rgb(255,130,0)" stroke-width="3" stroke-miterlimit="1.45">
      <path fill="none" d="M259.9885 149.3567 L264.5012 150.9851 L270.0092 153.0058 L275.5312 155.0977 L281.0741 157.2963 L286.6447 159.6373 L292.25 162.1562 L297.897 164.8887 L303.5926 167.8704 L309.3438 171.1367 L315.1574 174.7234 L321.0405 178.6659 L327 183 L333.0405 187.7493 L339.1574 192.89 L345.3438 198.3867 L351.5926 204.2037 L357.897 210.3054 L364.25 216.6562 L370.6447 223.2206 L377.049 229.9366" clip-path="url(#clipPath1)"/>
    </g>
    <g stroke-linecap="butt" fill="rgb(255,130,0)" text-rendering="geometricPrecision" shape-rendering="geometricPrecision" stroke-dasharray="18,6" stroke="rgb(255,130,0)" stroke-width="3" stroke-miterlimit="1.45">
      <path fill="none" d="M260.0237 221.6624 L263.4433 221.8356 L275.4174 222.7555 L287 224 L298.1674 225.5888 L308.9433 227.5023 L319.3633 229.7109 L329.463 232.1852 L339.2779 234.8955 L344.6213 236.5249" clip-path="url(#clipPath1)"/>
      <path fill="none" d="M260.0045 302.9479 L264.4039 302.6736 L276.4073 301.5373 L288 300 L299.1573 298.0373 L309.9039 295.6736 L320.2773 292.9453 L330.3148 289.8889 L340.0537 286.5408 L349.5312 282.9375 L351.0133 282.3254" clip-path="url(#clipPath1)"/>
      <path fill="none" d="M260.0268 397.5644 L262.7552 396.4068 L266.5417 394.7546 L270.3906 392.9844 L274.3333 391.037 L278.401 388.8536 L282.625 386.375 L287.0365 383.5422 L291.6667 380.2963 L296.5469 376.5781 L301.7083 372.3287 L307.1823 367.489 L313 362 L319.1823 355.8223 L325.7083 348.9954 L332.5469 341.5781 L339.6667 333.6296 L347.0365 325.2089 L354.625 316.375 L362.401 307.1869 L370.3333 297.7037 L378.3906 287.9844 L379.0115 287.2306" clip-path="url(#clipPath1)"/>
    </g>
    <g fill="rgb(255,130,0)" text-rendering="geometricPrecision" shape-rendering="geometricPrecision" stroke="rgb(255,130,0)">
      <rect x="475" y="197" clip-path="url(#clipPath1)" width="51" rx="4" ry="4" height="50" stroke="none"/>
    </g>
    <g fill="silver" text-rendering="geometricPrecision" stroke-miterlimit="1.45" shape-rendering="geometricPrecision" stroke-linecap="butt" stroke="silver">
      <rect x="475" y="197" clip-path="url(#clipPath1)" fill="none" width="51" rx="4" ry="4" height="50"/>
    </g>
    <g fill="rgb(0,163,224)" text-rendering="geometricPrecision" shape-rendering="geometricPrecision" stroke="rgb(0,163,224)">
      <rect x="475" y="489" clip-path="url(#clipPath1)" width="51" rx="4" ry="4" height="50" stroke="none"/>
    </g>
    <g fill="silver" text-rendering="geometricPrecision" stroke-miterlimit="1.45" shape-rendering="geometricPrecision" stroke-linecap="butt" stroke="silver">
      <rect x="475" y="489" clip-path="url(#clipPath1)" fill="none" width="51" rx="4" ry="4" height="50"/>
    </g>
    <g fill="rgb(0,155,119)" text-rendering="geometricPrecision" shape-rendering="geometricPrecision" stroke="rgb(0,155,119)">
      <rect x="475" y="416" clip-path="url(#clipPath1)" width="51" rx="4" ry="4" height="50" stroke="none"/>
    </g>
    <g fill="silver" text-rendering="geometricPrecision" stroke-miterlimit="1.45" shape-rendering="geometricPrecision" stroke-linecap="butt" stroke="silver">
      <rect x="475" y="416" clip-path="url(#clipPath1)" fill="none" width="51" rx="4" ry="4" height="50"/>
    </g>
    <g fill="rgb(0,155,119)" text-rendering="geometricPrecision" shape-rendering="geometricPrecision" stroke="rgb(0,155,119)">
      <rect x="475" y="343" clip-path="url(#clipPath1)" width="51" rx="4" ry="4" height="50" stroke="none"/>
    </g>
    <g fill="silver" text-rendering="geometricPrecision" stroke-miterlimit="1.45" shape-rendering="geometricPrecision" stroke-linecap="butt" stroke="silver">
      <rect x="475" y="343" clip-path="url(#clipPath1)" fill="none" width="51" rx="4" ry="4" height="50"/>
    </g>
    <g fill="rgb(0,155,119)" text-rendering="geometricPrecision" shape-rendering="geometricPrecision" stroke="rgb(0,155,119)">
      <rect x="475" y="270" clip-path="url(#clipPath1)" width="51" rx="4" ry="4" height="50" stroke="none"/>
    </g>
    <g fill="silver" text-rendering="geometricPrecision" stroke-miterlimit="1.45" shape-rendering="geometricPrecision" stroke-linecap="butt" stroke="silver">
      <rect x="475" y="270" clip-path="url(#clipPath1)" fill="none" width="51" rx="4" ry="4" height="50"/>
    </g>
    <g fill="rgb(255,130,0)" text-rendering="geometricPrecision" shape-rendering="geometricPrecision" stroke="rgb(255,130,0)">
      <rect x="475" y="124" clip-path="url(#clipPath1)" width="51" rx="4" ry="4" height="50" stroke="none"/>
    </g>
    <g fill="silver" text-rendering="geometricPrecision" stroke-miterlimit="1.45" shape-rendering="geometricPrecision" stroke-linecap="butt" stroke="silver">
      <rect x="475" y="124" clip-path="url(#clipPath1)" fill="none" width="51" rx="4" ry="4" height="50"/>
    </g>
    <g fill="rgb(198,53,39)" text-rendering="geometricPrecision" shape-rendering="geometricPrecision" stroke="rgb(198,53,39)">
      <rect x="475" y="51" clip-path="url(#clipPath1)" width="51" rx="4" ry="4" height="50" stroke="none"/>
    </g>
    <g fill="silver" text-rendering="geometricPrecision" stroke-miterlimit="1.45" shape-rendering="geometricPrecision" stroke-linecap="butt" stroke="silver">
      <rect x="475" y="51" clip-path="url(#clipPath1)" fill="none" width="51" rx="4" ry="4" height="50"/>
    </g>
    <g fill="rgb(198,53,39)" text-rendering="geometricPrecision" shape-rendering="geometricPrecision" stroke="rgb(198,53,39)">
      <rect x="532" y="51" clip-path="url(#clipPath1)" width="422" rx="4" ry="4" height="50" stroke="none"/>
    </g>
    <g stroke-linecap="butt" font-size="24px" fill="white" text-rendering="geometricPrecision" font-family="'Arial'" shape-rendering="geometricPrecision" stroke="white" font-weight="bold" stroke-miterlimit="1.45">
      <text x="696.9746" xml:space="preserve" y="84.3203" clip-path="url(#clipPath1)" stroke="none">Analyse</text>
    </g>
    <g fill="silver" text-rendering="geometricPrecision" stroke-miterlimit="1.45" shape-rendering="geometricPrecision" stroke-linecap="butt" stroke="silver">
      <rect x="532" y="51" clip-path="url(#clipPath1)" fill="none" width="422" rx="4" ry="4" height="50"/>
    </g>
    <g fill="rgb(255,130,0)" text-rendering="geometricPrecision" shape-rendering="geometricPrecision" stroke="rgb(255,130,0)">
      <rect x="532" y="124" clip-path="url(#clipPath1)" width="422" rx="4" ry="4" height="50" stroke="none"/>
    </g>
    <g stroke-linecap="butt" font-size="24px" fill="white" text-rendering="geometricPrecision" font-family="'Arial'" shape-rendering="geometricPrecision" stroke="white" font-weight="bold" stroke-miterlimit="1.45">
      <text x="590.9727" xml:space="preserve" y="157.3203" clip-path="url(#clipPath1)" stroke="none">Vorbereitungsmaßnahmen</text>
    </g>
    <g fill="silver" text-rendering="geometricPrecision" stroke-miterlimit="1.45" shape-rendering="geometricPrecision" stroke-linecap="butt" stroke="silver">
      <rect x="532" y="124" clip-path="url(#clipPath1)" fill="none" width="422" rx="4" ry="4" height="50"/>
    </g>
    <g fill="rgb(0,155,119)" text-rendering="geometricPrecision" shape-rendering="geometricPrecision" stroke="rgb(0,155,119)">
      <rect x="532" y="270" clip-path="url(#clipPath1)" width="422" rx="4" ry="4" height="50" stroke="none"/>
    </g>
    <g stroke-linecap="butt" font-size="24px" fill="white" text-rendering="geometricPrecision" font-family="'Arial'" shape-rendering="geometricPrecision" stroke="white" font-weight="bold" stroke-miterlimit="1.45">
      <text x="622.959" xml:space="preserve" y="303.3203" clip-path="url(#clipPath1)" stroke="none">Programm schreiben</text>
    </g>
    <g fill="silver" text-rendering="geometricPrecision" stroke-miterlimit="1.45" shape-rendering="geometricPrecision" stroke-linecap="butt" stroke="silver">
      <rect x="532" y="270" clip-path="url(#clipPath1)" fill="none" width="422" rx="4" ry="4" height="50"/>
    </g>
    <g fill="rgb(0,155,119)" text-rendering="geometricPrecision" shape-rendering="geometricPrecision" stroke="rgb(0,155,119)">
      <rect x="532" y="343" clip-path="url(#clipPath1)" width="422" rx="4" ry="4" height="50" stroke="none"/>
    </g>
    <g stroke-linecap="butt" font-size="24px" fill="white" text-rendering="geometricPrecision" font-family="'Arial'" shape-rendering="geometricPrecision" stroke="white" font-weight="bold" stroke-miterlimit="1.45">
      <text x="622.3027" xml:space="preserve" y="376.3203" clip-path="url(#clipPath1)" stroke="none">Rüsten der Maschine</text>
    </g>
    <g fill="silver" text-rendering="geometricPrecision" stroke-miterlimit="1.45" shape-rendering="geometricPrecision" stroke-linecap="butt" stroke="silver">
      <rect x="532" y="343" clip-path="url(#clipPath1)" fill="none" width="422" rx="4" ry="4" height="50"/>
    </g>
    <g fill="rgb(0,155,119)" text-rendering="geometricPrecision" shape-rendering="geometricPrecision" stroke="rgb(0,155,119)">
      <rect x="532" y="416" clip-path="url(#clipPath1)" width="422" rx="4" ry="4" height="50" stroke="none"/>
    </g>
    <g stroke-linecap="butt" font-size="24px" fill="white" text-rendering="geometricPrecision" font-family="'Arial'" shape-rendering="geometricPrecision" stroke="white" font-weight="bold" stroke-miterlimit="1.45">
      <text x="600.9512" xml:space="preserve" y="449.3203" clip-path="url(#clipPath1)" stroke="none">Fertigen des Werkstücks</text>
    </g>
    <g fill="silver" text-rendering="geometricPrecision" stroke-miterlimit="1.45" shape-rendering="geometricPrecision" stroke-linecap="butt" stroke="silver">
      <rect x="532" y="416" clip-path="url(#clipPath1)" fill="none" width="422" rx="4" ry="4" height="50"/>
    </g>
    <g fill="rgb(0,163,224)" text-rendering="geometricPrecision" shape-rendering="geometricPrecision" stroke="rgb(0,163,224)">
      <rect x="532" y="489" clip-path="url(#clipPath1)" width="422" rx="4" ry="4" height="50" stroke="none"/>
    </g>
    <g stroke-linecap="butt" font-size="24px" fill="white" text-rendering="geometricPrecision" font-family="'Arial'" shape-rendering="geometricPrecision" stroke="white" font-weight="bold" stroke-miterlimit="1.45">
      <text x="550.3203" xml:space="preserve" y="522.3203" clip-path="url(#clipPath1)" stroke="none">Qualitätskontrolle und Bewertung</text>
    </g>
    <g fill="silver" text-rendering="geometricPrecision" stroke-miterlimit="1.45" shape-rendering="geometricPrecision" stroke-linecap="butt" stroke="silver">
      <rect x="532" y="489" clip-path="url(#clipPath1)" fill="none" width="422" rx="4" ry="4" height="50"/>
    </g>
    <g fill="rgb(255,130,0)" text-rendering="geometricPrecision" shape-rendering="geometricPrecision" stroke="rgb(255,130,0)">
      <rect x="532" y="197" clip-path="url(#clipPath1)" width="422" rx="4" ry="4" height="50" stroke="none"/>
    </g>
    <g stroke-linecap="butt" font-size="24px" fill="white" text-rendering="geometricPrecision" font-family="'Arial'" shape-rendering="geometricPrecision" stroke="white" font-weight="bold" stroke-miterlimit="1.45">
      <text x="610.3027" xml:space="preserve" y="230.3203" clip-path="url(#clipPath1)" stroke="none">Arbeitsablauf festlegen</text>
    </g>
    <g fill="silver" text-rendering="geometricPrecision" stroke-miterlimit="1.45" shape-rendering="geometricPrecision" stroke-linecap="butt" stroke="silver">
      <rect x="532" y="197" clip-path="url(#clipPath1)" fill="none" width="422" rx="4" ry="4" height="50"/>
    </g>
    <g text-rendering="geometricPrecision" shape-rendering="geometricPrecision" transform="matrix(0.0195,0,0,0.0195,483,58.5)">
      <g clip-path="url(#clipPath3)">
        <svg opacity="1" writing-mode="lr-tb" shape-rendering="auto" stop-color="rgb(0, 0, 0)" glyph-orientation-horizontal="0deg" color-profile="auto" lighting-color="rgb(255, 255, 255)" color="rgb(0, 0, 0)" font-weight="400" alignment-baseline="auto" font-style="normal" color-interpolation-filters="linearrgb" text-anchor="start" stroke-linecap="butt" color-interpolation="srgb" font-variant="normal" word-spacing="normal" fill-opacity="1" text-rendering="auto" clip-path="none" text-decoration="none" letter-spacing="normal" viewBox="0 0 1792 1792" glyph-orientation-vertical="auto" display="inline" font-size-adjust="none" fill="rgb(0, 0, 0)" overflow="visible" font-stretch="normal" stroke-dasharray="none" stroke-miterlimit="4" stop-opacity="1" color-rendering="auto" font-size="12" mask="none" direction="ltr" baseline-shift="baseline" pointer-events="visiblepainted" enable-background="accumulate" fill-rule="nonzero" image-rendering="auto" stroke-dashoffset="0" width="1792" marker-end="none" clip="auto" cursor="auto" stroke="none" filter="none" visibility="visible" kerning="auto" stroke-width="1" font-family="&quot;Arial&quot;,&quot;Helvetica&quot;,sans-serif" flood-opacity="1" clip-rule="nonzero" src="none" height="1792" unicode-bidi="normal" stroke-linejoin="miter" stroke-opacity="1" flood-color="rgb(0, 0, 0)" dominant-baseline="auto" marker-start="none" marker-mid="none">
          <path fill="#fff" d="M1120 576q0 13-9.5 22.5t-22.5 9.5-22.5-9.5-9.5-22.5q0-46-54-71t-106-25q-13 0-22.5-9.5t-9.5-22.5 9.5-22.5 22.5-9.5q50 0 99.5 16t87 54 37.5 90zm160 0q0-72-34.5-134t-90-101.5-123-62-136.5-22.5-136.5 22.5-123 62-90 101.5-34.5 134q0 101 68 180 10 11 30.5 33t30.5 33q128 153 141 298h228q13-145 141-298 10-11 30.5-33t30.5-33q68-79 68-180zm128 0q0 155-103 268-45 49-74.5 87t-59.5 95.5-34 107.5q47 28 47 82 0 37-25 64 25 27 25 64 0 52-45 81 13 23 13 47 0 46-31.5 71t-77.5 25q-20 44-60 70t-87 26-87-26-60-70q-46 0-77.5-25t-31.5-71q0-24 13-47-45-29-45-81 0-37 25-64-25-27-25-64 0-54 47-82-4-50-34-107.5t-59.5-95.5-74.5-87q-103-113-103-268 0-99 44.5-184.5t117-142 164-89 186.5-32.5 186.5 32.5 164 89 117 142 44.5 184.5z"/>
        </svg>
      </g>
    </g>
    <g text-rendering="geometricPrecision" shape-rendering="geometricPrecision" transform="matrix(0.017,0,0,0.017,485,134.8182)">
      <g clip-path="url(#clipPath5)">
        <svg opacity="1" writing-mode="lr-tb" shape-rendering="auto" stop-color="rgb(0, 0, 0)" glyph-orientation-horizontal="0deg" color-profile="auto" lighting-color="rgb(255, 255, 255)" color="rgb(0, 0, 0)" font-weight="400" alignment-baseline="auto" font-style="normal" color-interpolation-filters="linearrgb" text-anchor="start" stroke-linecap="butt" color-interpolation="srgb" font-variant="normal" word-spacing="normal" fill-opacity="1" text-rendering="auto" clip-path="none" text-decoration="none" letter-spacing="normal" viewBox="0 0 1792 1792" glyph-orientation-vertical="auto" display="inline" font-size-adjust="none" fill="rgb(0, 0, 0)" overflow="visible" font-stretch="normal" stroke-dasharray="none" stroke-miterlimit="4" stop-opacity="1" color-rendering="auto" font-size="12" mask="none" direction="ltr" baseline-shift="baseline" pointer-events="visiblepainted" enable-background="accumulate" fill-rule="nonzero" image-rendering="auto" stroke-dashoffset="0" width="1792" marker-end="none" clip="auto" cursor="auto" stroke="none" filter="none" visibility="visible" kerning="auto" stroke-width="1" font-family="&quot;Arial&quot;,&quot;Helvetica&quot;,sans-serif" flood-opacity="1" clip-rule="nonzero" src="none" height="1792" unicode-bidi="normal" stroke-linejoin="miter" stroke-opacity="1" flood-color="rgb(0, 0, 0)" dominant-baseline="auto" marker-start="none" marker-mid="none">
          <path fill="#fff" d="M1792 1344v128q0 26-19 45t-45 19h-1664q-26 0-45-19t-19-45v-128q0-26 19-45t45-19h1664q26 0 45 19t19 45zm0-384v128q0 26-19 45t-45 19h-1280q-26 0-45-19t-19-45v-128q0-26 19-45t45-19h1280q26 0 45 19t19 45zm0-384v128q0 26-19 45t-45 19h-1536q-26 0-45-19t-19-45v-128q0-26 19-45t45-19h1536q26 0 45 19t19 45zm0-384v128q0 26-19 45t-45 19h-1152q-26 0-45-19t-19-45v-128q0-26 19-45t45-19h1152q26 0 45 19t19 45z"/>
        </svg>
      </g>
    </g>
    <g text-rendering="geometricPrecision" shape-rendering="geometricPrecision" transform="matrix(0.0168,0,0,0.0168,485.3462,354)">
      <g clip-path="url(#clipPath7)">
        <svg opacity="1" writing-mode="lr-tb" shape-rendering="auto" stop-color="rgb(0, 0, 0)" glyph-orientation-horizontal="0deg" color-profile="auto" lighting-color="rgb(255, 255, 255)" color="rgb(0, 0, 0)" font-weight="400" alignment-baseline="auto" font-style="normal" color-interpolation-filters="linearrgb" text-anchor="start" stroke-linecap="butt" color-interpolation="srgb" font-variant="normal" word-spacing="normal" fill-opacity="1" text-rendering="auto" clip-path="none" text-decoration="none" letter-spacing="normal" viewBox="0 0 1792 1792" glyph-orientation-vertical="auto" display="inline" font-size-adjust="none" fill="rgb(0, 0, 0)" overflow="visible" font-stretch="normal" stroke-dasharray="none" stroke-miterlimit="4" stop-opacity="1" color-rendering="auto" font-size="12" mask="none" direction="ltr" baseline-shift="baseline" pointer-events="visiblepainted" enable-background="accumulate" fill-rule="nonzero" image-rendering="auto" stroke-dashoffset="0" width="1792" marker-end="none" clip="auto" cursor="auto" stroke="none" filter="none" visibility="visible" kerning="auto" stroke-width="1" font-family="&quot;Arial&quot;,&quot;Helvetica&quot;,sans-serif" flood-opacity="1" clip-rule="nonzero" src="none" height="1792" unicode-bidi="normal" stroke-linejoin="miter" stroke-opacity="1" flood-color="rgb(0, 0, 0)" dominant-baseline="auto" marker-start="none" marker-mid="none">
          <path fill="#fff" d="M1664 896q0 156-61 298t-164 245-245 164-298 61-298-61-245-164-164-245-61-298q0-182 80.5-343t226.5-270q43-32 95.5-25t83.5 50q32 42 24.5 94.5t-49.5 84.5q-98 74-151.5 181t-53.5 228q0 104 40.5 198.5t109.5 163.5 163.5 109.5 198.5 40.5 198.5-40.5 163.5-109.5 109.5-163.5 40.5-198.5q0-121-53.5-228t-151.5-181q-42-32-49.5-84.5t24.5-94.5q31-43 84-50t95 25q146 109 226.5 270t80.5 343zm-640-768v640q0 52-38 90t-90 38-90-38-38-90v-640q0-52 38-90t90-38 90 38 38 90z"/>
        </svg>
      </g>
    </g>
    <g text-rendering="geometricPrecision" shape-rendering="geometricPrecision" transform="matrix(0.0168,0,0,0.0168,485.3462,427)">
      <g clip-path="url(#clipPath9)">
        <svg opacity="1" writing-mode="lr-tb" shape-rendering="auto" stop-color="rgb(0, 0, 0)" glyph-orientation-horizontal="0deg" color-profile="auto" lighting-color="rgb(255, 255, 255)" color="rgb(0, 0, 0)" font-weight="400" alignment-baseline="auto" font-style="normal" color-interpolation-filters="linearrgb" text-anchor="start" stroke-linecap="butt" color-interpolation="srgb" font-variant="normal" word-spacing="normal" fill-opacity="1" text-rendering="auto" clip-path="none" text-decoration="none" letter-spacing="normal" viewBox="0 0 1792 1792" glyph-orientation-vertical="auto" display="inline" font-size-adjust="none" fill="rgb(0, 0, 0)" overflow="visible" font-stretch="normal" stroke-dasharray="none" stroke-miterlimit="4" stop-opacity="1" color-rendering="auto" font-size="12" mask="none" direction="ltr" baseline-shift="baseline" pointer-events="visiblepainted" enable-background="accumulate" fill-rule="nonzero" image-rendering="auto" stroke-dashoffset="0" width="1792" marker-end="none" clip="auto" cursor="auto" stroke="none" filter="none" visibility="visible" kerning="auto" stroke-width="1" font-family="&quot;Arial&quot;,&quot;Helvetica&quot;,sans-serif" flood-opacity="1" clip-rule="nonzero" src="none" height="1792" unicode-bidi="normal" stroke-linejoin="miter" stroke-opacity="1" flood-color="rgb(0, 0, 0)" dominant-baseline="auto" marker-start="none" marker-mid="none">
          <path fill="#fff" d="M1664 896q0 156-61 298t-164 245-245 164-298 61-298-61-245-164-164-245-61-298q0-182 80.5-343t226.5-270q43-32 95.5-25t83.5 50q32 42 24.5 94.5t-49.5 84.5q-98 74-151.5 181t-53.5 228q0 104 40.5 198.5t109.5 163.5 163.5 109.5 198.5 40.5 198.5-40.5 163.5-109.5 109.5-163.5 40.5-198.5q0-121-53.5-228t-151.5-181q-42-32-49.5-84.5t24.5-94.5q31-43 84-50t95 25q146 109 226.5 270t80.5 343zm-640-768v640q0 52-38 90t-90 38-90-38-38-90v-640q0-52 38-90t90-38 90 38 38 90z"/>
        </svg>
      </g>
    </g>
    <g text-rendering="geometricPrecision" shape-rendering="geometricPrecision" transform="matrix(0.018,0,0,0.018,485,499)">
      <g clip-path="url(#clipPath10)">
        <svg opacity="1" writing-mode="lr-tb" shape-rendering="auto" stop-color="rgb(0, 0, 0)" glyph-orientation-horizontal="0deg" color-profile="auto" lighting-color="rgb(255, 255, 255)" color="rgb(0, 0, 0)" font-weight="400" alignment-baseline="auto" font-style="normal" color-interpolation-filters="linearrgb" text-anchor="start" stroke-linecap="butt" color-interpolation="srgb" font-variant="normal" word-spacing="normal" fill-opacity="1" text-rendering="auto" clip-path="none" text-decoration="none" letter-spacing="normal" viewBox="0 0 1792 1792" glyph-orientation-vertical="auto" display="inline" font-size-adjust="none" fill="rgb(0, 0, 0)" overflow="visible" font-stretch="normal" stroke-dasharray="none" stroke-miterlimit="4" stop-opacity="1" color-rendering="auto" font-size="12" mask="none" direction="ltr" baseline-shift="baseline" pointer-events="visiblepainted" enable-background="accumulate" fill-rule="nonzero" image-rendering="auto" stroke-dashoffset="0" width="1792" marker-end="none" clip="auto" cursor="auto" stroke="none" filter="none" visibility="visible" kerning="auto" stroke-width="1" font-family="&quot;Arial&quot;,&quot;Helvetica&quot;,sans-serif" flood-opacity="1" clip-rule="nonzero" src="none" height="1792" unicode-bidi="normal" stroke-linejoin="miter" stroke-opacity="1" flood-color="rgb(0, 0, 0)" dominant-baseline="auto" marker-start="none" marker-mid="none">
          <path fill="#fff" d="M768 890l546 546q-106 108-247.5 168t-298.5 60q-209 0-385.5-103t-279.5-279.5-103-385.5 103-385.5 279.5-279.5 385.5-103v762zm187 6h773q0 157-60 298.5t-168 247.5zm709-128h-768v-768q209 0 385.5 103t279.5 279.5 103 385.5z"/>
        </svg>
      </g>
    </g>
    <g text-rendering="geometricPrecision" shape-rendering="geometricPrecision" transform="matrix(0.0168,0,0,0.0168,485.3462,281)">
      <g clip-path="url(#clipPath12)">
        <svg opacity="1" writing-mode="lr-tb" shape-rendering="auto" stop-color="rgb(0, 0, 0)" glyph-orientation-horizontal="0deg" color-profile="auto" lighting-color="rgb(255, 255, 255)" color="rgb(0, 0, 0)" font-weight="400" alignment-baseline="auto" font-style="normal" color-interpolation-filters="linearrgb" text-anchor="start" stroke-linecap="butt" color-interpolation="srgb" font-variant="normal" word-spacing="normal" fill-opacity="1" text-rendering="auto" clip-path="none" text-decoration="none" letter-spacing="normal" viewBox="0 0 1792 1792" glyph-orientation-vertical="auto" display="inline" font-size-adjust="none" fill="rgb(0, 0, 0)" overflow="visible" font-stretch="normal" stroke-dasharray="none" stroke-miterlimit="4" stop-opacity="1" color-rendering="auto" font-size="12" mask="none" direction="ltr" baseline-shift="baseline" pointer-events="visiblepainted" enable-background="accumulate" fill-rule="nonzero" image-rendering="auto" stroke-dashoffset="0" width="1792" marker-end="none" clip="auto" cursor="auto" stroke="none" filter="none" visibility="visible" kerning="auto" stroke-width="1" font-family="&quot;Arial&quot;,&quot;Helvetica&quot;,sans-serif" flood-opacity="1" clip-rule="nonzero" src="none" height="1792" unicode-bidi="normal" stroke-linejoin="miter" stroke-opacity="1" flood-color="rgb(0, 0, 0)" dominant-baseline="auto" marker-start="none" marker-mid="none">
          <path fill="#fff" d="M1664 896q0 156-61 298t-164 245-245 164-298 61-298-61-245-164-164-245-61-298q0-182 80.5-343t226.5-270q43-32 95.5-25t83.5 50q32 42 24.5 94.5t-49.5 84.5q-98 74-151.5 181t-53.5 228q0 104 40.5 198.5t109.5 163.5 163.5 109.5 198.5 40.5 198.5-40.5 163.5-109.5 109.5-163.5 40.5-198.5q0-121-53.5-228t-151.5-181q-42-32-49.5-84.5t24.5-94.5q31-43 84-50t95 25q146 109 226.5 270t80.5 343zm-640-768v640q0 52-38 90t-90 38-90-38-38-90v-640q0-52 38-90t90-38 90 38 38 90z"/>
        </svg>
      </g>
    </g>
    <g text-rendering="geometricPrecision" shape-rendering="geometricPrecision" transform="matrix(0.017,0,0,0.017,485,207.8182)">
      <g clip-path="url(#clipPath14)">
        <svg opacity="1" writing-mode="lr-tb" shape-rendering="auto" stop-color="rgb(0, 0, 0)" glyph-orientation-horizontal="0deg" color-profile="auto" lighting-color="rgb(255, 255, 255)" color="rgb(0, 0, 0)" font-weight="400" alignment-baseline="auto" font-style="normal" color-interpolation-filters="linearrgb" text-anchor="start" stroke-linecap="butt" color-interpolation="srgb" font-variant="normal" word-spacing="normal" fill-opacity="1" text-rendering="auto" clip-path="none" text-decoration="none" letter-spacing="normal" viewBox="0 0 1792 1792" glyph-orientation-vertical="auto" display="inline" font-size-adjust="none" fill="rgb(0, 0, 0)" overflow="visible" font-stretch="normal" stroke-dasharray="none" stroke-miterlimit="4" stop-opacity="1" color-rendering="auto" font-size="12" mask="none" direction="ltr" baseline-shift="baseline" pointer-events="visiblepainted" enable-background="accumulate" fill-rule="nonzero" image-rendering="auto" stroke-dashoffset="0" width="1792" marker-end="none" clip="auto" cursor="auto" stroke="none" filter="none" visibility="visible" kerning="auto" stroke-width="1" font-family="&quot;Arial&quot;,&quot;Helvetica&quot;,sans-serif" flood-opacity="1" clip-rule="nonzero" src="none" height="1792" unicode-bidi="normal" stroke-linejoin="miter" stroke-opacity="1" flood-color="rgb(0, 0, 0)" dominant-baseline="auto" marker-start="none" marker-mid="none">
          <path fill="#fff" d="M1792 1344v128q0 26-19 45t-45 19h-1664q-26 0-45-19t-19-45v-128q0-26 19-45t45-19h1664q26 0 45 19t19 45zm0-384v128q0 26-19 45t-45 19h-1280q-26 0-45-19t-19-45v-128q0-26 19-45t45-19h1280q26 0 45 19t19 45zm0-384v128q0 26-19 45t-45 19h-1536q-26 0-45-19t-19-45v-128q0-26 19-45t45-19h1536q26 0 45 19t19 45zm0-384v128q0 26-19 45t-45 19h-1152q-26 0-45-19t-19-45v-128q0-26 19-45t45-19h1152q26 0 45 19t19 45z"/>
        </svg>
      </g>
    </g>
    <g transform="translate(5,5)" fill-opacity="0.6" fill="rgb(0,0,0)" text-rendering="geometricPrecision" shape-rendering="geometricPrecision" stroke="rgb(0,0,0)" stroke-opacity="0.6">
      <path d="M19.84 565.6987 L32.68 550.6987 L135.4 550.6987 L148.24 565.6987 L135.4 580.6987 L32.68 580.6987 Z" fill-rule="evenodd" clip-path="url(#clipPath15)" stroke="none"/>
    </g>
    <g fill="rgb(255,130,0)" text-rendering="geometricPrecision" shape-rendering="geometricPrecision" stroke="rgb(255,130,0)">
      <path d="M19.84 565.6987 L32.68 550.6987 L135.4 550.6987 L148.24 565.6987 L135.4 580.6987 L32.68 580.6987 Z" fill-rule="evenodd" clip-path="url(#clipPath1)" stroke="none"/>
    </g>
    <g stroke-linecap="butt" fill="white" text-rendering="geometricPrecision" shape-rendering="geometricPrecision" stroke="white" stroke-width="2" stroke-miterlimit="1.45">
      <path fill="none" d="M19.84 565.6987 L32.68 550.6987 L135.4 550.6987 L148.24 565.6987 L135.4 580.6987 L32.68 580.6987 Z" fill-rule="evenodd" clip-path="url(#clipPath1)"/>
    </g>
    <g transform="translate(5,5)" fill-opacity="0.6" fill="rgb(0,0,0)" text-rendering="geometricPrecision" shape-rendering="geometricPrecision" stroke="rgb(0,0,0)" stroke-opacity="0.6">
      <path d="M84.04 519.614 L162.08 654.386 L6 654.386 Z" fill-rule="evenodd" clip-path="url(#clipPath15)" stroke="none"/>
    </g>
    <g fill="rgb(255,130,0)" text-rendering="geometricPrecision" shape-rendering="geometricPrecision" stroke="rgb(255,130,0)">
      <path d="M84.04 519.614 L162.08 654.386 L6 654.386 Z" fill-rule="evenodd" clip-path="url(#clipPath1)" stroke="none"/>
    </g>
    <g stroke-linecap="butt" fill="white" text-rendering="geometricPrecision" shape-rendering="geometricPrecision" stroke="white" stroke-width="2" stroke-miterlimit="1.45">
      <path fill="none" d="M84.04 519.614 L162.08 654.386 L6 654.386 Z" fill-rule="evenodd" clip-path="url(#clipPath1)"/>
    </g>
    <g font-size="20px" stroke-linecap="butt" text-rendering="geometricPrecision" font-family="'Arial'" shape-rendering="geometricPrecision" font-weight="bold" stroke-miterlimit="1.45">
      <text x="34.8994" xml:space="preserve" y="624.159" clip-path="url(#clipPath1)" stroke="none">Betreuung</text>
      <text x="49.3428" xml:space="preserve" y="646.5027" clip-path="url(#clipPath1)" stroke="none">(Sozial)</text>
    </g>
    <g fill="rgb(255,130,0)" text-rendering="geometricPrecision" shape-rendering="geometricPrecision" stroke="rgb(255,130,0)">
      <ellipse rx="87" ry="30" clip-path="url(#clipPath1)" cx="403.88" cy="258.5" stroke="none"/>
    </g>
    <g text-rendering="geometricPrecision" stroke-miterlimit="1.45" font-size="24px" shape-rendering="geometricPrecision" font-family="'Arial'" stroke-linecap="butt">
      <text x="379.8741" xml:space="preserve" y="266.8203" clip-path="url(#clipPath1)" stroke="none">Hilfe</text>
    </g>
    <g fill="silver" text-rendering="geometricPrecision" stroke-miterlimit="1.45" shape-rendering="geometricPrecision" stroke-linecap="butt" stroke="silver">
      <ellipse rx="87" fill="none" ry="30" clip-path="url(#clipPath1)" cx="403.88" cy="258.5"/>
    </g>
    <g fill="rgb(255,243,230)" text-rendering="geometricPrecision" shape-rendering="geometricPrecision" stroke="rgb(255,243,230)">
      <rect x="0" y="265" clip-path="url(#clipPath1)" width="260" rx="4" ry="4" height="70" stroke="none"/>
    </g>
    <g text-rendering="geometricPrecision" stroke-miterlimit="1.45" font-size="24px" shape-rendering="geometricPrecision" font-family="'Arial'" stroke-linecap="butt">
      <text x="30.6074" xml:space="preserve" y="294.9141" clip-path="url(#clipPath1)" stroke="none">Fehlentwicklungen</text>
      <text x="79.9609" xml:space="preserve" y="321.7266" clip-path="url(#clipPath1)" stroke="none">erkennen</text>
    </g>
    <g fill="rgb(255,130,0)" text-rendering="geometricPrecision" stroke-miterlimit="1.45" shape-rendering="geometricPrecision" stroke-linecap="butt" stroke="rgb(255,130,0)">
      <rect x="0" y="265" clip-path="url(#clipPath1)" fill="none" width="260" rx="4" ry="4" height="70"/>
    </g>
    <g fill="rgb(255,243,230)" text-rendering="geometricPrecision" shape-rendering="geometricPrecision" stroke="rgb(255,243,230)">
      <rect x="0" y="199.5" clip-path="url(#clipPath1)" width="260" rx="4" ry="4" height="50" stroke="none"/>
    </g>
    <g text-rendering="geometricPrecision" stroke-miterlimit="1.45" font-size="24px" shape-rendering="geometricPrecision" font-family="'Arial'" stroke-linecap="butt">
      <text x="31.2812" xml:space="preserve" y="232.8203" clip-path="url(#clipPath1)" stroke="none">Fehler analysieren</text>
    </g>
    <g fill="rgb(255,130,0)" text-rendering="geometricPrecision" stroke-miterlimit="1.45" shape-rendering="geometricPrecision" stroke-linecap="butt" stroke="rgb(255,130,0)">
      <rect x="0" y="199.5" clip-path="url(#clipPath1)" fill="none" width="260" rx="4" ry="4" height="50"/>
    </g>
    <g fill="rgb(255,243,230)" text-rendering="geometricPrecision" shape-rendering="geometricPrecision" stroke="rgb(255,243,230)">
      <rect x="0" y="350.5" clip-path="url(#clipPath1)" width="260" rx="4" ry="4" height="96" stroke="none"/>
    </g>
    <g text-rendering="geometricPrecision" stroke-miterlimit="1.45" font-size="24px" shape-rendering="geometricPrecision" font-family="'Arial'" stroke-linecap="butt">
      <text x="31.2988" xml:space="preserve" y="380.0078" clip-path="url(#clipPath1)" stroke="none">Missverständnisse</text>
      <text x="39.2734" xml:space="preserve" y="406.8203" clip-path="url(#clipPath1)" stroke="none">und Unklarheiten</text>
      <text x="75.291" xml:space="preserve" y="433.6328" clip-path="url(#clipPath1)" stroke="none">beseitigen</text>
    </g>
    <g fill="rgb(255,130,0)" text-rendering="geometricPrecision" stroke-miterlimit="1.45" shape-rendering="geometricPrecision" stroke-linecap="butt" stroke="rgb(255,130,0)">
      <rect x="0" y="350.5" clip-path="url(#clipPath1)" fill="none" width="260" rx="4" ry="4" height="96"/>
    </g>
    <g fill="rgb(255,243,230)" text-rendering="geometricPrecision" shape-rendering="geometricPrecision" stroke="rgb(255,243,230)">
      <rect x="0" y="114" clip-path="url(#clipPath1)" width="260" rx="4" ry="4" height="70" stroke="none"/>
    </g>
    <g text-rendering="geometricPrecision" stroke-miterlimit="1.45" font-size="24px" shape-rendering="geometricPrecision" font-family="'Arial'" stroke-linecap="butt">
      <text x="11.9102" xml:space="preserve" y="143.9141" clip-path="url(#clipPath1)" stroke="none">Entscheidungsfindung</text>
      <text x="63.959" xml:space="preserve" y="170.7266" clip-path="url(#clipPath1)" stroke="none">unterstützen</text>
    </g>
    <g fill="rgb(255,130,0)" text-rendering="geometricPrecision" stroke-miterlimit="1.45" shape-rendering="geometricPrecision" stroke-linecap="butt" stroke="rgb(255,130,0)">
      <rect x="0" y="114" clip-path="url(#clipPath1)" fill="none" width="260" rx="4" ry="4" height="70"/>
      <ellipse stroke-linecap="square" clip-path="url(#clipPath1)" rx="87" cx="403.88" ry="30" cy="42.1139" stroke="none" stroke-miterlimit="10"/>
    </g>
    <g text-rendering="geometricPrecision" stroke-miterlimit="1.45" font-size="24px" shape-rendering="geometricPrecision" font-family="'Arial'" stroke-linecap="butt">
      <text x="358.5226" xml:space="preserve" y="50.4342" clip-path="url(#clipPath1)" stroke="none">Auswahl</text>
    </g>
    <g fill="silver" text-rendering="geometricPrecision" stroke-miterlimit="1.45" shape-rendering="geometricPrecision" stroke-linecap="butt" stroke="silver">
      <ellipse rx="87" fill="none" ry="30" clip-path="url(#clipPath1)" cx="403.88" cy="42.1139"/>
    </g>
    <g fill="rgb(255,130,0)" text-rendering="geometricPrecision" shape-rendering="geometricPrecision" stroke="rgb(255,130,0)">
      <ellipse rx="87" ry="30" clip-path="url(#clipPath1)" cx="403.88" cy="404.5" stroke="none"/>
    </g>
    <g text-rendering="geometricPrecision" stroke-miterlimit="1.45" font-size="24px" shape-rendering="geometricPrecision" font-family="'Arial'" stroke-linecap="butt">
      <text x="356.5187" xml:space="preserve" y="412.8203" clip-path="url(#clipPath1)" stroke="none">Kontrolle</text>
    </g>
    <g fill="silver" text-rendering="geometricPrecision" stroke-miterlimit="1.45" shape-rendering="geometricPrecision" stroke-linecap="butt" stroke="silver">
      <ellipse rx="87" fill="none" ry="30" clip-path="url(#clipPath1)" cx="403.88" cy="404.5"/>
    </g>
    <g fill="rgb(255,130,0)" text-rendering="geometricPrecision" shape-rendering="geometricPrecision" stroke="rgb(255,130,0)">
      <ellipse rx="87" ry="30" clip-path="url(#clipPath1)" cx="411.19" cy="555.5" stroke="none"/>
    </g>
    <g text-rendering="geometricPrecision" stroke-miterlimit="1.45" font-size="24px" shape-rendering="geometricPrecision" font-family="'Arial'" stroke-linecap="butt">
      <text x="337.8189" xml:space="preserve" y="563.8203" clip-path="url(#clipPath1)" stroke="none">Rückmeldung</text>
    </g>
    <g fill="silver" text-rendering="geometricPrecision" stroke-miterlimit="1.45" shape-rendering="geometricPrecision" stroke-linecap="butt" stroke="silver">
      <ellipse rx="87" fill="none" ry="30" clip-path="url(#clipPath1)" cx="411.19" cy="555.5"/>
    </g>
  </g>
</svg>
