<?xml version="1.0" encoding="UTF-8"?><svg xmlns="http://www.w3.org/2000/svg" xmlns:xlink="http://www.w3.org/1999/xlink" fill-opacity="1" color-rendering="auto" color-interpolation="auto" text-rendering="auto" stroke="black" stroke-linecap="square" width="961" stroke-miterlimit="10" shape-rendering="auto" stroke-opacity="1" fill="black" stroke-dasharray="none" font-weight="normal" stroke-width="1" height="598" font-family="'Dialog'" font-style="normal" stroke-linejoin="miter" font-size="12px" stroke-dashoffset="0" image-rendering="auto">
  <!--Generated by ySVG 2.5-->
  <defs id="genericDefs"/>
  <g>
    <defs id="defs1">
      <clipPath clipPathUnits="userSpaceOnUse" id="clipPath1">
        <path d="M0 0 L961 0 L961 598 L0 598 L0 0 Z"/>
      </clipPath>
      <clipPath clipPathUnits="userSpaceOnUse" id="clipPath2">
        <path d="M0 62 L961 62 L961 660 L0 660 L0 62 Z"/>
      </clipPath>
      <clipPath clipPathUnits="userSpaceOnUse" id="clipPath3">
        <path d="M-5 57 L956 57 L956 655 L-5 655 L-5 57 Z"/>
      </clipPath>
      <clipPath clipPathUnits="userSpaceOnUse" id="clipPath4">
        <path d="M-382.5057 406.1205 L97.9943 -426.1299 L615.8775 -127.13 L135.3775 705.1205 L-382.5057 406.1205 Z"/>
      </clipPath>
      <clipPath clipPathUnits="userSpaceOnUse" id="clipPath5">
        <path d="M42.9081 -424.2222 L523.4081 408.0283 L5.5249 707.0283 L-474.9751 -125.2222 L42.9081 -424.2222 Z"/>
      </clipPath>
    </defs>
    <g fill="silver" text-rendering="geometricPrecision" shape-rendering="geometricPrecision" transform="matrix(1,0,0,1,0,-62)" stroke="silver">
      <rect x="58.4788" width="217" height="40" y="198.5" clip-path="url(#clipPath2)" stroke="none"/>
    </g>
    <g stroke-linecap="butt" font-size="24px" transform="matrix(1,0,0,1,0,-62)" fill="rgb(34,34,34)" text-rendering="geometricPrecision" font-family="'Arial'" shape-rendering="geometricPrecision" stroke="rgb(34,34,34)" stroke-miterlimit="1.45">
      <text x="124.2991" xml:space="preserve" y="226.8203" clip-path="url(#clipPath2)" stroke="none">material</text>
    </g>
    <g stroke-linecap="butt" transform="matrix(1,0,0,1,0,-62)" fill="white" text-rendering="geometricPrecision" shape-rendering="geometricPrecision" stroke="white" stroke-width="2" stroke-miterlimit="1.45">
      <rect fill="none" x="58.4788" width="217" height="40" y="198.5" clip-path="url(#clipPath2)"/>
      <text x="195.9433" font-size="18px" y="651.2402" clip-path="url(#clipPath2)" font-family="'Arial'" stroke="none" stroke-width="1" xml:space="preserve">Quelle: Reinmann: Didaktisches Handeln. In: Ebner, Schön: L3T (2013)</text>
    </g>
    <g transform="matrix(1,0,0,1,0,-62) translate(5,5)" fill-opacity="0.6" fill="rgb(0,0,0)" text-rendering="geometricPrecision" shape-rendering="geometricPrecision" stroke="rgb(0,0,0)" stroke-opacity="0.6">
      <path d="M481.1 62.5884 L699.3 439.4116 L262.9 439.4116 Z" fill-rule="evenodd" clip-path="url(#clipPath3)" stroke="none"/>
    </g>
    <g fill="rgb(138,27,97)" text-rendering="geometricPrecision" shape-rendering="geometricPrecision" transform="matrix(1,0,0,1,0,-62)" stroke="rgb(138,27,97)">
      <path d="M481.1 62.5884 L699.3 439.4116 L262.9 439.4116 Z" fill-rule="evenodd" clip-path="url(#clipPath2)" stroke="none"/>
    </g>
    <g stroke-linecap="butt" transform="matrix(1,0,0,1,0,-62)" fill="white" text-rendering="geometricPrecision" shape-rendering="geometricPrecision" stroke="white" stroke-width="2" stroke-miterlimit="1.45">
      <path fill="none" d="M481.1 62.5884 L699.3 439.4116 L262.9 439.4116 Z" fill-rule="evenodd" clip-path="url(#clipPath2)"/>
    </g>
    <g stroke-linecap="butt" font-size="28px" transform="matrix(0.5,0.866,-0.866,0.5,542.9635,128.1994)" fill="white" text-rendering="geometricPrecision" font-family="'Arial'" shape-rendering="geometricPrecision" stroke="white" font-weight="bold" stroke-miterlimit="1.45">
      <text x="2" xml:space="preserve" y="27.3477" clip-path="url(#clipPath4)" stroke="none">Aktivierung</text>
    </g>
    <g stroke-linecap="butt" font-size="28px" transform="matrix(0.5,-0.866,0.866,0.5,345.9331,249.2706)" fill="white" text-rendering="geometricPrecision" font-family="'Arial'" shape-rendering="geometricPrecision" stroke="white" font-weight="bold" stroke-miterlimit="1.45">
      <text x="2" xml:space="preserve" y="27.3477" clip-path="url(#clipPath5)" stroke="none">Vermittlung</text>
    </g>
    <g stroke-linecap="butt" font-size="28px" transform="matrix(1,0,0,1,0,-62)" fill="white" text-rendering="geometricPrecision" font-family="'Arial'" shape-rendering="geometricPrecision" stroke="white" font-weight="bold" stroke-miterlimit="1.45">
      <text x="412.2" xml:space="preserve" y="424.1186" clip-path="url(#clipPath2)" stroke="none">Betreuung</text>
    </g>
    <g transform="matrix(1,0,0,1,0,-62) translate(5,5)" fill-opacity="0.6" fill="rgb(0,0,0)" text-rendering="geometricPrecision" shape-rendering="geometricPrecision" stroke="rgb(0,0,0)" stroke-opacity="0.6">
      <path d="M337.2788 121 L365.4188 96 L590.5388 96 L618.6788 121 L590.5388 146 L365.4188 146 Z" fill-rule="evenodd" clip-path="url(#clipPath3)" stroke="none"/>
    </g>
    <g fill="rgb(138,27,97)" text-rendering="geometricPrecision" shape-rendering="geometricPrecision" transform="matrix(1,0,0,1,0,-62)" stroke="rgb(138,27,97)">
      <path d="M337.2788 121 L365.4188 96 L590.5388 96 L618.6788 121 L590.5388 146 L365.4188 146 Z" fill-rule="evenodd" clip-path="url(#clipPath2)" stroke="none"/>
    </g>
    <g stroke-linecap="butt" font-size="28px" transform="matrix(1,0,0,1,0,-62)" fill="white" text-rendering="geometricPrecision" font-family="'Arial'" shape-rendering="geometricPrecision" stroke="white" stroke-miterlimit="1.45">
      <text x="382.2688" xml:space="preserve" y="130.707" clip-path="url(#clipPath2)" stroke="none">Lehr-Lern-Ziele</text>
      <path fill="none" d="M337.2788 121 L365.4188 96 L590.5388 96 L618.6788 121 L590.5388 146 L365.4188 146 Z" stroke-width="2" clip-path="url(#clipPath2)" fill-rule="evenodd"/>
    </g>
    <g fill="rgb(255,198,0)" text-rendering="geometricPrecision" shape-rendering="geometricPrecision" transform="matrix(1,0,0,1,0,-62)" stroke="rgb(255,198,0)">
      <rect x="19.9788" y="86.5" clip-path="url(#clipPath2)" width="294" rx="4" ry="4" height="117" stroke="none"/>
    </g>
    <g stroke-linecap="butt" font-size="24px" transform="matrix(1,0,0,1,0,-62)" fill="rgb(34,34,34)" text-rendering="geometricPrecision" font-family="'Arial'" shape-rendering="geometricPrecision" stroke="rgb(34,34,34)" stroke-miterlimit="1.45">
      <text x="42.9006" xml:space="preserve" y="165.6016" clip-path="url(#clipPath2)" stroke="none">Einsatz und Gestaltung</text>
      <text x="77.5999" xml:space="preserve" y="192.4141" clip-path="url(#clipPath2)" stroke="none">von Lehrmaterial</text>
    </g>
    <g stroke-linecap="butt" transform="matrix(1,0,0,1,0,-62)" fill="white" text-rendering="geometricPrecision" shape-rendering="geometricPrecision" stroke="white" stroke-width="2" stroke-miterlimit="1.45">
      <rect x="19.9788" y="86.5" clip-path="url(#clipPath2)" fill="none" width="294" rx="4" ry="4" height="117"/>
      <text x="409.8348" font-size="28px" y="323.6548" clip-path="url(#clipPath2)" font-family="'Arial'" stroke="none" stroke-width="1" xml:space="preserve">Didaktische</text>
      <text x="419.159" font-size="28px" y="354.9361" clip-path="url(#clipPath2)" font-family="'Arial'" stroke="none" stroke-width="1" xml:space="preserve">Szenarien</text>
    </g>
    <g stroke-linecap="butt" font-size="24px" transform="matrix(1,0,0,1,0,-62)" fill="rgb(34,34,34)" text-rendering="geometricPrecision" font-family="'Arial'" shape-rendering="geometricPrecision" stroke="rgb(34,34,34)" font-weight="bold" stroke-miterlimit="1.45">
      <text x="42.262" xml:space="preserve" y="129.3203" clip-path="url(#clipPath2)" stroke="none">Eine Sache vermitteln</text>
    </g>
    <g fill="silver" text-rendering="geometricPrecision" shape-rendering="geometricPrecision" transform="matrix(1,0,0,1,0,-62)" stroke="silver">
      <rect x="705.4788" width="217" height="40" y="228.5" clip-path="url(#clipPath2)" stroke="none"/>
    </g>
    <g stroke-linecap="butt" font-size="24px" transform="matrix(1,0,0,1,0,-62)" fill="rgb(34,34,34)" text-rendering="geometricPrecision" font-family="'Arial'" shape-rendering="geometricPrecision" stroke="rgb(34,34,34)" stroke-miterlimit="1.45">
      <text x="755.9475" xml:space="preserve" y="256.8203" clip-path="url(#clipPath2)" stroke="none">prozessual</text>
    </g>
    <g stroke-linecap="butt" transform="matrix(1,0,0,1,0,-62)" fill="white" text-rendering="geometricPrecision" shape-rendering="geometricPrecision" stroke="white" stroke-width="2" stroke-miterlimit="1.45">
      <rect fill="none" x="705.4788" width="217" height="40" y="228.5" clip-path="url(#clipPath2)"/>
    </g>
    <g fill="rgb(132,189,0)" text-rendering="geometricPrecision" shape-rendering="geometricPrecision" transform="matrix(1,0,0,1,0,-62)" stroke="rgb(132,189,0)">
      <rect x="660.1788" y="86.5" clip-path="url(#clipPath2)" width="290" rx="4" ry="4" height="145" stroke="none"/>
    </g>
    <g stroke-linecap="butt" font-size="24px" transform="matrix(1,0,0,1,0,-62)" fill="rgb(34,34,34)" text-rendering="geometricPrecision" font-family="'Arial'" shape-rendering="geometricPrecision" stroke="rgb(34,34,34)" stroke-miterlimit="1.45">
      <text x="801.8448" xml:space="preserve" y="113.1641" clip-path="url(#clipPath2)" stroke="none"> </text>
      <text x="801.8448" xml:space="preserve" y="139.9766" clip-path="url(#clipPath2)" stroke="none"> </text>
      <text x="669.7452" xml:space="preserve" y="166.7891" clip-path="url(#clipPath2)" stroke="none">Gestaltung von Aufgaben</text>
      <text x="697.1319" xml:space="preserve" y="193.6016" clip-path="url(#clipPath2)" stroke="none">zur Förderung sach-</text>
      <text x="672.4229" xml:space="preserve" y="220.4141" clip-path="url(#clipPath2)" stroke="none">bezogener Lernprozesse</text>
    </g>
    <g stroke-linecap="butt" transform="matrix(1,0,0,1,0,-62)" fill="white" text-rendering="geometricPrecision" shape-rendering="geometricPrecision" stroke="white" stroke-width="2" stroke-miterlimit="1.45">
      <rect x="660.1788" y="86.5" clip-path="url(#clipPath2)" fill="none" width="290" rx="4" ry="4" height="145"/>
    </g>
    <g stroke-linecap="butt" font-size="24px" transform="matrix(1,0,0,1,0,-62)" fill="rgb(34,34,34)" text-rendering="geometricPrecision" font-family="'Arial'" shape-rendering="geometricPrecision" stroke="rgb(34,34,34)" font-weight="bold" stroke-miterlimit="1.45">
      <text x="691.4499" xml:space="preserve" y="129.3203" clip-path="url(#clipPath2)" stroke="none">Lernende aktivieren</text>
    </g>
    <g fill="silver" text-rendering="geometricPrecision" shape-rendering="geometricPrecision" transform="matrix(1,0,0,1,0,-62)" stroke="silver">
      <rect x="373.7" width="217" height="40" y="560" clip-path="url(#clipPath2)" stroke="none"/>
    </g>
    <g stroke-linecap="butt" font-size="24px" transform="matrix(1,0,0,1,0,-62)" fill="rgb(34,34,34)" text-rendering="geometricPrecision" font-family="'Arial'" shape-rendering="geometricPrecision" stroke="rgb(34,34,34)" stroke-miterlimit="1.45">
      <text x="451.5203" xml:space="preserve" y="588.3203" clip-path="url(#clipPath2)" stroke="none">sozial</text>
    </g>
    <g stroke-linecap="butt" transform="matrix(1,0,0,1,0,-62)" fill="white" text-rendering="geometricPrecision" shape-rendering="geometricPrecision" stroke="white" stroke-width="2" stroke-miterlimit="1.45">
      <rect fill="none" x="373.7" width="217" height="40" y="560" clip-path="url(#clipPath2)"/>
    </g>
    <g fill="rgb(255,130,0)" text-rendering="geometricPrecision" shape-rendering="geometricPrecision" transform="matrix(1,0,0,1,0,-62)" stroke="rgb(255,130,0)">
      <rect x="317.4" y="448" clip-path="url(#clipPath2)" width="329.6" rx="4" ry="4" height="117" stroke="none"/>
    </g>
    <g stroke-linecap="butt" font-size="24px" transform="matrix(1,0,0,1,0,-62)" fill="rgb(34,34,34)" text-rendering="geometricPrecision" font-family="'Arial'" shape-rendering="geometricPrecision" stroke="rgb(34,34,34)" stroke-miterlimit="1.45">
      <text x="478.866" xml:space="preserve" y="500.2891" clip-path="url(#clipPath2)" stroke="none"> </text>
      <text x="329.4168" xml:space="preserve" y="527.1016" clip-path="url(#clipPath2)" stroke="none">Gestaltung von begleitenden</text>
      <text x="326.1297" xml:space="preserve" y="553.9141" clip-path="url(#clipPath2)" stroke="none">Kommunikationsmaßnahmen</text>
    </g>
    <g stroke-linecap="butt" transform="matrix(1,0,0,1,0,-62)" fill="white" text-rendering="geometricPrecision" shape-rendering="geometricPrecision" stroke="white" stroke-width="2" stroke-miterlimit="1.45">
      <rect x="317.4" y="448" clip-path="url(#clipPath2)" fill="none" width="329.6" rx="4" ry="4" height="117"/>
    </g>
    <g stroke-linecap="butt" font-size="24px" transform="matrix(1,0,0,1,0,-62)" fill="rgb(34,34,34)" text-rendering="geometricPrecision" font-family="'Arial'" shape-rendering="geometricPrecision" stroke="rgb(34,34,34)" font-weight="bold" stroke-miterlimit="1.45">
      <text x="374.1766" xml:space="preserve" y="489.9087" clip-path="url(#clipPath2)" stroke="none">Lernende betreuen</text>
    </g>
  </g>
</svg>
