<?xml version="1.0" encoding="UTF-8"?><svg xmlns="http://www.w3.org/2000/svg" xmlns:xlink="http://www.w3.org/1999/xlink" fill-opacity="1" color-rendering="auto" color-interpolation="auto" text-rendering="auto" stroke="black" stroke-linecap="square" width="963" stroke-miterlimit="10" shape-rendering="auto" stroke-opacity="1" fill="black" stroke-dasharray="none" font-weight="normal" stroke-width="1" height="660" font-family="'Dialog'" font-style="normal" stroke-linejoin="miter" font-size="12px" stroke-dashoffset="0" image-rendering="auto">
  <!--Generated by ySVG 2.5-->
  <defs id="genericDefs"/>
  <g>
    <defs id="defs1">
      <clipPath clipPathUnits="userSpaceOnUse" id="clipPath1">
        <path d="M0 0 L963 0 L963 660 L0 660 L0 0 Z"/>
      </clipPath>
      <clipPath clipPathUnits="userSpaceOnUse" id="clipPath2">
        <path d="M-5 -5 L958 -5 L958 655 L-5 655 L-5 -5 Z"/>
      </clipPath>
      <clipPath clipPathUnits="userSpaceOnUse" id="clipPath3">
        <path d="M-416.9063 404.5035 L64.5937 -429.4789 L636.1705 -99.4789 L154.6705 734.5035 L-416.9063 404.5035 Z"/>
      </clipPath>
      <clipPath clipPathUnits="userSpaceOnUse" id="clipPath4">
        <path d="M101.536 -424.6757 L583.036 409.3068 L11.4592 739.3068 L-470.0408 -94.6756 L101.536 -424.6757 Z"/>
      </clipPath>
    </defs>
    <g stroke-linecap="butt" font-size="18px" fill="white" text-rendering="geometricPrecision" font-family="'Arial'" shape-rendering="geometricPrecision" stroke="white" stroke-miterlimit="1.45">
      <text x="308.3979" xml:space="preserve" y="651.2402" clip-path="url(#clipPath1)" stroke="none">Quelle Ausbildungsverordnung: IHK (2007)</text>
    </g>
    <g transform="translate(5,5)" fill-opacity="0.6" fill="rgb(0,0,0)" text-rendering="geometricPrecision" shape-rendering="geometricPrecision" stroke="rgb(0,0,0)" stroke-opacity="0.6">
      <path d="M478.9 12.1768 L697.1 389 L260.7 389 Z" fill-rule="evenodd" clip-path="url(#clipPath2)" stroke="none"/>
    </g>
    <g fill="rgb(255,255,255)" text-rendering="geometricPrecision" fill-opacity="0.8627" shape-rendering="geometricPrecision" stroke-opacity="0.8627" stroke="rgb(255,255,255)">
      <path d="M478.9 12.1768 L697.1 389 L260.7 389 Z" fill-rule="evenodd" clip-path="url(#clipPath1)" stroke="none"/>
    </g>
    <g stroke-linecap="butt" fill="white" text-rendering="geometricPrecision" shape-rendering="geometricPrecision" stroke="white" stroke-width="2" stroke-miterlimit="1.45">
      <path fill="none" d="M478.9 12.1768 L697.1 389 L260.7 389 Z" fill-rule="evenodd" clip-path="url(#clipPath1)"/>
    </g>
    <g font-size="28px" stroke-linecap="butt" transform="matrix(0.5,0.866,-0.866,0.5,558.7635,158.7997)" text-rendering="geometricPrecision" font-family="'Arial'" shape-rendering="geometricPrecision" font-weight="bold" stroke-miterlimit="1.45">
      <text x="2" xml:space="preserve" y="27.3477" clip-path="url(#clipPath3)" stroke="none">Aktivierung</text>
    </g>
    <g font-size="28px" stroke-linecap="butt" transform="matrix(0.5,-0.866,0.866,0.5,317.0119,300.2706)" text-rendering="geometricPrecision" font-family="'Arial'" shape-rendering="geometricPrecision" font-weight="bold" stroke-miterlimit="1.45">
      <text x="2" xml:space="preserve" y="27.3477" clip-path="url(#clipPath4)" stroke="none">Vermittlung</text>
    </g>
    <g font-size="28px" stroke-linecap="butt" text-rendering="geometricPrecision" font-family="'Arial'" shape-rendering="geometricPrecision" font-weight="bold" stroke-miterlimit="1.45">
      <text x="410" xml:space="preserve" y="373.707" clip-path="url(#clipPath1)" stroke="none">Betreuung</text>
      <text x="407.6348" xml:space="preserve" y="273.2432" clip-path="url(#clipPath1)" font-weight="normal" stroke="none">Didaktische</text>
      <text x="416.959" xml:space="preserve" y="304.5244" clip-path="url(#clipPath1)" font-weight="normal" stroke="none">Szenarien</text>
    </g>
    <g transform="translate(5,5)" fill-opacity="0.6" fill="rgb(0,0,0)" text-rendering="geometricPrecision" shape-rendering="geometricPrecision" stroke="rgb(0,0,0)" stroke-opacity="0.6">
      <path d="M307.1106 121 L341.2962 101 L614.7827 101 L648.9682 121 L614.7827 141 L341.2962 141 Z" fill-rule="evenodd" clip-path="url(#clipPath2)" stroke="none"/>
    </g>
    <g fill="rgb(138,27,97)" text-rendering="geometricPrecision" shape-rendering="geometricPrecision" stroke="rgb(138,27,97)">
      <path d="M307.1106 121 L341.2962 101 L614.7827 101 L648.9682 121 L614.7827 141 L341.2962 141 Z" fill-rule="evenodd" clip-path="url(#clipPath1)" stroke="none"/>
    </g>
    <g stroke-linecap="butt" font-size="28px" fill="white" text-rendering="geometricPrecision" font-family="'Arial'" shape-rendering="geometricPrecision" stroke="white" stroke-miterlimit="1.45">
      <text x="344.1507" xml:space="preserve" y="130.707" clip-path="url(#clipPath1)" stroke="none">Rahmenbedingungen</text>
      <path fill="none" d="M307.1106 121 L341.2962 101 L614.7827 101 L648.9682 121 L614.7827 141 L341.2962 141 Z" stroke-width="2" clip-path="url(#clipPath1)" fill-rule="evenodd"/>
    </g>
    <g transform="translate(5,5)" fill-opacity="0.6" fill="rgb(0,0,0)" text-rendering="geometricPrecision" shape-rendering="geometricPrecision" stroke="rgb(0,0,0)" stroke-opacity="0.6">
      <path d="M335.0788 76 L363.2188 56 L588.3387 56 L616.4788 76 L588.3387 96 L363.2188 96 Z" fill-rule="evenodd" clip-path="url(#clipPath2)" stroke="none"/>
    </g>
    <g fill="rgb(138,27,97)" text-rendering="geometricPrecision" shape-rendering="geometricPrecision" stroke="rgb(138,27,97)">
      <path d="M335.0788 76 L363.2188 56 L588.3387 56 L616.4788 76 L588.3387 96 L363.2188 96 Z" fill-rule="evenodd" clip-path="url(#clipPath1)" stroke="none"/>
    </g>
    <g stroke-linecap="butt" font-size="28px" fill="white" text-rendering="geometricPrecision" font-family="'Arial'" shape-rendering="geometricPrecision" stroke="white" stroke-miterlimit="1.45">
      <text x="380.0688" xml:space="preserve" y="85.707" clip-path="url(#clipPath1)" stroke="none">Lehr-Lern-Ziele</text>
      <path fill="none" d="M335.0788 76 L363.2188 56 L588.3387 56 L616.4788 76 L588.3387 96 L363.2188 96 Z" stroke-width="2" clip-path="url(#clipPath1)" fill-rule="evenodd"/>
    </g>
    <g fill="rgb(138,27,97)" text-rendering="geometricPrecision" shape-rendering="geometricPrecision" stroke="rgb(138,27,97)">
      <rect x="705.65" y="182.3663" clip-path="url(#clipPath1)" width="218" rx="4" ry="4" height="83" stroke="none"/>
    </g>
    <g stroke-linecap="butt" font-size="28px" fill="white" text-rendering="geometricPrecision" font-family="'Arial'" shape-rendering="geometricPrecision" stroke="white" stroke-miterlimit="1.45">
      <text x="733.7125" xml:space="preserve" y="217.9327" clip-path="url(#clipPath1)" stroke="none">Ausbildungs-</text>
      <text x="729.8365" xml:space="preserve" y="249.2139" clip-path="url(#clipPath1)" stroke="none">(ver-)ordnung</text>
    </g>
    <g fill="silver" text-rendering="geometricPrecision" stroke-miterlimit="1.45" shape-rendering="geometricPrecision" stroke-linecap="butt" stroke="silver">
      <rect x="705.65" y="182.3663" clip-path="url(#clipPath1)" fill="none" width="218" rx="4" ry="4" height="83"/>
    </g>
    <g fill="rgb(244,233,240)" text-rendering="geometricPrecision" shape-rendering="geometricPrecision" stroke="rgb(244,233,240)">
      <rect x="697.1" y="291.9271" clip-path="url(#clipPath1)" width="227" rx="4" ry="4" height="83" stroke="none"/>
    </g>
    <g text-rendering="geometricPrecision" stroke-miterlimit="1.45" font-size="28px" shape-rendering="geometricPrecision" font-family="'Arial'" stroke-linecap="butt">
      <text x="776.3656" xml:space="preserve" y="327.4935" clip-path="url(#clipPath1)" stroke="none">Kern-</text>
      <text x="721.0902" xml:space="preserve" y="358.7747" clip-path="url(#clipPath1)" stroke="none">qualifikationen</text>
    </g>
    <g fill="rgb(138,27,97)" text-rendering="geometricPrecision" stroke-miterlimit="1.45" shape-rendering="geometricPrecision" stroke-linecap="butt" stroke="rgb(138,27,97)">
      <rect x="697.1" y="291.9271" clip-path="url(#clipPath1)" fill="none" width="227" rx="4" ry="4" height="83"/>
    </g>
    <g fill="rgb(244,233,240)" text-rendering="geometricPrecision" shape-rendering="geometricPrecision" stroke="rgb(244,233,240)">
      <rect x="430.2827" y="511.0486" clip-path="url(#clipPath1)" width="529.7173" rx="4" ry="4" height="112" stroke="none"/>
    </g>
    <g text-rendering="geometricPrecision" stroke-miterlimit="1.45" font-size="28px" shape-rendering="geometricPrecision" font-family="'Arial'" stroke-linecap="butt">
      <text x="457.7702" xml:space="preserve" y="545.4744" clip-path="url(#clipPath1)" stroke="none">Zerspanungsprozess unter Beachtung</text>
      <text x="448.4597" xml:space="preserve" y="576.7557" clip-path="url(#clipPath1)" stroke="none">von Sicherheitsvorschriften durchführen</text>
      <text x="478.8181" xml:space="preserve" y="608.0369" clip-path="url(#clipPath1)" stroke="none">(Beispiel Zerspanungsmechaniker)</text>
    </g>
    <g fill="rgb(138,27,97)" text-rendering="geometricPrecision" stroke-miterlimit="1.45" shape-rendering="geometricPrecision" stroke-linecap="butt" stroke="rgb(138,27,97)">
      <rect x="430.2827" y="511.0486" clip-path="url(#clipPath1)" fill="none" width="529.7173" rx="4" ry="4" height="112"/>
    </g>
    <g fill="rgb(244,233,240)" text-rendering="geometricPrecision" shape-rendering="geometricPrecision" stroke="rgb(244,233,240)">
      <rect x="669" y="401.4878" clip-path="url(#clipPath1)" width="291" rx="4" ry="4" height="83" stroke="none"/>
    </g>
    <g text-rendering="geometricPrecision" stroke-miterlimit="1.45" font-size="28px" shape-rendering="geometricPrecision" font-family="'Arial'" stroke-linecap="butt">
      <text x="704.7832" xml:space="preserve" y="437.0543" clip-path="url(#clipPath1)" stroke="none">Berufsspezifische</text>
      <text x="693.8662" xml:space="preserve" y="468.3355" clip-path="url(#clipPath1)" stroke="none">Fachqualifikationen</text>
    </g>
    <g fill="rgb(138,27,97)" text-rendering="geometricPrecision" stroke-miterlimit="1.45" shape-rendering="geometricPrecision" stroke-linecap="butt" stroke="rgb(138,27,97)">
      <rect x="669" y="401.4878" clip-path="url(#clipPath1)" fill="none" width="291" rx="4" ry="4" height="83"/>
    </g>
    <g fill="rgb(244,233,240)" text-rendering="geometricPrecision" shape-rendering="geometricPrecision" stroke="rgb(244,233,240)">
      <rect x="733.65" y="20" clip-path="url(#clipPath1)" width="209" rx="4" ry="4" height="112" stroke="none"/>
    </g>
    <g text-rendering="geometricPrecision" stroke-miterlimit="1.45" font-size="28px" shape-rendering="geometricPrecision" font-family="'Arial'" stroke-linecap="butt">
      <text x="782.1295" xml:space="preserve" y="54.4258" clip-path="url(#clipPath1)" stroke="none">Betriebs-</text>
      <text x="768.8951" xml:space="preserve" y="85.707" clip-path="url(#clipPath1)" stroke="none">spezifische</text>
      <text x="749.4332" xml:space="preserve" y="116.9883" clip-path="url(#clipPath1)" stroke="none">Schwerpunkte</text>
    </g>
    <g fill="rgb(138,27,97)" text-rendering="geometricPrecision" stroke-miterlimit="1.45" shape-rendering="geometricPrecision" stroke-linecap="butt" stroke="rgb(138,27,97)">
      <rect x="733.65" y="20" clip-path="url(#clipPath1)" fill="none" width="209" rx="4" ry="4" height="112"/>
    </g>
    <g fill="rgb(244,233,240)" text-rendering="geometricPrecision" shape-rendering="geometricPrecision" stroke="rgb(244,233,240)">
      <rect x="37.7" y="306" clip-path="url(#clipPath1)" width="193" rx="4" ry="4" height="83" stroke="none"/>
    </g>
    <g text-rendering="geometricPrecision" stroke-miterlimit="1.45" font-size="28px" shape-rendering="geometricPrecision" font-family="'Arial'" stroke-linecap="butt">
      <text x="62.6072" xml:space="preserve" y="341.5664" clip-path="url(#clipPath1)" stroke="none">Technische</text>
      <text x="60.2625" xml:space="preserve" y="372.8477" clip-path="url(#clipPath1)" stroke="none">Ausstattung</text>
    </g>
    <g fill="rgb(138,27,97)" text-rendering="geometricPrecision" stroke-miterlimit="1.45" shape-rendering="geometricPrecision" stroke-linecap="butt" stroke="rgb(138,27,97)">
      <rect x="37.7" y="306" clip-path="url(#clipPath1)" fill="none" width="193" rx="4" ry="4" height="83"/>
    </g>
    <g fill="rgb(244,233,240)" text-rendering="geometricPrecision" shape-rendering="geometricPrecision" stroke="rgb(244,233,240)">
      <rect x="172.5" y="429.25" clip-path="url(#clipPath1)" width="193" rx="4" ry="4" height="50" stroke="none"/>
    </g>
    <g text-rendering="geometricPrecision" stroke-miterlimit="1.45" font-size="28px" shape-rendering="geometricPrecision" font-family="'Arial'" stroke-linecap="butt">
      <text x="202.0967" xml:space="preserve" y="463.957" clip-path="url(#clipPath1)" stroke="none">Werkstoffe</text>
    </g>
    <g fill="rgb(138,27,97)" text-rendering="geometricPrecision" stroke-miterlimit="1.45" shape-rendering="geometricPrecision" stroke-linecap="butt" stroke="rgb(138,27,97)">
      <rect x="172.5" y="429.25" clip-path="url(#clipPath1)" fill="none" width="193" rx="4" ry="4" height="50"/>
    </g>
    <g fill="rgb(244,233,240)" text-rendering="geometricPrecision" shape-rendering="geometricPrecision" stroke="rgb(244,233,240)">
      <rect x="0" y="193.0297" clip-path="url(#clipPath1)" width="115" rx="4" ry="4" height="50" stroke="none"/>
    </g>
    <g text-rendering="geometricPrecision" stroke-miterlimit="1.45" font-size="28px" shape-rendering="geometricPrecision" font-family="'Arial'" stroke-linecap="butt">
      <text x="17.0518" xml:space="preserve" y="227.7367" clip-path="url(#clipPath1)" stroke="none">WLAN</text>
    </g>
    <g fill="rgb(138,27,97)" text-rendering="geometricPrecision" stroke-miterlimit="1.45" shape-rendering="geometricPrecision" stroke-linecap="butt" stroke="rgb(138,27,97)">
      <rect x="0" y="193.0297" clip-path="url(#clipPath1)" fill="none" width="115" rx="4" ry="4" height="50"/>
    </g>
    <g fill="rgb(244,233,240)" text-rendering="geometricPrecision" shape-rendering="geometricPrecision" stroke="rgb(244,233,240)">
      <rect x="0" y="553.25" clip-path="url(#clipPath1)" width="193" rx="4" ry="4" height="50" stroke="none"/>
    </g>
    <g text-rendering="geometricPrecision" stroke-miterlimit="1.45" font-size="28px" shape-rendering="geometricPrecision" font-family="'Arial'" stroke-linecap="butt">
      <text x="28.7969" xml:space="preserve" y="587.957" clip-path="url(#clipPath1)" stroke="none">Maschinen</text>
    </g>
    <g fill="rgb(138,27,97)" text-rendering="geometricPrecision" stroke-miterlimit="1.45" shape-rendering="geometricPrecision" stroke-linecap="butt" stroke="rgb(138,27,97)">
      <rect x="0" y="553.25" clip-path="url(#clipPath1)" fill="none" width="193" rx="4" ry="4" height="50"/>
    </g>
    <g fill="rgb(244,233,240)" text-rendering="geometricPrecision" shape-rendering="geometricPrecision" stroke="rgb(244,233,240)">
      <rect x="84.5" y="491.25" clip-path="url(#clipPath1)" width="193" rx="4" ry="4" height="50" stroke="none"/>
    </g>
    <g text-rendering="geometricPrecision" stroke-miterlimit="1.45" font-size="28px" shape-rendering="geometricPrecision" font-family="'Arial'" stroke-linecap="butt">
      <text x="110.1934" xml:space="preserve" y="525.957" clip-path="url(#clipPath1)" stroke="none">Werkzeuge</text>
    </g>
    <g fill="rgb(138,27,97)" text-rendering="geometricPrecision" stroke-miterlimit="1.45" shape-rendering="geometricPrecision" stroke-linecap="butt" stroke="rgb(138,27,97)">
      <rect x="84.5" y="491.25" clip-path="url(#clipPath1)" fill="none" width="193" rx="4" ry="4" height="50"/>
    </g>
    <g fill="rgb(244,233,240)" text-rendering="geometricPrecision" shape-rendering="geometricPrecision" stroke="rgb(244,233,240)">
      <rect x="130.35" y="193.0297" clip-path="url(#clipPath1)" width="115" rx="4" ry="4" height="50" stroke="none"/>
    </g>
    <g text-rendering="geometricPrecision" stroke-miterlimit="1.45" font-size="28px" shape-rendering="geometricPrecision" font-family="'Arial'" stroke-linecap="butt">
      <text x="148.9398" xml:space="preserve" y="227.7367" clip-path="url(#clipPath1)" stroke="none">Tablet</text>
    </g>
    <g fill="rgb(138,27,97)" text-rendering="geometricPrecision" stroke-miterlimit="1.45" shape-rendering="geometricPrecision" stroke-linecap="butt" stroke="rgb(138,27,97)">
      <rect x="130.35" y="193.0297" clip-path="url(#clipPath1)" fill="none" width="115" rx="4" ry="4" height="50"/>
    </g>
    <g fill="rgb(244,233,240)" text-rendering="geometricPrecision" shape-rendering="geometricPrecision" stroke="rgb(244,233,240)">
      <rect x="16" y="34" clip-path="url(#clipPath1)" width="162" rx="4" ry="4" height="50" stroke="none"/>
    </g>
    <g text-rendering="geometricPrecision" stroke-miterlimit="1.45" font-size="28px" shape-rendering="geometricPrecision" font-family="'Arial'" stroke-linecap="butt">
      <text x="41.7451" xml:space="preserve" y="68.707" clip-path="url(#clipPath1)" stroke="none">Personal</text>
    </g>
    <g fill="rgb(138,27,97)" text-rendering="geometricPrecision" stroke-miterlimit="1.45" shape-rendering="geometricPrecision" stroke-linecap="butt" stroke="rgb(138,27,97)">
      <rect x="16" y="34" clip-path="url(#clipPath1)" fill="none" width="162" rx="4" ry="4" height="50"/>
    </g>
    <g stroke-linecap="butt" fill="rgb(199,201,199)" text-rendering="geometricPrecision" shape-rendering="geometricPrecision" stroke-dasharray="18,6" stroke="rgb(199,201,199)" stroke-width="3" stroke-miterlimit="1.45">
      <path fill="none" d="M725.3821 182.3997 L722.4213 175.8268 L718 166.5938 L713.412 157.6888 L708.6296 149.1667 L703.625 141.082 L698.3704 133.4896 L692.838 126.444 L687 120 L680.838 114.194 L674.3704 108.9896 L667.625 104.332 L660.6296 100.1667 L653.412 96.4388 L646 93.0938 L638.4213 90.0768 L630.7037 87.3333 L622.875 84.8086 L622.7777 84.7796 L622.6815 84.7524" clip-path="url(#clipPath1)"/>
      <path d="M609.4826 80.8985 L621.7792 92.3021 L625.9835 77.9034 Z" clip-path="url(#clipPath1)" stroke="none"/>
      <path fill="none" d="M887.8424 265.3954 L865.173 291.9317" clip-path="url(#clipPath1)"/>
      <path fill="none" d="M921.9494 264.6435 L923.7227 266.7266 L928.0741 272.0741 L932.2345 277.5119 L936.1562 283.0625 L939.7915 288.7486 L943.0926 294.5926 L946.0117 300.6172 L948.5012 306.8449 L950.5132 313.2983 L952 320 L952.9298 326.965 L953.3345 334.1783 L953.2617 341.6172 L952.7593 349.2592 L951.8749 357.0819 L950.6562 365.0625 L949.1512 373.1785 L947.4074 381.4074 L945.4727 389.7266 L943.3947 398.1134 L942.5202 401.506" clip-path="url(#clipPath1)"/>
      <path fill="none" d="M834.2979 484.5066 L832.2963 488.1331 L828.6829 493.014 L824 498 L818.1829 503.0974 L811.2963 508.2998 L807.2134 511.0522" clip-path="url(#clipPath1)"/>
      <path fill="none" d="M733.6278 48.4404 L730.7639 47.7721 L717.1111 44.8333 L704.125 42.332 L691.8889 40.3229 L680.4861 38.8607 L670 38 L660.4861 37.7773 L651.8889 38.1562 L644.125 39.082 L637.1111 40.5 L630.7639 42.3555 L625 44.5938 L619.7361 47.1602 L614.8889 50 L610.375 53.0586 L608.7782 54.2655 L608.7012 54.3292" clip-path="url(#clipPath1)"/>
      <path d="M598.0164 62.9836 L614.3931 59.3706 L604.952 47.7144 Z" clip-path="url(#clipPath1)" stroke="none"/>
      <path fill="none" d="M230.6884 322.3905 L234.4258 319.3203 L238.8889 315.4445 L243.3416 311.2977 L247.7812 306.8125 L252.2053 301.921 L256.6111 296.5555 L260.9961 290.6484 L265.3576 284.132 L269.6931 276.9384 L274 269 L278.2765 260.2717 L282.5243 250.7986 L286.7461 240.6484 L290.9445 229.8889 L295.1219 218.5877 L299.2812 206.8125 L303.4249 194.6311 L307.5555 182.1111 L311.6758 169.3203 L315.7882 156.3264 L319.6828 143.8767 L319.7125 143.7812" clip-path="url(#clipPath1)"/>
      <path d="M323.7972 130.652 L312.1797 142.7468 L326.5025 147.2029 Z" clip-path="url(#clipPath1)" stroke="none"/>
      <path fill="none" d="M146.7846 389.0056 L147.0312 389.7188 L149.4796 396.2461 L152.0556 402.5 L154.7773 408.4414 L157.6632 414.0312 L160.7313 419.2305 L164 424 L167.4813 428.3138 L171.1632 432.1979 L172.5217 433.4261" clip-path="url(#clipPath1)"/>
      <path fill="none" d="M129.2086 305.9805 L128.2203 301.2296 L126.6481 295.0555 L124.7773 289.0273 L122.5706 283.1632 L119.9906 277.4813 L117 272 L113.5739 266.7313 L109.7373 261.6632 L105.5273 256.7773 L100.9815 252.0556 L96.137 247.4796 L91.0312 243.0312 L91.0104 243.0143" clip-path="url(#clipPath1)"/>
      <path fill="none" d="M94.9931 389.0213 L91.8827 392.5613 L84.1562 401.75 L76.81 410.9803 L69.9074 420.2593 L63.5117 429.5938 L57.6863 438.9907 L52.4946 448.4572 L48 458 L44.2446 467.6238 L41.1863 477.3241 L38.7617 487.0938 L36.9074 496.9259 L35.56 506.8137 L34.6562 516.75 L34.1327 526.728 L33.9259 536.7407 L33.9727 546.7812 L34.1253 553.2661" clip-path="url(#clipPath1)"/>
      <path fill="none" d="M126.3624 388.9705 L124.8507 397.7263 L123.25 407.375 L121.7743 416.7529 L120.4444 425.8148 L119.2812 434.5156 L118.3056 442.8102 L117.5382 450.6534 L117 458 L116.7049 464.82 L116.6389 471.1435 L116.7812 477.0156 L117.1111 482.4815 L117.6076 487.5862 L118.0944 491.2152" clip-path="url(#clipPath1)"/>
      <path fill="none" d="M136.7021 306.0201 L137.4342 300.4539 L138.463 294.2037 L139.707 288.1133 L141.1933 282.2025 L142.9486 276.4915 L145 271 L147.3653 265.7415 L150.0266 260.7025 L152.957 255.8633 L156.1296 251.2037 L159.5175 246.7038 L162.507 243.0591" clip-path="url(#clipPath1)"/>
      <path fill="none" d="M178.0055 62.9465 L183.7658 63.4023 L195.2408 64.5 L206.3477 65.7852 L217.0405 67.2812 L227.2733 69.0117 L237 71 L246.19 73.2617 L254.8738 75.7812 L263.0977 78.5352 L270.9074 81.5 L278.3491 84.6523 L285.4688 87.9688 L292.3123 91.4258 L298.9259 95 L305.3555 98.668 L311.647 102.4062 L312.2874 102.7973 L312.3725 102.8499" clip-path="url(#clipPath1)"/>
      <path d="M324.0852 110.0524 L315.2363 95.8064 L307.3791 108.5839 Z" clip-path="url(#clipPath1)" stroke="none"/>
    </g>
  </g>
</svg>
