<?xml version="1.0" encoding="UTF-8"?><svg xmlns="http://www.w3.org/2000/svg" xmlns:xlink="http://www.w3.org/1999/xlink" fill-opacity="1" color-rendering="auto" color-interpolation="auto" text-rendering="auto" stroke="black" stroke-linecap="square" width="963" stroke-miterlimit="10" shape-rendering="auto" stroke-opacity="1" fill="black" stroke-dasharray="none" font-weight="normal" stroke-width="1" height="660" font-family="'Dialog'" font-style="normal" stroke-linejoin="miter" font-size="12px" stroke-dashoffset="0" image-rendering="auto">
  <!--Generated by ySVG 2.5-->
  <defs id="genericDefs"/>
  <g>
    <defs id="defs1">
      <clipPath clipPathUnits="userSpaceOnUse" id="clipPath1">
        <path d="M0 0 L963 0 L963 660 L0 660 L0 0 Z"/>
      </clipPath>
    </defs>
    <g stroke-linecap="butt" font-size="18px" fill="white" text-rendering="geometricPrecision" font-family="'Arial'" shape-rendering="geometricPrecision" stroke="white" stroke-miterlimit="1.45">
      <text x="387.9478" xml:space="preserve" y="651.2402" clip-path="url(#clipPath1)" stroke="none">Quelle: Baacke (1997) </text>
    </g>
    <g fill="rgb(208,223,0)" text-rendering="geometricPrecision" shape-rendering="geometricPrecision" stroke="rgb(208,223,0)">
      <rect x="204.25" y="269" clip-path="url(#clipPath1)" width="260" rx="4" ry="4" height="50" stroke="none"/>
    </g>
    <g stroke-linecap="butt" font-size="28px" fill="rgb(34,34,34)" text-rendering="geometricPrecision" font-family="'Arial'" shape-rendering="geometricPrecision" stroke="rgb(34,34,34)" font-weight="bold" stroke-miterlimit="1.45">
      <text x="252.5605" xml:space="preserve" y="303.707" clip-path="url(#clipPath1)" stroke="none">Medienkritik</text>
    </g>
    <g fill="silver" text-rendering="geometricPrecision" stroke-miterlimit="1.45" shape-rendering="geometricPrecision" stroke-linecap="butt" stroke="silver">
      <rect x="204.25" y="269" clip-path="url(#clipPath1)" fill="none" width="260" rx="4" ry="4" height="50"/>
    </g>
    <g fill="rgb(255,198,0)" text-rendering="geometricPrecision" shape-rendering="geometricPrecision" stroke="rgb(255,198,0)">
      <rect x="494.25" y="269" clip-path="url(#clipPath1)" width="260" rx="4" ry="4" height="50" stroke="none"/>
    </g>
    <g stroke-linecap="butt" font-size="28px" fill="rgb(34,34,34)" text-rendering="geometricPrecision" font-family="'Arial'" shape-rendering="geometricPrecision" stroke="rgb(34,34,34)" font-weight="bold" stroke-miterlimit="1.45">
      <text x="534.7949" xml:space="preserve" y="303.707" clip-path="url(#clipPath1)" stroke="none">Medienkunde</text>
    </g>
    <g fill="silver" text-rendering="geometricPrecision" stroke-miterlimit="1.45" shape-rendering="geometricPrecision" stroke-linecap="butt" stroke="silver">
      <rect x="494.25" y="269" clip-path="url(#clipPath1)" fill="none" width="260" rx="4" ry="4" height="50"/>
    </g>
    <g fill="rgb(132,189,0)" text-rendering="geometricPrecision" shape-rendering="geometricPrecision" stroke="rgb(132,189,0)">
      <rect x="494.25" y="336" clip-path="url(#clipPath1)" width="260" rx="4" ry="4" height="50" stroke="none"/>
    </g>
    <g stroke-linecap="butt" font-size="28px" fill="rgb(34,34,34)" text-rendering="geometricPrecision" font-family="'Arial'" shape-rendering="geometricPrecision" stroke="rgb(34,34,34)" font-weight="bold" stroke-miterlimit="1.45">
      <text x="505.2432" xml:space="preserve" y="370.707" clip-path="url(#clipPath1)" stroke="none">Mediengestaltung</text>
    </g>
    <g fill="silver" text-rendering="geometricPrecision" stroke-miterlimit="1.45" shape-rendering="geometricPrecision" stroke-linecap="butt" stroke="silver">
      <rect x="494.25" y="336" clip-path="url(#clipPath1)" fill="none" width="260" rx="4" ry="4" height="50"/>
    </g>
    <g fill="rgb(255,130,0)" text-rendering="geometricPrecision" shape-rendering="geometricPrecision" stroke="rgb(255,130,0)">
      <rect x="204.25" y="336" clip-path="url(#clipPath1)" width="260" rx="4" ry="4" height="50" stroke="none"/>
    </g>
    <g stroke-linecap="butt" font-size="28px" fill="rgb(34,34,34)" text-rendering="geometricPrecision" font-family="'Arial'" shape-rendering="geometricPrecision" stroke="rgb(34,34,34)" font-weight="bold" stroke-miterlimit="1.45">
      <text x="231.6016" xml:space="preserve" y="370.707" clip-path="url(#clipPath1)" stroke="none">Mediennutzung</text>
    </g>
    <g fill="silver" text-rendering="geometricPrecision" stroke-miterlimit="1.45" shape-rendering="geometricPrecision" stroke-linecap="butt" stroke="silver">
      <rect x="204.25" y="336" clip-path="url(#clipPath1)" fill="none" width="260" rx="4" ry="4" height="50"/>
    </g>
    <g fill="rgb(255,249,230)" text-rendering="geometricPrecision" shape-rendering="geometricPrecision" stroke="rgb(255,249,230)">
      <rect x="675" y="0" clip-path="url(#clipPath1)" width="285" rx="4" ry="4" height="89" stroke="none"/>
    </g>
    <g text-rendering="geometricPrecision" stroke-miterlimit="1.45" font-size="24px" shape-rendering="geometricPrecision" font-family="'Arial'" stroke-linecap="butt">
      <text x="707.4727" xml:space="preserve" y="39.4141" clip-path="url(#clipPath1)" stroke="none">Klassische Wissens-</text>
      <text x="704.7832" xml:space="preserve" y="66.2266" clip-path="url(#clipPath1)" stroke="none">bestände (informativ)</text>
    </g>
    <g fill="rgb(255,198,0)" text-rendering="geometricPrecision" stroke-miterlimit="1.45" shape-rendering="geometricPrecision" stroke-linecap="butt" stroke="rgb(255,198,0)">
      <rect x="675" y="0" clip-path="url(#clipPath1)" fill="none" width="285" rx="4" ry="4" height="89"/>
    </g>
    <g fill="rgb(255,249,230)" text-rendering="geometricPrecision" shape-rendering="geometricPrecision" stroke="rgb(255,249,230)">
      <rect x="745" y="108" clip-path="url(#clipPath1)" width="215" rx="4" ry="4" height="142" stroke="none"/>
    </g>
    <g text-rendering="geometricPrecision" stroke-miterlimit="1.45" font-size="24px" shape-rendering="geometricPrecision" font-family="'Arial'" stroke-linecap="butt">
      <text x="803.8086" xml:space="preserve" y="147.1016" clip-path="url(#clipPath1)" stroke="none">Fähigkeit</text>
      <text x="775.1094" xml:space="preserve" y="173.9141" clip-path="url(#clipPath1)" stroke="none">zur Bedienung</text>
      <text x="776.4805" xml:space="preserve" y="200.7266" clip-path="url(#clipPath1)" stroke="none">(instrumentell-</text>
      <text x="769.1328" xml:space="preserve" y="227.5391" clip-path="url(#clipPath1)" stroke="none">qualifikatorisch)</text>
    </g>
    <g fill="rgb(255,198,0)" text-rendering="geometricPrecision" stroke-miterlimit="1.45" shape-rendering="geometricPrecision" stroke-linecap="butt" stroke="rgb(255,198,0)">
      <rect x="745" y="108" clip-path="url(#clipPath1)" fill="none" width="215" rx="4" ry="4" height="142"/>
    </g>
    <g fill="rgb(243,249,230)" text-rendering="geometricPrecision" shape-rendering="geometricPrecision" stroke="rgb(243,249,230)">
      <rect x="453.8" y="532" clip-path="url(#clipPath1)" width="506.2" rx="4" ry="4" height="73" stroke="none"/>
    </g>
    <g text-rendering="geometricPrecision" stroke-miterlimit="1.45" font-size="24px" shape-rendering="geometricPrecision" font-family="'Arial'" stroke-linecap="butt">
      <text x="490.7711" xml:space="preserve" y="563.4141" clip-path="url(#clipPath1)" stroke="none">Ästhetische Varianten, über die Grenzen</text>
      <text x="468.7867" xml:space="preserve" y="590.2266" clip-path="url(#clipPath1)" stroke="none">der Kommunikations-Routine gehen (kreativ)</text>
    </g>
    <g fill="rgb(132,189,0)" text-rendering="geometricPrecision" stroke-miterlimit="1.45" shape-rendering="geometricPrecision" stroke-linecap="butt" stroke="rgb(132,189,0)">
      <rect x="453.8" y="532" clip-path="url(#clipPath1)" fill="none" width="506.2" rx="4" ry="4" height="73"/>
    </g>
    <g fill="rgb(243,249,230)" text-rendering="geometricPrecision" shape-rendering="geometricPrecision" stroke="rgb(243,249,230)">
      <rect x="692.2" y="416" clip-path="url(#clipPath1)" width="270" rx="4" ry="4" height="101" stroke="none"/>
    </g>
    <g text-rendering="geometricPrecision" stroke-miterlimit="1.45" font-size="24px" shape-rendering="geometricPrecision" font-family="'Arial'" stroke-linecap="butt">
      <text x="741.1317" xml:space="preserve" y="448.0078" clip-path="url(#clipPath1)" stroke="none">Veränderungen,</text>
      <text x="716.4813" xml:space="preserve" y="474.8203" clip-path="url(#clipPath1)" stroke="none">Weiterentwicklungen</text>
      <text x="771.8465" xml:space="preserve" y="501.6328" clip-path="url(#clipPath1)" stroke="none">(innovativ)</text>
    </g>
    <g fill="rgb(132,189,0)" text-rendering="geometricPrecision" stroke-miterlimit="1.45" shape-rendering="geometricPrecision" stroke-linecap="butt" stroke="rgb(132,189,0)">
      <rect x="692.2" y="416" clip-path="url(#clipPath1)" fill="none" width="270" rx="4" ry="4" height="101"/>
    </g>
    <g stroke-linecap="butt" fill="rgb(255,198,0)" text-rendering="geometricPrecision" shape-rendering="geometricPrecision" stroke-dasharray="18,6" stroke="rgb(255,198,0)" stroke-width="3" stroke-miterlimit="1.45">
      <path fill="none" d="M621.2971 268.9804 L619.1539 248.1505 L617.0977 225.6641 L615.4815 203.7037 L614.4521 182.4447 L614.1562 162.0625 L614.7406 142.7323 L616.3519 124.6296 L619.1367 107.9297 L623.2419 92.8079 L628.8141 79.4395 L636 68 L644.8974 58.6062 L655.4086 51.1412 L662.1376 47.9326 L662.2332 47.9029" clip-path="url(#clipPath1)"/>
      <path d="M675.0903 43.0289 L658.4058 41.333 L663.7229 55.359 Z" clip-path="url(#clipPath1)" stroke="none"/>
      <path fill="none" d="M754.2596 306.5049 L763.037 306.3518 L777.1406 305.2617 L790.088 303.2419 L801.7506 300.1891 L812 296 L820.7506 290.6057 L828.088 284.0752 L834.1406 276.5117 L839.037 268.0185 L841.0935 263.0645 L841.1219 262.9686" clip-path="url(#clipPath1)"/>
      <path d="M845.5009 249.9346 L833.6143 261.765 L847.8333 266.5421 Z" clip-path="url(#clipPath1)" stroke="none"/>
      <path fill="none" d="M610.0079 386.0069 L607.8148 390.4445 L604.5758 397.9423 L601.875 405.5312 L599.82 413.2296 L598.5185 421.0555 L598.0781 429.0273 L598.6065 437.1632 L600.2112 445.4813 L603 454 L607.0446 462.7313 L612.2731 471.6632 L618.5781 480.7773 L625.8519 490.0556 L633.9867 499.4796 L642.875 509.0312 L652.4091 518.6923 L656.3361 522.4944 L656.4091 522.5627" clip-path="url(#clipPath1)" stroke="rgb(132,189,0)"/>
      <path fill="rgb(132,189,0)" d="M666.3488 532.0636 L660.6878 516.2774 L650.3232 527.1207 Z" clip-path="url(#clipPath1)" stroke="none"/>
      <path fill="none" d="M622.8961 386.0396 L622.7539 393.4023 L622.9259 403.7778 L623.6014 413.7886 L624.9062 423.3438 L626.9663 432.352 L629.9074 440.7222 L633.8555 448.3633 L638.9363 455.184 L645.2759 461.0933 L653 466 L662.1926 469.8433 L672.7697 472.684 L678.5269 473.6225 L678.6265 473.631" clip-path="url(#clipPath1)" stroke="rgb(132,189,0)"/>
      <path fill="rgb(132,189,0)" d="M692.2781 475.2728 L678.281 466.0354 L676.4899 480.9281 Z" clip-path="url(#clipPath1)" stroke="none"/>
    </g>
  </g>
</svg>
