<?xml version="1.0" encoding="UTF-8"?><svg xmlns="http://www.w3.org/2000/svg" xmlns:xlink="http://www.w3.org/1999/xlink" fill-opacity="1" color-rendering="auto" color-interpolation="auto" text-rendering="auto" stroke="black" stroke-linecap="square" width="965" stroke-miterlimit="10" shape-rendering="auto" stroke-opacity="1" fill="black" stroke-dasharray="none" font-weight="normal" stroke-width="1" height="660" font-family="'Dialog'" font-style="normal" stroke-linejoin="miter" font-size="12px" stroke-dashoffset="0" image-rendering="auto">
  <!--Generated by ySVG 2.5-->
  <defs id="genericDefs"/>
  <g>
    <defs id="defs1">
      <clipPath clipPathUnits="userSpaceOnUse" id="clipPath1">
        <path d="M0 0 L965 0 L965 660 L0 660 L0 0 Z"/>
      </clipPath>
      <clipPath clipPathUnits="userSpaceOnUse" id="clipPath2">
        <path d="M-2 0 L963 0 L963 660 L-2 660 L-2 0 Z"/>
      </clipPath>
    </defs>
    <g fill="rgb(51,51,51)" text-rendering="geometricPrecision" shape-rendering="geometricPrecision" transform="matrix(1,0,0,1,2,0)" stroke="rgb(51,51,51)">
      <rect x="0" y="0" clip-path="url(#clipPath2)" width="962.2" rx="4" ry="4" height="73.75" stroke="none"/>
    </g>
    <g stroke-linecap="butt" font-size="28px" transform="matrix(1,0,0,1,2,0)" fill="white" text-rendering="geometricPrecision" font-family="'Arial'" shape-rendering="geometricPrecision" stroke="white" stroke-miterlimit="1.45">
      <text x="302.1147" xml:space="preserve" y="31.3994" clip-path="url(#clipPath2)" stroke="none">Wesentliche Zuständigkeiten</text>
      <text x="172.9291" xml:space="preserve" y="62.6807" clip-path="url(#clipPath2)" stroke="none">für die Vermittlung einzelner Medienkompetenzen</text>
    </g>
    <g stroke-linecap="butt" transform="matrix(1,0,0,1,2,0)" fill="silver" text-rendering="geometricPrecision" shape-rendering="geometricPrecision" stroke="silver" stroke-miterlimit="1.45">
      <rect x="0" y="0" clip-path="url(#clipPath2)" fill="none" width="962.2" rx="4" ry="4" height="73.75"/>
    </g>
    <g stroke-linecap="butt" font-size="18px" transform="matrix(1,0,0,1,2,0)" fill="white" text-rendering="geometricPrecision" font-family="'Arial'" shape-rendering="geometricPrecision" stroke="white" stroke-miterlimit="1.45">
      <text x="119.9165" xml:space="preserve" y="651.5347" clip-path="url(#clipPath2)" stroke="none">Quelle: Krämer et al. (2015) - BIBB Abschlussbericht "Medien anwenden und produzieren"</text>
    </g>
    <g fill="rgb(132,189,0)" text-rendering="geometricPrecision" shape-rendering="geometricPrecision" transform="matrix(1,0,0,1,2,0)" stroke="rgb(132,189,0)">
      <rect x="322.1" y="93" clip-path="url(#clipPath2)" width="318" rx="4" ry="4" height="50" stroke="none"/>
    </g>
    <g font-size="24px" stroke-linecap="butt" transform="matrix(1,0,0,1,2,0)" text-rendering="geometricPrecision" font-family="'Arial'" shape-rendering="geometricPrecision" font-weight="bold" stroke-miterlimit="1.45">
      <text x="405.0746" xml:space="preserve" y="126.7129" clip-path="url(#clipPath2)" stroke="none">Berufsschule</text>
    </g>
    <g stroke-linecap="butt" transform="matrix(1,0,0,1,2,0)" fill="silver" text-rendering="geometricPrecision" shape-rendering="geometricPrecision" stroke="silver" stroke-miterlimit="1.45">
      <rect x="322.1" y="93" clip-path="url(#clipPath2)" fill="none" width="318" rx="4" ry="4" height="50"/>
    </g>
    <g fill="rgb(255,198,0)" text-rendering="geometricPrecision" shape-rendering="geometricPrecision" transform="matrix(1,0,0,1,2,0)" stroke="rgb(255,198,0)">
      <rect x="0" y="93" clip-path="url(#clipPath2)" width="318" rx="4" ry="4" height="50" stroke="none"/>
    </g>
    <g font-size="24px" stroke-linecap="butt" transform="matrix(1,0,0,1,2,0)" text-rendering="geometricPrecision" font-family="'Arial'" shape-rendering="geometricPrecision" font-weight="bold" stroke-miterlimit="1.45">
      <text x="9.6387" xml:space="preserve" y="126.7129" clip-path="url(#clipPath2)" stroke="none">Allgemeinbildende Schule</text>
    </g>
    <g stroke-linecap="butt" transform="matrix(1,0,0,1,2,0)" fill="silver" text-rendering="geometricPrecision" shape-rendering="geometricPrecision" stroke="silver" stroke-miterlimit="1.45">
      <rect x="0" y="93" clip-path="url(#clipPath2)" fill="none" width="318" rx="4" ry="4" height="50"/>
    </g>
    <g fill="rgb(255,130,0)" text-rendering="geometricPrecision" shape-rendering="geometricPrecision" transform="matrix(1,0,0,1,2,0)" stroke="rgb(255,130,0)">
      <rect x="644.2" y="93" clip-path="url(#clipPath2)" width="318" rx="4" ry="4" height="50" stroke="none"/>
    </g>
    <g font-size="24px" stroke-linecap="butt" transform="matrix(1,0,0,1,2,0)" text-rendering="geometricPrecision" font-family="'Arial'" shape-rendering="geometricPrecision" font-weight="bold" stroke-miterlimit="1.45">
      <text x="654.5301" xml:space="preserve" y="126.7129" clip-path="url(#clipPath2)" stroke="none">Ausbildungsunternehmen</text>
    </g>
    <g stroke-linecap="butt" transform="matrix(1,0,0,1,2,0)" fill="silver" text-rendering="geometricPrecision" shape-rendering="geometricPrecision" stroke="silver" stroke-miterlimit="1.45">
      <rect x="644.2" y="93" clip-path="url(#clipPath2)" fill="none" width="318" rx="4" ry="4" height="50"/>
    </g>
    <g fill="rgb(255,249,230)" text-rendering="geometricPrecision" shape-rendering="geometricPrecision" transform="matrix(1,0,0,1,2,0)" stroke="rgb(255,249,230)">
      <rect x="0" y="162.25" clip-path="url(#clipPath2)" width="318" rx="4" ry="4" height="73.75" stroke="none"/>
    </g>
    <g font-size="24px" stroke-linecap="butt" transform="matrix(1,0,0,1,2,0)" text-rendering="geometricPrecision" font-family="'Arial'" shape-rendering="geometricPrecision" stroke-miterlimit="1.45">
      <text x="20.9297" xml:space="preserve" y="194.4316" clip-path="url(#clipPath2)" stroke="none">mündliche und schriftliche</text>
      <text x="40.9512" xml:space="preserve" y="221.2441" clip-path="url(#clipPath2)" stroke="none">Kommunikation (73%)</text>
    </g>
    <g stroke-linecap="butt" transform="matrix(1,0,0,1,2,0)" fill="rgb(255,198,0)" text-rendering="geometricPrecision" shape-rendering="geometricPrecision" stroke="rgb(255,198,0)" stroke-miterlimit="1.45">
      <rect x="0" y="162.25" clip-path="url(#clipPath2)" fill="none" width="318" rx="4" ry="4" height="73.75"/>
    </g>
    <g fill="rgb(243,249,230)" text-rendering="geometricPrecision" shape-rendering="geometricPrecision" transform="matrix(1,0,0,1,2,0)" stroke="rgb(243,249,230)">
      <rect x="322.1" y="162.25" clip-path="url(#clipPath2)" width="318" rx="4" ry="4" height="73.75" stroke="none"/>
    </g>
    <g font-size="24px" stroke-linecap="butt" transform="matrix(1,0,0,1,2,0)" text-rendering="geometricPrecision" font-family="'Arial'" shape-rendering="geometricPrecision" stroke-miterlimit="1.45">
      <text x="343.018" xml:space="preserve" y="194.4316" clip-path="url(#clipPath2)" stroke="none">rechtliche Grundlagen der</text>
      <text x="363.6957" xml:space="preserve" y="221.2441" clip-path="url(#clipPath2)" stroke="none">Mediennutzung (74%)</text>
    </g>
    <g stroke-linecap="butt" transform="matrix(1,0,0,1,2,0)" fill="rgb(132,189,0)" text-rendering="geometricPrecision" shape-rendering="geometricPrecision" stroke="rgb(132,189,0)" stroke-miterlimit="1.45">
      <rect x="322.1" y="162.25" clip-path="url(#clipPath2)" fill="none" width="318" rx="4" ry="4" height="73.75"/>
    </g>
    <g fill="rgb(255,243,230)" text-rendering="geometricPrecision" shape-rendering="geometricPrecision" transform="matrix(1,0,0,1,2,0)" stroke="rgb(255,243,230)">
      <rect x="644.2" y="162.25" clip-path="url(#clipPath2)" width="315.8" rx="4" ry="4" height="73.75" stroke="none"/>
    </g>
    <g font-size="24px" stroke-linecap="butt" transform="matrix(1,0,0,1,2,0)" text-rendering="geometricPrecision" font-family="'Arial'" shape-rendering="geometricPrecision" stroke-miterlimit="1.45">
      <text x="660.6957" xml:space="preserve" y="194.4316" clip-path="url(#clipPath2)" stroke="none">wirtschaftliche Grundlagen</text>
      <text x="664.0179" xml:space="preserve" y="221.2441" clip-path="url(#clipPath2)" stroke="none">der Mediennutzung (78%)</text>
    </g>
    <g stroke-linecap="butt" transform="matrix(1,0,0,1,2,0)" fill="rgb(255,130,0)" text-rendering="geometricPrecision" shape-rendering="geometricPrecision" stroke="rgb(255,130,0)" stroke-miterlimit="1.45">
      <rect x="644.2" y="162.25" clip-path="url(#clipPath2)" fill="none" width="315.8" rx="4" ry="4" height="73.75"/>
    </g>
    <g fill="rgb(255,249,230)" text-rendering="geometricPrecision" shape-rendering="geometricPrecision" transform="matrix(1,0,0,1,2,0)" stroke="rgb(255,249,230)">
      <rect x="0" y="242.25" clip-path="url(#clipPath2)" width="318" rx="4" ry="4" height="73.75" stroke="none"/>
    </g>
    <g font-size="24px" stroke-linecap="butt" transform="matrix(1,0,0,1,2,0)" text-rendering="geometricPrecision" font-family="'Arial'" shape-rendering="geometricPrecision" stroke-miterlimit="1.45">
      <text x="22.9512" xml:space="preserve" y="274.4316" clip-path="url(#clipPath2)" stroke="none">respektvoller Umgang mit</text>
      <text x="79.6172" xml:space="preserve" y="301.2441" clip-path="url(#clipPath2)" stroke="none">anderen (68%)</text>
    </g>
    <g stroke-linecap="butt" transform="matrix(1,0,0,1,2,0)" fill="rgb(255,198,0)" text-rendering="geometricPrecision" shape-rendering="geometricPrecision" stroke="rgb(255,198,0)" stroke-miterlimit="1.45">
      <rect x="0" y="242.25" clip-path="url(#clipPath2)" fill="none" width="318" rx="4" ry="4" height="73.75"/>
    </g>
    <g fill="rgb(243,249,230)" text-rendering="geometricPrecision" shape-rendering="geometricPrecision" transform="matrix(1,0,0,1,2,0)" stroke="rgb(243,249,230)">
      <rect x="322.1" y="242.25" clip-path="url(#clipPath2)" width="318" rx="4" ry="4" height="101.75" stroke="none"/>
    </g>
    <g font-size="24px" stroke-linecap="butt" transform="matrix(1,0,0,1,2,0)" text-rendering="geometricPrecision" font-family="'Arial'" shape-rendering="geometricPrecision" stroke-miterlimit="1.45">
      <text x="379.0297" xml:space="preserve" y="275.0254" clip-path="url(#clipPath2)" stroke="none">Gestalten und/oder</text>
      <text x="377.0434" xml:space="preserve" y="301.8379" clip-path="url(#clipPath2)" stroke="none">Dokumentieren von</text>
      <text x="343.0297" xml:space="preserve" y="328.6504" clip-path="url(#clipPath2)" stroke="none">Arbeitsergebnissen (67%)</text>
    </g>
    <g stroke-linecap="butt" transform="matrix(1,0,0,1,2,0)" fill="rgb(132,189,0)" text-rendering="geometricPrecision" shape-rendering="geometricPrecision" stroke="rgb(132,189,0)" stroke-miterlimit="1.45">
      <rect x="322.1" y="242.25" clip-path="url(#clipPath2)" fill="none" width="318" rx="4" ry="4" height="101.75"/>
    </g>
    <g fill="rgb(255,243,230)" text-rendering="geometricPrecision" shape-rendering="geometricPrecision" transform="matrix(1,0,0,1,2,0)" stroke="rgb(255,243,230)">
      <rect x="644.2" y="242.25" clip-path="url(#clipPath2)" width="315.8" rx="4" ry="4" height="101.75" stroke="none"/>
    </g>
    <g font-size="24px" stroke-linecap="butt" transform="matrix(1,0,0,1,2,0)" text-rendering="geometricPrecision" font-family="'Arial'" shape-rendering="geometricPrecision" stroke-miterlimit="1.45">
      <text x="670.0238" xml:space="preserve" y="275.0254" clip-path="url(#clipPath2)" stroke="none">Erkennen und Umsetzen</text>
      <text x="655.3519" xml:space="preserve" y="301.8379" clip-path="url(#clipPath2)" stroke="none">technischer Neuerungen im</text>
      <text x="652.0355" xml:space="preserve" y="328.6504" clip-path="url(#clipPath2)" stroke="none">Rahmen der Tätigkeit (75%)</text>
    </g>
    <g stroke-linecap="butt" transform="matrix(1,0,0,1,2,0)" fill="rgb(255,130,0)" text-rendering="geometricPrecision" shape-rendering="geometricPrecision" stroke="rgb(255,130,0)" stroke-miterlimit="1.45">
      <rect x="644.2" y="242.25" clip-path="url(#clipPath2)" fill="none" width="315.8" rx="4" ry="4" height="101.75"/>
    </g>
    <g fill="rgb(255,249,230)" text-rendering="geometricPrecision" shape-rendering="geometricPrecision" transform="matrix(1,0,0,1,2,0)" stroke="rgb(255,249,230)">
      <rect x="-1.1" y="322.25" clip-path="url(#clipPath2)" width="318" rx="4" ry="4" height="101.75" stroke="none"/>
    </g>
    <g font-size="24px" stroke-linecap="butt" transform="matrix(1,0,0,1,2,0)" text-rendering="geometricPrecision" font-family="'Arial'" shape-rendering="geometricPrecision" stroke-miterlimit="1.45">
      <text x="51.8277" xml:space="preserve" y="355.0254" clip-path="url(#clipPath2)" stroke="none">selbstständiges und</text>
      <text x="81.1949" xml:space="preserve" y="381.8379" clip-path="url(#clipPath2)" stroke="none">zielgerichtetes</text>
      <text x="85.191" xml:space="preserve" y="408.6504" clip-path="url(#clipPath2)" stroke="none">Lernen (66%)</text>
    </g>
    <g stroke-linecap="butt" transform="matrix(1,0,0,1,2,0)" fill="rgb(255,198,0)" text-rendering="geometricPrecision" shape-rendering="geometricPrecision" stroke="rgb(255,198,0)" stroke-miterlimit="1.45">
      <rect x="-1.1" y="322.25" clip-path="url(#clipPath2)" fill="none" width="318" rx="4" ry="4" height="101.75"/>
    </g>
    <g fill="rgb(255,243,230)" text-rendering="geometricPrecision" shape-rendering="geometricPrecision" transform="matrix(1,0,0,1,2,0)" stroke="rgb(255,243,230)">
      <rect x="644.2" y="350.25" clip-path="url(#clipPath2)" width="315.8" rx="4" ry="4" height="101.75" stroke="none"/>
    </g>
    <g font-size="24px" stroke-linecap="butt" transform="matrix(1,0,0,1,2,0)" text-rendering="geometricPrecision" font-family="'Arial'" shape-rendering="geometricPrecision" stroke-miterlimit="1.45">
      <text x="672.6664" xml:space="preserve" y="383.0254" clip-path="url(#clipPath2)" stroke="none">Auswahl und Bedienung</text>
      <text x="680.0316" xml:space="preserve" y="409.8379" clip-path="url(#clipPath2)" stroke="none">von Medien, Hard- und</text>
      <text x="719.4008" xml:space="preserve" y="436.6504" clip-path="url(#clipPath2)" stroke="none">Software (72%)</text>
    </g>
    <g stroke-linecap="butt" transform="matrix(1,0,0,1,2,0)" fill="rgb(255,130,0)" text-rendering="geometricPrecision" shape-rendering="geometricPrecision" stroke="rgb(255,130,0)" stroke-miterlimit="1.45">
      <rect x="644.2" y="350.25" clip-path="url(#clipPath2)" fill="none" width="315.8" rx="4" ry="4" height="101.75"/>
    </g>
    <g fill="rgb(255,249,230)" text-rendering="geometricPrecision" shape-rendering="geometricPrecision" transform="matrix(1,0,0,1,2,0)" stroke="rgb(255,249,230)">
      <rect x="-1.1" y="430.25" clip-path="url(#clipPath2)" width="318" rx="4" ry="4" height="73.75" stroke="none"/>
    </g>
    <g font-size="24px" stroke-linecap="butt" transform="matrix(1,0,0,1,2,0)" text-rendering="geometricPrecision" font-family="'Arial'" shape-rendering="geometricPrecision" stroke-miterlimit="1.45">
      <text x="19.8297" xml:space="preserve" y="475.8379" clip-path="url(#clipPath2)" stroke="none">Recherchefähigkeit (57%)</text>
    </g>
    <g stroke-linecap="butt" transform="matrix(1,0,0,1,2,0)" fill="rgb(255,198,0)" text-rendering="geometricPrecision" shape-rendering="geometricPrecision" stroke="rgb(255,198,0)" stroke-miterlimit="1.45">
      <rect x="-1.1" y="430.25" clip-path="url(#clipPath2)" fill="none" width="318" rx="4" ry="4" height="73.75"/>
    </g>
    <g fill="rgb(244,244,244)" text-rendering="geometricPrecision" shape-rendering="geometricPrecision" transform="matrix(1,0,0,1,2,0)" stroke="rgb(244,244,244)">
      <rect x="0" y="569.2419" clip-path="url(#clipPath2)" width="960" rx="4" ry="4" height="60.7581" stroke="none"/>
    </g>
    <g font-size="24px" stroke-linecap="butt" transform="matrix(1,0,0,1,2,0)" text-rendering="geometricPrecision" font-family="'Arial'" shape-rendering="geometricPrecision" stroke-miterlimit="1.45">
      <text x="148.4707" xml:space="preserve" y="608.3339" clip-path="url(#clipPath2)" stroke="none">Aufgeführt: Eindeutig mehrheitlich einer Institution zugewiesen</text>
    </g>
    <g stroke-linecap="butt" transform="matrix(1,0,0,1,2,0)" fill="rgb(68,68,68)" text-rendering="geometricPrecision" shape-rendering="geometricPrecision" stroke="rgb(68,68,68)" stroke-miterlimit="1.45">
      <rect x="0" y="569.2419" clip-path="url(#clipPath2)" fill="none" width="960" rx="4" ry="4" height="60.7581"/>
    </g>
  </g>
</svg>
