<?xml version="1.0" encoding="UTF-8"?><svg xmlns="http://www.w3.org/2000/svg" xmlns:xlink="http://www.w3.org/1999/xlink" fill-opacity="1" color-rendering="auto" color-interpolation="auto" text-rendering="auto" stroke="black" stroke-linecap="square" width="962" stroke-miterlimit="10" shape-rendering="auto" stroke-opacity="1" fill="black" stroke-dasharray="none" font-weight="normal" stroke-width="1" height="538" font-family="'Dialog'" font-style="normal" stroke-linejoin="miter" font-size="12px" stroke-dashoffset="0" image-rendering="auto">
  <!--Generated by ySVG 2.5-->
  <defs id="genericDefs"/>
  <g>
    <defs id="defs1">
      <clipPath clipPathUnits="userSpaceOnUse" id="clipPath1">
        <path d="M0 0 L962 0 L962 538 L0 538 L0 0 Z"/>
      </clipPath>
      <clipPath clipPathUnits="userSpaceOnUse" id="clipPath2">
        <path d="M0 122 L962 122 L962 660 L0 660 L0 122 Z"/>
      </clipPath>
    </defs>
    <g stroke-linecap="butt" font-size="18px" transform="matrix(1,0,0,1,0,-122)" fill="white" text-rendering="geometricPrecision" font-family="'Arial'" shape-rendering="geometricPrecision" stroke="white" stroke-miterlimit="1.45">
      <text x="119.9165" xml:space="preserve" y="651.2402" clip-path="url(#clipPath2)" stroke="none">Quelle: Krämer et al. (2015) - BIBB Abschlussbericht "Medien anwenden und produzieren"</text>
    </g>
    <g fill="rgb(198,53,39)" text-rendering="geometricPrecision" shape-rendering="geometricPrecision" transform="matrix(1,0,0,1,0,-122)" stroke="rgb(198,53,39)">
      <rect x="0" y="520.275" clip-path="url(#clipPath2)" width="960" rx="4" ry="4" height="74" stroke="none"/>
    </g>
    <g stroke-linecap="butt" font-size="28px" transform="matrix(1,0,0,1,0,-122)" fill="white" text-rendering="geometricPrecision" font-family="'Arial'" shape-rendering="geometricPrecision" stroke="white" font-weight="bold" stroke-miterlimit="1.45">
      <text x="189.083" xml:space="preserve" y="551.3414" clip-path="url(#clipPath2)" stroke="none">Medienkompetenz in der Berufsausbildung:</text>
      <text x="192.1318" xml:space="preserve" y="582.6227" clip-path="url(#clipPath2)" stroke="none">6 Dimensionen, mit insgesamt 19 Aspekten</text>
    </g>
    <g stroke-linecap="butt" transform="matrix(1,0,0,1,0,-122)" fill="silver" text-rendering="geometricPrecision" shape-rendering="geometricPrecision" stroke="silver" stroke-miterlimit="1.45">
      <rect x="0" y="520.275" clip-path="url(#clipPath2)" fill="none" width="960" rx="4" ry="4" height="74"/>
    </g>
    <g fill="rgb(208,223,0)" text-rendering="geometricPrecision" shape-rendering="geometricPrecision" transform="matrix(1,0,0,1,0,-122)" stroke="rgb(208,223,0)">
      <rect x="486" y="250.5" clip-path="url(#clipPath2)" width="234" rx="4" ry="4" height="179" stroke="none"/>
    </g>
    <g font-size="20px" stroke-linecap="butt" transform="matrix(1,0,0,1,0,-122)" text-rendering="geometricPrecision" font-family="'Arial'" shape-rendering="geometricPrecision" stroke-miterlimit="1.45">
      <text x="557.9854" xml:space="preserve" y="313.418" clip-path="url(#clipPath2)" stroke="none">Interviews</text>
      <text x="551.8525" xml:space="preserve" y="335.7617" clip-path="url(#clipPath2)" stroke="none">28 Betriebe</text>
      <text x="547.4092" xml:space="preserve" y="358.1055" clip-path="url(#clipPath2)" stroke="none">31 Ausbilder</text>
      <text x="523.4932" xml:space="preserve" y="380.4492" clip-path="url(#clipPath2)" stroke="none">52 Auszubildende</text>
    </g>
    <g stroke-linecap="butt" transform="matrix(1,0,0,1,0,-122)" fill="gray" text-rendering="geometricPrecision" shape-rendering="geometricPrecision" stroke="gray" stroke-miterlimit="1.45">
      <rect x="486" y="250.5" clip-path="url(#clipPath2)" fill="none" width="234" rx="4" ry="4" height="179"/>
    </g>
    <g fill="rgb(132,189,0)" text-rendering="geometricPrecision" shape-rendering="geometricPrecision" transform="matrix(1,0,0,1,0,-122)" stroke="rgb(132,189,0)">
      <rect x="725.4" y="250.5" clip-path="url(#clipPath2)" width="234.6" rx="4" ry="4" height="179" stroke="none"/>
    </g>
    <g font-size="20px" stroke-linecap="butt" transform="matrix(1,0,0,1,0,-122)" text-rendering="geometricPrecision" font-family="'Arial'" shape-rendering="geometricPrecision" stroke-miterlimit="1.45">
      <text x="757.6317" xml:space="preserve" y="324.5898" clip-path="url(#clipPath2)" stroke="none">770 Auszubildende</text>
      <text x="781.5477" xml:space="preserve" y="346.9336" clip-path="url(#clipPath2)" stroke="none">100 Ausbilder</text>
      <text x="745.4246" xml:space="preserve" y="369.2773" clip-path="url(#clipPath2)" stroke="none">102 Berufsschullehrer</text>
    </g>
    <g stroke-linecap="butt" transform="matrix(1,0,0,1,0,-122)" fill="gray" text-rendering="geometricPrecision" shape-rendering="geometricPrecision" stroke="gray" stroke-miterlimit="1.45">
      <rect x="725.4" y="250.5" clip-path="url(#clipPath2)" fill="none" width="234.6" rx="4" ry="4" height="179"/>
    </g>
    <g fill="rgb(255,198,0)" text-rendering="geometricPrecision" shape-rendering="geometricPrecision" transform="matrix(1,0,0,1,0,-122)" stroke="rgb(255,198,0)">
      <rect x="243" y="247" clip-path="url(#clipPath2)" width="234" rx="4" ry="4" height="182.5" stroke="none"/>
    </g>
    <g font-size="20px" stroke-linecap="butt" transform="matrix(1,0,0,1,0,-122)" text-rendering="geometricPrecision" font-family="'Arial'" shape-rendering="geometricPrecision" stroke-miterlimit="1.45">
      <text x="301.084" xml:space="preserve" y="300.4961" clip-path="url(#clipPath2)" stroke="none">14 Interviews</text>
      <text x="287.7441" xml:space="preserve" y="322.8398" clip-path="url(#clipPath2)" stroke="none">Hochschullehrer</text>
      <text x="275.4932" xml:space="preserve" y="345.1836" clip-path="url(#clipPath2)" stroke="none">Branchenverbände</text>
      <text x="261.084" xml:space="preserve" y="367.5273" clip-path="url(#clipPath2)" stroke="none">Gewerksch./Kammern</text>
      <text x="299.4092" xml:space="preserve" y="389.8711" clip-path="url(#clipPath2)" stroke="none">Unternehmen</text>
    </g>
    <g stroke-linecap="butt" transform="matrix(1,0,0,1,0,-122)" fill="gray" text-rendering="geometricPrecision" shape-rendering="geometricPrecision" stroke="gray" stroke-miterlimit="1.45">
      <rect x="243" y="247" clip-path="url(#clipPath2)" fill="none" width="234" rx="4" ry="4" height="182.5"/>
    </g>
    <g fill="rgb(255,198,0)" text-rendering="geometricPrecision" shape-rendering="geometricPrecision" transform="matrix(1,0,0,1,0,-122)" stroke="rgb(255,198,0)">
      <ellipse rx="117" ry="33" clip-path="url(#clipPath2)" cx="360" cy="246" stroke="none"/>
    </g>
    <g font-size="22px" stroke-linecap="butt" transform="matrix(1,0,0,1,0,-122)" text-rendering="geometricPrecision" font-family="'Arial'" shape-rendering="geometricPrecision" stroke-miterlimit="1.45">
      <text x="266.4302" xml:space="preserve" y="253.627" clip-path="url(#clipPath2)" stroke="none">Expertenbefragung</text>
    </g>
    <g stroke-linecap="butt" transform="matrix(1,0,0,1,0,-122)" fill="gray" text-rendering="geometricPrecision" shape-rendering="geometricPrecision" stroke="gray" stroke-miterlimit="1.45">
      <ellipse rx="117" fill="none" ry="33" clip-path="url(#clipPath2)" cx="360" cy="246"/>
    </g>
    <g fill="rgb(208,223,0)" text-rendering="geometricPrecision" shape-rendering="geometricPrecision" transform="matrix(1,0,0,1,0,-122)" stroke="rgb(208,223,0)">
      <ellipse rx="117" ry="33" clip-path="url(#clipPath2)" cx="603" cy="246" stroke="none"/>
    </g>
    <g font-size="22px" stroke-linecap="butt" transform="matrix(1,0,0,1,0,-122)" text-rendering="geometricPrecision" font-family="'Arial'" shape-rendering="geometricPrecision" stroke-miterlimit="1.45">
      <text x="545.5239" xml:space="preserve" y="241.3379" clip-path="url(#clipPath2)" stroke="none">Betriebliche</text>
      <text x="549.8047" xml:space="preserve" y="265.916" clip-path="url(#clipPath2)" stroke="none">Fallstudien</text>
    </g>
    <g stroke-linecap="butt" transform="matrix(1,0,0,1,0,-122)" fill="gray" text-rendering="geometricPrecision" shape-rendering="geometricPrecision" stroke="gray" stroke-miterlimit="1.45">
      <ellipse rx="117" fill="none" ry="33" clip-path="url(#clipPath2)" cx="603" cy="246"/>
    </g>
    <g fill="rgb(132,189,0)" text-rendering="geometricPrecision" shape-rendering="geometricPrecision" transform="matrix(1,0,0,1,0,-122)" stroke="rgb(132,189,0)">
      <ellipse rx="117" ry="33" clip-path="url(#clipPath2)" cx="842.7" cy="246" stroke="none"/>
    </g>
    <g font-size="22px" stroke-linecap="butt" transform="matrix(1,0,0,1,0,-122)" text-rendering="geometricPrecision" font-family="'Arial'" shape-rendering="geometricPrecision" stroke-miterlimit="1.45">
      <text x="788.9031" xml:space="preserve" y="241.3379" clip-path="url(#clipPath2)" stroke="none">Schriftliche</text>
      <text x="791.9378" xml:space="preserve" y="265.916" clip-path="url(#clipPath2)" stroke="none">Befragung</text>
    </g>
    <g stroke-linecap="butt" transform="matrix(1,0,0,1,0,-122)" fill="gray" text-rendering="geometricPrecision" shape-rendering="geometricPrecision" stroke="gray" stroke-miterlimit="1.45">
      <ellipse rx="117" fill="none" ry="33" clip-path="url(#clipPath2)" cx="842.7" cy="246"/>
    </g>
    <g fill="rgb(132,189,0)" text-rendering="geometricPrecision" shape-rendering="geometricPrecision" transform="matrix(1,0,0,1,0,-122)" stroke="rgb(132,189,0)">
      <path d="M727.3 428.3125 L750.7 397.5 L937.9 397.5 L961.3 428.3125 L937.9 459.125 L750.7 459.125 Z" fill-rule="evenodd" clip-path="url(#clipPath2)" stroke="none"/>
    </g>
    <g font-size="22px" stroke-linecap="butt" transform="matrix(1,0,0,1,0,-122)" text-rendering="geometricPrecision" font-family="'Arial'" shape-rendering="geometricPrecision" stroke-miterlimit="1.45">
      <text x="783.1608" xml:space="preserve" y="435.9395" clip-path="url(#clipPath2)" stroke="none">Verifizierung</text>
    </g>
    <g stroke-linecap="butt" transform="matrix(1,0,0,1,0,-122)" fill="gray" text-rendering="geometricPrecision" shape-rendering="geometricPrecision" stroke="gray" stroke-miterlimit="1.45">
      <path fill="none" d="M727.3 428.3125 L750.7 397.5 L937.9 397.5 L961.3 428.3125 L937.9 459.125 L750.7 459.125 Z" fill-rule="evenodd" clip-path="url(#clipPath2)"/>
    </g>
    <g fill="rgb(255,198,0)" text-rendering="geometricPrecision" shape-rendering="geometricPrecision" transform="matrix(1,0,0,1,0,-122)" stroke="rgb(255,198,0)">
      <path d="M243 428.3125 L266.4 397.5 L453.6 397.5 L477 428.3125 L453.6 459.125 L266.4 459.125 Z" fill-rule="evenodd" clip-path="url(#clipPath2)" stroke="none"/>
    </g>
    <g font-size="22px" stroke-linecap="butt" transform="matrix(1,0,0,1,0,-122)" text-rendering="geometricPrecision" font-family="'Arial'" shape-rendering="geometricPrecision" stroke-miterlimit="1.45">
      <text x="272.564" xml:space="preserve" y="435.9395" clip-path="url(#clipPath2)" stroke="none">8 weitere Aspekte</text>
    </g>
    <g stroke-linecap="butt" transform="matrix(1,0,0,1,0,-122)" fill="gray" text-rendering="geometricPrecision" shape-rendering="geometricPrecision" stroke="gray" stroke-miterlimit="1.45">
      <path fill="none" d="M243 428.3125 L266.4 397.5 L453.6 397.5 L477 428.3125 L453.6 459.125 L266.4 459.125 Z" fill-rule="evenodd" clip-path="url(#clipPath2)"/>
    </g>
    <g fill="rgb(208,223,0)" text-rendering="geometricPrecision" shape-rendering="geometricPrecision" transform="matrix(1,0,0,1,0,-122)" stroke="rgb(208,223,0)">
      <path d="M486 428.3125 L509.4 397.5 L696.6 397.5 L720 428.3125 L696.6 459.125 L509.4 459.125 Z" fill-rule="evenodd" clip-path="url(#clipPath2)" stroke="none"/>
    </g>
    <g font-size="22px" stroke-linecap="butt" transform="matrix(1,0,0,1,0,-122)" text-rendering="geometricPrecision" font-family="'Arial'" shape-rendering="geometricPrecision" stroke-miterlimit="1.45">
      <text x="549.7832" xml:space="preserve" y="423.6504" clip-path="url(#clipPath2)" stroke="none">Bedeutung</text>
      <text x="560.8208" xml:space="preserve" y="448.2285" clip-path="url(#clipPath2)" stroke="none">ermitteln</text>
    </g>
    <g stroke-linecap="butt" transform="matrix(1,0,0,1,0,-122)" fill="gray" text-rendering="geometricPrecision" shape-rendering="geometricPrecision" stroke="gray" stroke-miterlimit="1.45">
      <path fill="none" d="M486 428.3125 L509.4 397.5 L696.6 397.5 L720 428.3125 L696.6 459.125 L509.4 459.125 Z" fill-rule="evenodd" clip-path="url(#clipPath2)"/>
    </g>
    <g fill="rgb(255,130,0)" text-rendering="geometricPrecision" shape-rendering="geometricPrecision" transform="matrix(1,0,0,1,0,-122)" stroke="rgb(255,130,0)">
      <rect x="0" y="245" clip-path="url(#clipPath2)" width="234" rx="4" ry="4" height="182.5" stroke="none"/>
    </g>
    <g font-size="20px" stroke-linecap="butt" transform="matrix(1,0,0,1,0,-122)" text-rendering="geometricPrecision" font-family="'Arial'" shape-rendering="geometricPrecision" stroke-miterlimit="1.45">
      <text x="52.5127" xml:space="preserve" y="298.4961" clip-path="url(#clipPath2)" stroke="none">ca. 20 Quellen</text>
      <text x="114.2217" xml:space="preserve" y="320.8398" clip-path="url(#clipPath2)" stroke="none"> </text>
      <text x="71.9854" xml:space="preserve" y="343.1836" clip-path="url(#clipPath2)" stroke="none">6 sich klar</text>
      <text x="48.6162" xml:space="preserve" y="365.5273" clip-path="url(#clipPath2)" stroke="none">unterscheidene</text>
      <text x="64.1875" xml:space="preserve" y="387.8711" clip-path="url(#clipPath2)" stroke="none">Definitionen</text>
    </g>
    <g stroke-linecap="butt" transform="matrix(1,0,0,1,0,-122)" fill="gray" text-rendering="geometricPrecision" shape-rendering="geometricPrecision" stroke="gray" stroke-miterlimit="1.45">
      <rect x="0" y="245" clip-path="url(#clipPath2)" fill="none" width="234" rx="4" ry="4" height="182.5"/>
    </g>
    <g fill="rgb(255,130,0)" text-rendering="geometricPrecision" shape-rendering="geometricPrecision" transform="matrix(1,0,0,1,0,-122)" stroke="rgb(255,130,0)">
      <ellipse rx="117" ry="33" clip-path="url(#clipPath2)" cx="117" cy="242" stroke="none"/>
    </g>
    <g font-size="22px" stroke-linecap="butt" transform="matrix(1,0,0,1,0,-122)" text-rendering="geometricPrecision" font-family="'Arial'" shape-rendering="geometricPrecision" stroke-miterlimit="1.45">
      <text x="38.7324" xml:space="preserve" y="249.627" clip-path="url(#clipPath2)" stroke="none">Literaturanalyse</text>
    </g>
    <g stroke-linecap="butt" transform="matrix(1,0,0,1,0,-122)" fill="gray" text-rendering="geometricPrecision" shape-rendering="geometricPrecision" stroke="gray" stroke-miterlimit="1.45">
      <ellipse rx="117" fill="none" ry="33" clip-path="url(#clipPath2)" cx="117" cy="242"/>
    </g>
    <g fill="rgb(255,130,0)" text-rendering="geometricPrecision" shape-rendering="geometricPrecision" transform="matrix(1,0,0,1,0,-122)" stroke="rgb(255,130,0)">
      <path d="M0 428.3125 L23.4 397.5 L210.6 397.5 L234 428.3125 L210.6 459.125 L23.4 459.125 Z" fill-rule="evenodd" clip-path="url(#clipPath2)" stroke="none"/>
    </g>
    <g font-size="22px" stroke-linecap="butt" transform="matrix(1,0,0,1,0,-122)" text-rendering="geometricPrecision" font-family="'Arial'" shape-rendering="geometricPrecision" stroke-miterlimit="1.45">
      <text x="68.0801" xml:space="preserve" y="435.9395" clip-path="url(#clipPath2)" stroke="none">9 Aspekte</text>
    </g>
    <g stroke-linecap="butt" transform="matrix(1,0,0,1,0,-122)" fill="gray" text-rendering="geometricPrecision" shape-rendering="geometricPrecision" stroke="gray" stroke-miterlimit="1.45">
      <path fill="none" d="M0 428.3125 L23.4 397.5 L210.6 397.5 L234 428.3125 L210.6 459.125 L23.4 459.125 Z" fill-rule="evenodd" clip-path="url(#clipPath2)"/>
    </g>
    <g fill="rgb(198,53,39)" text-rendering="geometricPrecision" shape-rendering="geometricPrecision" transform="matrix(1,0,0,1,0,-122)" stroke="rgb(198,53,39)">
      <circle r="54" clip-path="url(#clipPath2)" cx="900" cy="557.275" stroke="none"/>
    </g>
    <g stroke-linecap="butt" font-size="24px" transform="matrix(1,0,0,1,0,-122)" fill="white" text-rendering="geometricPrecision" font-family="'Arial'" shape-rendering="geometricPrecision" stroke="white" font-weight="bold" stroke-miterlimit="1.45">
      <text x="870.668" xml:space="preserve" y="552.1891" clip-path="url(#clipPath2)" stroke="none">BIBB</text>
      <text x="873.3047" xml:space="preserve" y="579.0016" clip-path="url(#clipPath2)" stroke="none">2015</text>
    </g>
    <g stroke-linecap="butt" transform="matrix(1,0,0,1,0,-122)" fill="silver" text-rendering="geometricPrecision" shape-rendering="geometricPrecision" stroke="silver" stroke-miterlimit="1.45">
      <circle fill="none" r="54" clip-path="url(#clipPath2)" cx="900" cy="557.275"/>
    </g>
    <g stroke-linecap="butt" transform="matrix(1,0,0,1,0,-122)" fill="rgb(255,198,0)" text-rendering="geometricPrecision" shape-rendering="geometricPrecision" stroke-dasharray="18,6" stroke="rgb(255,198,0)" stroke-width="3" stroke-miterlimit="1.45">
      <path fill="none" d="M359.9995 429.4952 L358.8982 506.4965" clip-path="url(#clipPath2)"/>
      <path d="M358.7015 520.2451 L366.4153 505.3539 L351.4168 505.1393 Z" clip-path="url(#clipPath2)" stroke="none"/>
      <path fill="none" d="M400.701 215.0288 L400.7408 215 L410.9194 208.0703 L421.0938 201.6875 L431.2629 195.9609 L441.4259 191 L451.582 186.9141 L461.7303 183.8125 L471.8699 181.8047 L482 181 L492.1199 181.4714 L502.2303 183.1458 L512.332 185.9141 L522.4259 189.6667 L532.5129 194.2943 L542.5938 199.6875 L552.6694 205.737 L554.6485 207.0332 L554.7305 207.0905" clip-path="url(#clipPath2)"/>
      <path d="M566.1667 214.7243 L557.8547 200.1585 L549.5269 212.6344 Z" clip-path="url(#clipPath2)" stroke="none"/>
      <path fill="none" d="M640.1487 214.7327 L640.1852 214.7037 L649.5531 207.726 L658.9688 201.3125 L668.4417 195.5761 L677.9815 190.6296 L687.5977 186.5859 L697.2997 183.5579 L707.0974 181.6583 L717 181 L727.014 181.6583 L737.1331 183.5579 L747.3477 186.5859 L757.6481 190.6296 L768.025 195.5761 L778.4688 201.3125 L788.8264 207.6384 L788.9097 207.6937" clip-path="url(#clipPath2)" stroke="rgb(208,223,0)"/>
      <path fill="rgb(208,223,0)" d="M800.3669 215.2959 L792.0147 200.7532 L783.7214 213.252 Z" clip-path="url(#clipPath2)" stroke="none"/>
      <path fill="none" d="M844.1313 459.1363 L843.8721 506.4836" clip-path="url(#clipPath2)" stroke="rgb(132,189,0)"/>
      <path fill="rgb(132,189,0)" d="M843.7969 520.2334 L851.3788 505.2747 L836.3791 505.1926 Z" clip-path="url(#clipPath2)" stroke="none"/>
      <path fill="none" d="M602.2681 459.1363 L601.1437 506.4873" clip-path="url(#clipPath2)" stroke="rgb(208,223,0)"/>
      <path fill="rgb(208,223,0)" d="M600.8174 520.2334 L608.6713 505.4156 L593.6755 505.0596 Z" clip-path="url(#clipPath2)" stroke="none"/>
      <path fill="none" d="M160.2871 211.3284 L169.0971 205.737 L179.4688 199.6875 L189.8144 194.2943 L200.1296 189.6667 L210.4102 185.9141 L220.6516 183.1458 L230.8497 181.4713 L241 181 L251.0997 181.8047 L261.1516 183.8125 L271.1602 186.9141 L281.1296 191 L291.0644 195.9609 L300.9688 201.6875 L309.2986 207.0698 L309.3804 207.1273" clip-path="url(#clipPath2)" stroke="rgb(255,130,0)"/>
      <path fill="rgb(255,130,0)" d="M320.6703 214.9759 L312.6351 200.2556 L304.073 212.5719 Z" clip-path="url(#clipPath2)" stroke="none"/>
      <path fill="none" d="M116.858 459.1363 L116.6399 506.4836" clip-path="url(#clipPath2)" stroke="rgb(255,130,0)"/>
      <path fill="rgb(255,130,0)" d="M116.5765 520.2334 L124.1455 505.2681 L109.1457 505.199 Z" clip-path="url(#clipPath2)" stroke="none"/>
    </g>
  </g>
</svg>
