<?xml version="1.0" encoding="UTF-8"?><svg xmlns="http://www.w3.org/2000/svg" xmlns:xlink="http://www.w3.org/1999/xlink" fill-opacity="1" color-rendering="auto" color-interpolation="auto" text-rendering="auto" stroke="black" stroke-linecap="square" width="963" stroke-miterlimit="10" shape-rendering="auto" stroke-opacity="1" fill="black" stroke-dasharray="none" font-weight="normal" stroke-width="1" height="618" font-family="'Dialog'" font-style="normal" stroke-linejoin="miter" font-size="12px" stroke-dashoffset="0" image-rendering="auto">
  <!--Generated by ySVG 2.5-->
  <defs id="genericDefs"/>
  <g>
    <defs id="defs1">
      <clipPath clipPathUnits="userSpaceOnUse" id="clipPath1">
        <path d="M0 0 L963 0 L963 618 L0 618 L0 0 Z"/>
      </clipPath>
      <clipPath clipPathUnits="userSpaceOnUse" id="clipPath2">
        <path d="M0 82 L963 82 L963 700 L0 700 L0 82 Z"/>
      </clipPath>
    </defs>
    <g stroke-linecap="butt" transform="matrix(1,0,0,1,0,-82)" fill="rgb(0,163,224)" text-rendering="geometricPrecision" shape-rendering="geometricPrecision" stroke-dasharray="18,6" stroke="rgb(0,163,224)" stroke-width="3" stroke-miterlimit="1.45">
      <path fill="none" d="M471.04 482.9904 L476.1231 481.7741 L481.1852 480.5262 L486.125 479.2344 L490.8815 477.8766 L495.3935 476.4308 L499.6 474.875 L503.4398 473.1873 L506.8519 471.3457 L509.775 469.3281 L512.1481 467.1126 L513.9102 464.6773 L515 462 L515.3875 459.0716 L515.1667 455.9337 L514.4625 452.6406 L513.4 449.2469 L512.1042 445.8069 L510.7 442.375 L509.3125 439.0056 L508.0667 435.7531 L507.0875 432.6719 L506.5 429.8163 L506.4292 427.2409 L507 425 L508.306 423.1335 L510.3148 421.6234 L512.9625 420.4375 L516.1852 419.5432 L519.919 418.9082 L524.1 418.5 L528.6644 418.2863 L533.5482 418.2346 L538.6875 418.3125 L541.2632 418.3971 L541.3632 418.4018" clip-path="url(#clipPath2)"/>
    </g>
    <g stroke-linecap="butt" transform="matrix(1,0,0,1,0,-82)" fill="rgb(0,163,224)" text-rendering="geometricPrecision" shape-rendering="geometricPrecision" stroke-dasharray="18,6" stroke="rgb(0,163,224)" stroke-width="3" stroke-miterlimit="1.45">
      <path d="M555.1 419.0044 L540.4431 410.8542 L539.7857 425.8398 Z" stroke="none" clip-path="url(#clipPath2)"/>
      <path fill="none" d="M471.0322 483.0098 L475.122 484.2546 L479.1759 485.537 L483.0938 486.875 L486.8074 488.2963 L490.2488 489.8287 L493.35 491.5 L496.0428 493.338 L498.2592 495.3704 L499.9312 497.625 L500.9908 500.1296 L501.3697 502.912 L501 506 L499.8528 509.4057 L498.0555 513.0787 L495.775 516.9531 L493.1778 520.963 L490.4305 525.0422 L487.7 529.125 L485.1528 533.1453 L482.9556 537.037 L481.275 540.7344 L480.2778 544.1713 L480.1306 547.2819 L481 550 L483.0086 552.2772 L486.1018 554.1343 L490.1812 555.6094 L495.1481 556.7407 L500.9039 557.5665 L507.35 558.125 L514.3878 558.4543 L521.9185 558.5926 L529.8438 558.5781 L538.0648 558.4491 L541.255 558.3712 L541.355 558.3683" clip-path="url(#clipPath2)"/>
      <path d="M555.1 557.9973 L539.9031 550.9048 L540.3078 565.8994 Z" clip-path="url(#clipPath2)" stroke="none"/>
      <path fill="none" d="M471.0551 482.7236 L479.0634 442.5684 L487.3374 402.592 L496.0327 363.5259 L505.3598 325.8254 L515.5294 289.9456 L526.7522 256.3415 L539.2388 225.4685 L553.1997 197.7817 L568.8457 173.7363 L586.3873 153.7875 L606.0352 138.3903 L628 128 L652.3511 122.8643 L678.5933 122.4009 L706.0901 125.82 L734.205 132.332 L762.3016 141.1471 L789.7433 151.4754 L815.8937 162.5274 L840.1164 173.5132 L861.7748 183.6431 L880.2325 192.1274 L894.8531 198.1763 L905 201 L910.241 200.0427 L910.9606 195.6841 L907.7475 188.5377 L901.1905 179.2169 L891.8782 168.3354 L880.3995 156.5067 L867.3431 144.3443 L853.2976 132.4616 L838.8519 121.4724 L824.5945 111.99 L811.1143 104.628 L799 100 L788.715 98.5707 L780.2218 100.2099 L773.3574 104.6387 L767.959 111.578 L763.8636 120.7491 L760.9084 131.8728 L758.9306 144.6702 L757.7672 158.8624 L757.2553 174.1705 L757.2321 190.3154 L757.5346 207.0182 L757.6233 210.2551" clip-path="url(#clipPath2)"/>
      <path d="M758 224 L765.0862 208.8001 L750.0919 209.2111 Z" clip-path="url(#clipPath2)" stroke="none"/>
    </g>
    <g stroke-linecap="butt" font-size="18px" transform="matrix(1,0,0,1,0,-82)" fill="white" text-rendering="geometricPrecision" font-family="'Arial'" shape-rendering="geometricPrecision" stroke="white" stroke-miterlimit="1.45">
      <text x="134.4171" xml:space="preserve" y="691.2402" clip-path="url(#clipPath2)" stroke="none">Quelle: BIBB - Medien anwenden und produzieren - Abschlussbericht September 2015</text>
    </g>
    <g fill="rgb(51,51,51)" text-rendering="geometricPrecision" shape-rendering="geometricPrecision" transform="matrix(1,0,0,1,0,-82)" stroke="rgb(51,51,51)">
      <rect x="0.2434" y="82.0882" clip-path="url(#clipPath2)" width="470.8064" rx="4" ry="4" height="80.5903" stroke="none"/>
    </g>
    <g stroke-linecap="butt" font-size="28px" transform="matrix(1,0,0,1,0,-82)" fill="silver" text-rendering="geometricPrecision" font-family="'Arial'" shape-rendering="geometricPrecision" stroke="silver" stroke-miterlimit="1.45">
      <text x="189.7296" xml:space="preserve" y="116.4498" clip-path="url(#clipPath2)" stroke="none">Medien</text>
      <text x="111.13" xml:space="preserve" y="147.731" clip-path="url(#clipPath2)" stroke="none">zielgerichtet nutzen </text>
      <rect x="0.2434" y="82.0882" clip-path="url(#clipPath2)" fill="none" width="470.8064" rx="4" ry="4" height="80.5903"/>
    </g>
    <g fill="rgb(51,51,51)" text-rendering="geometricPrecision" shape-rendering="geometricPrecision" transform="matrix(1,0,0,1,0,-82)" stroke="rgb(51,51,51)">
      <rect x="0.2434" y="352.8395" clip-path="url(#clipPath2)" width="470.8064" rx="4" ry="4" height="80.5903" stroke="none"/>
    </g>
    <g stroke-linecap="butt" font-size="28px" transform="matrix(1,0,0,1,0,-82)" fill="silver" text-rendering="geometricPrecision" font-family="'Arial'" shape-rendering="geometricPrecision" stroke="silver" stroke-miterlimit="1.45">
      <text x="151.5919" xml:space="preserve" y="387.2011" clip-path="url(#clipPath2)" stroke="none">Selbstständig</text>
      <text x="196.7296" xml:space="preserve" y="418.4824" clip-path="url(#clipPath2)" stroke="none">lernen</text>
      <rect x="0.2434" y="352.8395" clip-path="url(#clipPath2)" fill="none" width="470.8064" rx="4" ry="4" height="80.5903"/>
    </g>
    <g fill="rgb(0,163,224)" text-rendering="geometricPrecision" shape-rendering="geometricPrecision" transform="matrix(1,0,0,1,0,-82)" stroke="rgb(0,163,224)">
      <rect x="0.2434" y="443.09" clip-path="url(#clipPath2)" width="470.8064" rx="4" ry="4" height="80.5903" stroke="none"/>
    </g>
    <g stroke-linecap="butt" font-size="28px" transform="matrix(1,0,0,1,0,-82)" fill="white" text-rendering="geometricPrecision" font-family="'Arial'" shape-rendering="geometricPrecision" stroke="white" font-weight="bold" stroke-miterlimit="1.45">
      <text x="66.8604" xml:space="preserve" y="477.4516" clip-path="url(#clipPath2)" stroke="none">Rahmenbedingungen der</text>
      <text x="21.7432" xml:space="preserve" y="508.7328" clip-path="url(#clipPath2)" stroke="none">Mediennutzung berücksichtigen</text>
    </g>
    <g stroke-linecap="butt" transform="matrix(1,0,0,1,0,-82)" fill="silver" text-rendering="geometricPrecision" shape-rendering="geometricPrecision" stroke="silver" stroke-miterlimit="1.45">
      <rect x="0.2434" y="443.09" clip-path="url(#clipPath2)" fill="none" width="470.8064" rx="4" ry="4" height="80.5903"/>
    </g>
    <g fill="rgb(51,51,51)" text-rendering="geometricPrecision" shape-rendering="geometricPrecision" transform="matrix(1,0,0,1,0,-82)" stroke="rgb(51,51,51)">
      <rect x="0.2434" y="172.3387" clip-path="url(#clipPath2)" width="470.8064" rx="4" ry="4" height="80.5903" stroke="none"/>
    </g>
    <g stroke-linecap="butt" font-size="28px" transform="matrix(1,0,0,1,0,-82)" fill="silver" text-rendering="geometricPrecision" font-family="'Arial'" shape-rendering="geometricPrecision" stroke="silver" stroke-miterlimit="1.45">
      <text x="116.585" xml:space="preserve" y="206.7002" clip-path="url(#clipPath2)" stroke="none">Verantwortungsvoll</text>
      <text x="116.585" xml:space="preserve" y="237.9815" clip-path="url(#clipPath2)" stroke="none">zusammenarbeiten</text>
      <rect x="0.2434" y="172.3387" clip-path="url(#clipPath2)" fill="none" width="470.8064" rx="4" ry="4" height="80.5903"/>
    </g>
    <g fill="rgb(51,51,51)" text-rendering="geometricPrecision" shape-rendering="geometricPrecision" transform="matrix(1,0,0,1,0,-82)" stroke="rgb(51,51,51)">
      <rect x="0.2434" y="262.5891" clip-path="url(#clipPath2)" width="470.8064" rx="4" ry="4" height="80.5903" stroke="none"/>
    </g>
    <g stroke-linecap="butt" font-size="28px" transform="matrix(1,0,0,1,0,-82)" fill="silver" text-rendering="geometricPrecision" font-family="'Arial'" shape-rendering="geometricPrecision" stroke="silver" stroke-miterlimit="1.45">
      <text x="183.502" xml:space="preserve" y="296.9507" clip-path="url(#clipPath2)" stroke="none">Sprache</text>
      <text x="115.0196" xml:space="preserve" y="328.2319" clip-path="url(#clipPath2)" stroke="none">zielgerichtet nutzen</text>
      <rect x="0.2434" y="262.5891" clip-path="url(#clipPath2)" fill="none" width="470.8064" rx="4" ry="4" height="80.5903"/>
    </g>
    <g fill="rgb(51,51,51)" text-rendering="geometricPrecision" shape-rendering="geometricPrecision" transform="matrix(1,0,0,1,0,-82)" stroke="rgb(51,51,51)">
      <rect x="0.2434" y="533.3404" clip-path="url(#clipPath2)" width="470.8064" rx="4" ry="4" height="80.5903" stroke="none"/>
    </g>
    <g stroke-linecap="butt" font-size="28px" transform="matrix(1,0,0,1,0,-82)" fill="silver" text-rendering="geometricPrecision" font-family="'Arial'" shape-rendering="geometricPrecision" stroke="silver" stroke-miterlimit="1.45">
      <text x="155.4678" xml:space="preserve" y="567.702" clip-path="url(#clipPath2)" stroke="none">Innovationen</text>
      <text x="64.4132" xml:space="preserve" y="598.9833" clip-path="url(#clipPath2)" stroke="none">aufgreifen und vorantreiben</text>
      <rect x="0.2434" y="533.3404" clip-path="url(#clipPath2)" fill="none" width="470.8064" rx="4" ry="4" height="80.5903"/>
    </g>
    <g fill="rgb(204,237,249)" text-rendering="geometricPrecision" shape-rendering="geometricPrecision" transform="matrix(1,0,0,1,0,-82)" stroke="rgb(204,237,249)">
      <rect x="555.0378" y="345.8449" clip-path="url(#clipPath2)" width="407.1622" rx="4" ry="4" height="146.6011" stroke="none"/>
    </g>
    <g font-size="28px" stroke-linecap="butt" transform="matrix(1,0,0,1,0,-82)" text-rendering="geometricPrecision" font-family="'Arial'" shape-rendering="geometricPrecision" stroke-miterlimit="1.45">
      <text x="652.7917" xml:space="preserve" y="381.9306" clip-path="url(#clipPath2)" stroke="none">Gesellschaftliche</text>
      <text x="640.3503" xml:space="preserve" y="413.2119" clip-path="url(#clipPath2)" stroke="none">Normen und Werte</text>
      <text x="715.8123" xml:space="preserve" y="444.4931" clip-path="url(#clipPath2)" stroke="none">bei der</text>
      <text x="601.3855" xml:space="preserve" y="475.7744" clip-path="url(#clipPath2)" stroke="none">Mediennutzung beachten</text>
    </g>
    <g stroke-linecap="butt" transform="matrix(1,0,0,1,0,-82)" fill="rgb(0,163,224)" text-rendering="geometricPrecision" shape-rendering="geometricPrecision" stroke="rgb(0,163,224)" stroke-miterlimit="1.45">
      <rect x="555.0378" y="345.8449" clip-path="url(#clipPath2)" fill="none" width="407.1622" rx="4" ry="4" height="146.6011"/>
    </g>
    <g fill="rgb(204,237,249)" text-rendering="geometricPrecision" shape-rendering="geometricPrecision" transform="matrix(1,0,0,1,0,-82)" stroke="rgb(204,237,249)">
      <rect x="555.0378" y="502.1061" clip-path="url(#clipPath2)" width="407.1622" rx="4" ry="4" height="111.8247" stroke="none"/>
    </g>
    <g font-size="28px" stroke-linecap="butt" transform="matrix(1,0,0,1,0,-82)" text-rendering="geometricPrecision" font-family="'Arial'" shape-rendering="geometricPrecision" stroke-miterlimit="1.45">
      <text x="667.5984" xml:space="preserve" y="536.4442" clip-path="url(#clipPath2)" stroke="none">Wirtschaftliche</text>
      <text x="661.3367" xml:space="preserve" y="567.7255" clip-path="url(#clipPath2)" stroke="none">Aspekte bei der</text>
      <text x="616.9578" xml:space="preserve" y="599.0067" clip-path="url(#clipPath2)" stroke="none">Mediennutzung achten</text>
    </g>
    <g stroke-linecap="butt" transform="matrix(1,0,0,1,0,-82)" fill="rgb(0,163,224)" text-rendering="geometricPrecision" shape-rendering="geometricPrecision" stroke="rgb(0,163,224)" stroke-miterlimit="1.45">
      <rect x="555.0378" y="502.1061" clip-path="url(#clipPath2)" fill="none" width="407.1622" rx="4" ry="4" height="111.8247"/>
    </g>
    <g fill="rgb(204,237,249)" text-rendering="geometricPrecision" shape-rendering="geometricPrecision" transform="matrix(1,0,0,1,0,-82)" stroke="rgb(204,237,249)">
      <rect x="555.0378" y="224.3601" clip-path="url(#clipPath2)" width="407.1622" rx="4" ry="4" height="111.8247" stroke="none"/>
    </g>
    <g font-size="28px" stroke-linecap="butt" transform="matrix(1,0,0,1,0,-82)" text-rendering="geometricPrecision" font-family="'Arial'" shape-rendering="geometricPrecision" stroke-miterlimit="1.45">
      <text x="693.2537" xml:space="preserve" y="258.6982" clip-path="url(#clipPath2)" stroke="none">Rechtliche</text>
      <text x="661.3298" xml:space="preserve" y="289.9795" clip-path="url(#clipPath2)" stroke="none">Grundlagen der</text>
      <text x="601.3855" xml:space="preserve" y="321.2607" clip-path="url(#clipPath2)" stroke="none">Mediennutzung beachten</text>
    </g>
    <g stroke-linecap="butt" transform="matrix(1,0,0,1,0,-82)" fill="rgb(0,163,224)" text-rendering="geometricPrecision" shape-rendering="geometricPrecision" stroke="rgb(0,163,224)" stroke-miterlimit="1.45">
      <rect x="555.0378" y="224.3601" clip-path="url(#clipPath2)" fill="none" width="407.1622" rx="4" ry="4" height="111.8247"/>
    </g>
  </g>
</svg>
