<?xml version="1.0" encoding="UTF-8"?><svg xmlns="http://www.w3.org/2000/svg" xmlns:xlink="http://www.w3.org/1999/xlink" fill-opacity="1" color-rendering="auto" color-interpolation="auto" text-rendering="auto" stroke="black" stroke-linecap="square" width="963" stroke-miterlimit="10" shape-rendering="auto" stroke-opacity="1" fill="black" stroke-dasharray="none" font-weight="normal" stroke-width="1" height="660" font-family="'Dialog'" font-style="normal" stroke-linejoin="miter" font-size="12px" stroke-dashoffset="0" image-rendering="auto">
  <!--Generated by ySVG 2.5-->
  <defs id="genericDefs"/>
  <g>
    <defs id="defs1">
      <clipPath clipPathUnits="userSpaceOnUse" id="clipPath1">
        <path d="M0 0 L963 0 L963 660 L0 660 L0 0 Z"/>
      </clipPath>
    </defs>
    <g fill="rgb(255,198,0)" text-rendering="geometricPrecision" shape-rendering="geometricPrecision" stroke="rgb(255,198,0)">
      <rect x="486.28" y="43.8" clip-path="url(#clipPath1)" width="354.28" rx="4" ry="4" height="47.4" stroke="none"/>
    </g>
    <g text-rendering="geometricPrecision" stroke-miterlimit="1.45" font-size="28px" shape-rendering="geometricPrecision" font-family="'Arial'" stroke-linecap="butt">
      <text x="529.586" xml:space="preserve" y="77.207" clip-path="url(#clipPath1)" stroke="none">Gewerblich-technisch</text>
    </g>
    <g fill="silver" text-rendering="geometricPrecision" stroke-miterlimit="1.45" shape-rendering="geometricPrecision" stroke-linecap="butt" stroke="silver">
      <rect x="486.28" y="43.8" clip-path="url(#clipPath1)" fill="none" width="354.28" rx="4" ry="4" height="47.4"/>
    </g>
    <g fill="rgb(132,189,0)" text-rendering="geometricPrecision" shape-rendering="geometricPrecision" stroke="rgb(132,189,0)">
      <rect x="241.86" y="472" clip-path="url(#clipPath1)" width="476.28" rx="4" ry="4" height="113" stroke="none"/>
    </g>
    <g text-rendering="geometricPrecision" stroke-miterlimit="1.45" font-size="28px" shape-rendering="geometricPrecision" font-family="'Arial'" stroke-linecap="butt">
      <text x="266.0146" xml:space="preserve" y="506.9258" clip-path="url(#clipPath1)" stroke="none">Bildschirmunterst체tzte Einstellung,</text>
      <text x="346.9043" xml:space="preserve" y="538.207" clip-path="url(#clipPath1)" stroke="none">in neueren Versionen</text>
      <text x="308.0283" xml:space="preserve" y="569.4883" clip-path="url(#clipPath1)" stroke="none">체ber Touchscreen-Monitore</text>
    </g>
    <g fill="silver" text-rendering="geometricPrecision" stroke-miterlimit="1.45" shape-rendering="geometricPrecision" stroke-linecap="butt" stroke="silver">
      <rect x="241.86" y="472" clip-path="url(#clipPath1)" fill="none" width="476.28" rx="4" ry="4" height="113"/>
    </g>
    <g fill="rgb(132,189,0)" text-rendering="geometricPrecision" shape-rendering="geometricPrecision" stroke="rgb(132,189,0)">
      <rect x="655.72" y="326.4" clip-path="url(#clipPath1)" width="304.28" rx="4" ry="4" height="113" stroke="none"/>
    </g>
    <g text-rendering="geometricPrecision" stroke-miterlimit="1.45" font-size="28px" shape-rendering="geometricPrecision" font-family="'Arial'" stroke-linecap="butt">
      <text x="687.233" xml:space="preserve" y="361.3258" clip-path="url(#clipPath1)" stroke="none">Dokumentation von</text>
      <text x="680.233" xml:space="preserve" y="392.607" clip-path="url(#clipPath1)" stroke="none">Arbeitsprozessdaten</text>
      <text x="700.4742" xml:space="preserve" y="423.8883" clip-path="url(#clipPath1)" stroke="none">in Excel-Tabellen</text>
    </g>
    <g fill="silver" text-rendering="geometricPrecision" stroke-miterlimit="1.45" shape-rendering="geometricPrecision" stroke-linecap="butt" stroke="silver">
      <rect x="655.72" y="326.4" clip-path="url(#clipPath1)" fill="none" width="304.28" rx="4" ry="4" height="113"/>
    </g>
    <g fill="rgb(132,189,0)" text-rendering="geometricPrecision" shape-rendering="geometricPrecision" stroke="rgb(132,189,0)">
      <rect x="72.08" y="326.4" clip-path="url(#clipPath1)" width="245.28" rx="4" ry="4" height="113" stroke="none"/>
    </g>
    <g text-rendering="geometricPrecision" stroke-miterlimit="1.45" font-size="28px" shape-rendering="geometricPrecision" font-family="'Arial'" stroke-linecap="butt">
      <text x="120.7893" xml:space="preserve" y="361.3258" clip-path="url(#clipPath1)" stroke="none">Auswertung</text>
      <text x="130.8997" xml:space="preserve" y="392.607" clip-path="url(#clipPath1)" stroke="none">von Daten</text>
      <text x="97.472" xml:space="preserve" y="423.8883" clip-path="url(#clipPath1)" stroke="none">mittels Grafiken</text>
    </g>
    <g fill="silver" text-rendering="geometricPrecision" stroke-miterlimit="1.45" shape-rendering="geometricPrecision" stroke-linecap="butt" stroke="silver">
      <rect x="72.08" y="326.4" clip-path="url(#clipPath1)" fill="none" width="245.28" rx="4" ry="4" height="113"/>
    </g>
    <g fill="rgb(255,249,230)" text-rendering="geometricPrecision" shape-rendering="geometricPrecision" stroke="rgb(255,249,230)">
      <rect x="123" y="43.8" clip-path="url(#clipPath1)" width="354.28" rx="4" ry="4" height="47.4" stroke="none"/>
    </g>
    <g text-rendering="geometricPrecision" stroke-miterlimit="1.45" font-size="28px" shape-rendering="geometricPrecision" font-family="'Arial'" stroke-linecap="butt">
      <text x="172.4994" xml:space="preserve" y="77.207" clip-path="url(#clipPath1)" stroke="none">Medienproduzierend</text>
    </g>
    <g fill="rgb(255,198,0)" text-rendering="geometricPrecision" stroke-miterlimit="1.45" shape-rendering="geometricPrecision" stroke-linecap="butt" stroke="rgb(255,198,0)">
      <rect x="123" y="43.8" clip-path="url(#clipPath1)" fill="none" width="354.28" rx="4" ry="4" height="47.4"/>
    </g>
    <g fill="rgb(255,130,0)" text-rendering="geometricPrecision" shape-rendering="geometricPrecision" stroke="rgb(255,130,0)">
      <rect x="347.36" y="249" clip-path="url(#clipPath1)" width="265.28" rx="4" ry="4" height="47.4" stroke="none"/>
    </g>
    <g text-rendering="geometricPrecision" stroke-miterlimit="1.45" font-size="28px" shape-rendering="geometricPrecision" font-family="'Arial'" stroke-linecap="butt">
      <text x="371.0283" xml:space="preserve" y="282.407" clip-path="url(#clipPath1)" stroke="none">Papiertechnologe</text>
    </g>
    <g fill="silver" text-rendering="geometricPrecision" stroke-miterlimit="1.45" shape-rendering="geometricPrecision" stroke-linecap="butt" stroke="silver">
      <rect x="347.36" y="249" clip-path="url(#clipPath1)" fill="none" width="265.28" rx="4" ry="4" height="47.4"/>
    </g>
    <g fill="rgb(255,249,230)" text-rendering="geometricPrecision" shape-rendering="geometricPrecision" stroke="rgb(255,249,230)">
      <rect x="486.28" y="99" clip-path="url(#clipPath1)" width="354.28" rx="4" ry="4" height="47.4" stroke="none"/>
    </g>
    <g text-rendering="geometricPrecision" stroke-miterlimit="1.45" font-size="28px" shape-rendering="geometricPrecision" font-family="'Arial'" stroke-linecap="butt">
      <text x="574.7032" xml:space="preserve" y="132.407" clip-path="url(#clipPath1)" stroke="none">Kaufm채nnisch</text>
    </g>
    <g fill="rgb(255,198,0)" text-rendering="geometricPrecision" stroke-miterlimit="1.45" shape-rendering="geometricPrecision" stroke-linecap="butt" stroke="rgb(255,198,0)">
      <rect x="486.28" y="99" clip-path="url(#clipPath1)" fill="none" width="354.28" rx="4" ry="4" height="47.4"/>
    </g>
    <g fill="rgb(255,249,230)" text-rendering="geometricPrecision" shape-rendering="geometricPrecision" stroke="rgb(255,249,230)">
      <rect x="123" y="99" clip-path="url(#clipPath1)" width="354.28" rx="4" ry="4" height="47.4" stroke="none"/>
    </g>
    <g text-rendering="geometricPrecision" stroke-miterlimit="1.45" font-size="28px" shape-rendering="geometricPrecision" font-family="'Arial'" stroke-linecap="butt">
      <text x="180.2855" xml:space="preserve" y="132.407" clip-path="url(#clipPath1)" stroke="none">Medienintegrierend</text>
    </g>
    <g fill="rgb(255,198,0)" text-rendering="geometricPrecision" stroke-miterlimit="1.45" shape-rendering="geometricPrecision" stroke-linecap="butt" stroke="rgb(255,198,0)">
      <rect x="123" y="99" clip-path="url(#clipPath1)" fill="none" width="354.28" rx="4" ry="4" height="47.4"/>
    </g>
    <g fill="rgb(255,249,230)" text-rendering="geometricPrecision" shape-rendering="geometricPrecision" stroke="rgb(255,249,230)">
      <rect x="486.28" y="154.2" clip-path="url(#clipPath1)" width="354.28" rx="4" ry="4" height="47.4" stroke="none"/>
    </g>
    <g text-rendering="geometricPrecision" stroke-miterlimit="1.45" font-size="28px" shape-rendering="geometricPrecision" font-family="'Arial'" stroke-linecap="butt">
      <text x="508.5655" xml:space="preserve" y="187.607" clip-path="url(#clipPath1)" stroke="none">Handwerk/Dienstleistung</text>
    </g>
    <g fill="rgb(255,198,0)" text-rendering="geometricPrecision" stroke-miterlimit="1.45" shape-rendering="geometricPrecision" stroke-linecap="butt" stroke="rgb(255,198,0)">
      <rect x="486.28" y="154.2" clip-path="url(#clipPath1)" fill="none" width="354.28" rx="4" ry="4" height="47.4"/>
      <rect stroke-linecap="square" x="123" y="154.2" clip-path="url(#clipPath1)" width="354.28" rx="4" ry="4" height="47.4" stroke="none" stroke-miterlimit="10"/>
    </g>
    <g text-rendering="geometricPrecision" stroke-miterlimit="1.45" font-size="28px" shape-rendering="geometricPrecision" font-family="'Arial'" stroke-linecap="butt">
      <text x="196.6166" xml:space="preserve" y="187.607" clip-path="url(#clipPath1)" stroke="none">Mendiennutzend</text>
    </g>
    <g fill="silver" text-rendering="geometricPrecision" stroke-miterlimit="1.45" shape-rendering="geometricPrecision" stroke-linecap="butt" stroke="silver">
      <rect x="123" y="154.2" clip-path="url(#clipPath1)" fill="none" width="354.28" rx="4" ry="4" height="47.4"/>
    </g>
    <g stroke-linecap="butt" font-size="18px" fill="white" text-rendering="geometricPrecision" font-family="'Arial'" shape-rendering="geometricPrecision" stroke="white" stroke-miterlimit="1.45">
      <text x="122.1165" xml:space="preserve" y="651.2402" clip-path="url(#clipPath1)" stroke="none">Quelle: Kr채mer et al. (2015) - BIBB Abschlussbericht "Medien anwenden und produzieren"</text>
    </g>
    <g stroke-linecap="butt" fill="rgb(255,198,0)" text-rendering="geometricPrecision" shape-rendering="geometricPrecision" stroke-dasharray="18,6" stroke="rgb(255,198,0)" stroke-width="3" stroke-miterlimit="1.45">
      <path fill="none" d="M840.5326 67.8603 L857.6594 71.5031 L873.6219 76.5262 L887.7951 82.9776 L900 91 L910.0757 100.6658 L917.9337 111.7654 L923.5031 124.0188 L926.7136 137.1457 L927.4944 150.8661 L925.775 164.9 L921.4847 178.9672 L914.5531 192.7877 L904.9094 206.0813 L892.483 218.5679 L877.2034 229.9675 L859 240 L837.8555 248.4548 L813.9661 255.3997 L787.5812 260.9719 L758.9506 265.3087 L728.3237 268.5473 L695.95 270.825 L662.0791 272.2791 L626.9604 273.0469 L626.3552 273.0506" clip-path="url(#clipPath1)"/>
      <path d="M612.6055 273.1339 L627.6506 280.5428 L627.5598 265.5431 Z" clip-path="url(#clipPath1)" stroke="none"/>
      <path fill="none" d="M480 296.4002 L480 458.2267" clip-path="url(#clipPath1)" stroke="rgb(132,189,0)"/>
      <path fill="rgb(132,189,0)" d="M480 471.9767 L487.5 456.9767 L472.5 456.9767 Z" clip-path="url(#clipPath1)" stroke="none"/>
      <path fill="none" d="M472.7431 296.4018 L469.9961 305.9453 L466.4074 316.8148 L462.3152 327.3024 L457.5938 337.3125 L452.117 346.7497 L445.7592 355.5185 L438.3945 363.5234 L429.897 370.669 L420.1408 376.8597 L409 382 L396.3908 386.0263 L382.397 389.0023 L367.1445 391.0234 L350.7592 392.1852 L333.367 392.583 L331.0907 392.5493" clip-path="url(#clipPath1)" stroke="rgb(132,189,0)"/>
      <path fill="rgb(132,189,0)" d="M317.3422 392.3458 L332.2296 400.067 L332.4516 385.0687 Z" clip-path="url(#clipPath1)" stroke="none"/>
      <path fill="none" d="M486.8471 296.4018 L490.2578 305.9453 L494.6667 316.8148 L499.638 327.3024 L505.3125 337.3125 L511.8307 346.7497 L519.3333 355.5185 L527.9609 363.5234 L537.8542 370.669 L549.1536 376.8597 L562 382 L576.487 386.0263 L592.5208 389.0023 L609.9609 391.0234 L628.6667 392.1852 L641.9433 392.4515 L642.0433 392.4502" clip-path="url(#clipPath1)" stroke="rgb(132,189,0)"/>
      <path fill="rgb(132,189,0)" d="M655.7932 392.4898 L640.8149 384.9467 L640.7717 399.9466 Z" clip-path="url(#clipPath1)" stroke="none"/>
      <path fill="none" d="M283.1132 201.5741 L282.168 203.0117 L277.1111 211.3704 L272.8147 219.4617 L269.4688 227.2188 L267.2635 234.5748 L266.3889 241.463 L267.0352 247.8164 L269.3924 253.5683 L273.6506 258.6518 L280 263 L288.5673 266.5684 L299.2257 269.4016 L311.7852 271.5664 L326.0555 273.1296 L333.6333 273.6232 L333.7332 273.6265" clip-path="url(#clipPath1)"/>
      <path d="M347.4645 274.344 L332.8763 266.0714 L332.0935 281.051 Z" clip-path="url(#clipPath1)" stroke="none"/>
    </g>
  </g>
</svg>
