<?xml version="1.0" encoding="UTF-8"?><svg xmlns="http://www.w3.org/2000/svg" xmlns:xlink="http://www.w3.org/1999/xlink" fill-opacity="1" color-rendering="auto" color-interpolation="auto" text-rendering="auto" stroke="black" stroke-linecap="square" width="961" stroke-miterlimit="10" shape-rendering="auto" stroke-opacity="1" fill="black" stroke-dasharray="none" font-weight="normal" stroke-width="1" height="618" font-family="'Dialog'" font-style="normal" stroke-linejoin="miter" font-size="12px" stroke-dashoffset="0" image-rendering="auto">
  <!--Generated by ySVG 2.5-->
  <defs id="genericDefs"/>
  <g>
    <defs id="defs1">
      <clipPath clipPathUnits="userSpaceOnUse" id="clipPath1">
        <path d="M0 0 L961 0 L961 618 L0 618 L0 0 Z"/>
      </clipPath>
      <clipPath clipPathUnits="userSpaceOnUse" id="clipPath2">
        <path d="M0 82 L961 82 L961 700 L0 700 L0 82 Z"/>
      </clipPath>
    </defs>
    <g stroke-linecap="butt" transform="matrix(1,0,0,1,0,-82)" fill="rgb(138,27,97)" text-rendering="geometricPrecision" shape-rendering="geometricPrecision" stroke-dasharray="18,6" stroke="rgb(138,27,97)" stroke-width="3" stroke-miterlimit="1.45">
      <path fill="none" d="M471.0581 122.3834 L524.2407 122.3834" clip-path="url(#clipPath2)"/>
    </g>
    <g stroke-linecap="butt" transform="matrix(1,0,0,1,0,-82)" fill="rgb(138,27,97)" text-rendering="geometricPrecision" shape-rendering="geometricPrecision" stroke-dasharray="18,6" stroke="rgb(138,27,97)" stroke-width="3" stroke-miterlimit="1.45">
      <path d="M537.9907 122.3834 L522.9907 114.8834 L522.9907 129.8834 Z" stroke="none" clip-path="url(#clipPath2)"/>
      <path fill="none" d="M471.0458 122.0199 L473.9309 123.2723 L476.8472 124.5787 L479.7344 125.9531 L482.5778 127.4296 L485.3629 129.0423 L488.075 130.825 L490.6996 132.8119 L493.2222 135.037 L495.6281 137.5344 L497.9028 140.338 L500.0316 143.4818 L502 147 L503.7993 150.9081 L505.4445 155.1481 L506.9562 159.6438 L508.3556 164.3185 L509.6632 169.0961 L510.9 173.9 L512.0868 178.6539 L513.2444 183.2815 L514.3937 187.7063 L515.5555 191.8519 L516.7507 195.6419 L518 199 L519.3198 201.8696 L520.7083 204.2731 L522.1594 206.2531 L523.6667 207.8519 L523.8457 207.9967 L523.9428 208.0205" clip-path="url(#clipPath2)"/>
      <path d="M537.0955 212.0291 L524.9337 200.4819 L520.5606 214.8303 Z" clip-path="url(#clipPath2)" stroke="none"/>
      <path fill="none" d="M471.0255 122.0287 L474.2686 125.6759 L477.5154 129.4074 L480.7188 133.25 L483.8568 137.2593 L486.9078 141.4907 L489.85 146 L492.6617 150.8426 L495.321 156.0741 L497.8062 161.75 L500.0957 167.9259 L502.1675 174.6574 L504 182 L505.581 189.9769 L506.9367 198.4815 L508.1031 207.375 L509.1161 216.5185 L510.0114 225.7731 L510.825 235 L511.5928 244.0602 L512.3506 252.8148 L513.1344 261.125 L513.9799 268.8519 L514.9232 275.8565 L516 282 L517.2379 287.1805 L518.6312 291.4445 L520.1656 294.875 L521.8271 297.5555 L523.6017 299.5695 L524.3738 300.1591 L524.4734 300.1671" clip-path="url(#clipPath2)"/>
      <path d="M538.0989 302.0134 L524.2419 292.5671 L522.2277 307.4313 Z" clip-path="url(#clipPath2)" stroke="none"/>
      <path fill="none" d="M471.0557 122.1736 L473.0375 128.3504 L475.0663 134.7701 L477.0781 141.3281 L479.0642 148.0938 L481.016 155.1364 L482.925 162.525 L484.7826 170.3289 L486.5803 178.6173 L488.3094 187.4594 L489.9614 196.9244 L491.5278 207.0815 L493 218 L494.3745 229.707 L495.6682 242.0617 L496.9031 254.8813 L498.1012 267.9827 L499.2845 281.1833 L500.475 294.3 L501.6946 307.1501 L502.9654 319.5506 L504.3094 331.3187 L505.7484 342.2716 L507.3047 352.2263 L509 361 L510.8505 368.4592 L512.8488 374.6682 L514.9813 379.7406 L517.2346 383.7901 L519.5953 386.9304 L522.05 389.275 L524.4222 390.8307 L524.521 390.8459" clip-path="url(#clipPath2)"/>
      <path d="M538.0987 393.0158 L524.4702 383.2427 L522.1031 398.0547 Z" clip-path="url(#clipPath2)" stroke="none"/>
      <path fill="none" d="M471.0484 122.6265 L474.8155 171.3465 L478.6667 220.2448 L482.5893 268.2469 L486.619 314.9048 L490.7917 359.7702 L495.1429 402.3951 L499.7083 442.3314 L504.5238 479.131 L509.625 512.3457 L515.0476 541.5275 L520.8274 566.2283 L527 586 L533.5863 600.574 L540.5476 610.4002 L547.8304 616.108 L555.381 618.3267 L563.1458 617.6859 L571.0714 614.8148 L579.1042 610.3428 L587.1905 604.8995 L595.2768 599.1141 L603.3095 593.6161 L611.2351 589.035 L619 586 L626.5598 584.979 L633.9067 585.7932 L641.0424 588.1024 L647.9683 591.5662 L654.6858 595.8441 L661.1964 600.596 L667.5017 605.4814 L673.6031 610.16 L679.5022 614.2916 L685.2004 617.5356 L690.6992 619.5519 L696 620 L701.1069 618.6229 L706.0338 615.4963 L710.7969 610.7793 L715.4127 604.631 L719.8976 597.2103 L724.2679 588.6763 L728.5399 579.1882 L732.7302 568.9048 L736.8549 557.9852 L740.9305 546.5886 L744.3384 536.714 L744.3705 536.6193" clip-path="url(#clipPath2)"/>
      <path d="M748.7963 523.601 L736.8673 535.3887 L751.069 540.2168 Z" clip-path="url(#clipPath2)" stroke="none"/>
    </g>
    <g stroke-linecap="butt" font-size="18px" transform="matrix(1,0,0,1,0,-82)" fill="white" text-rendering="geometricPrecision" font-family="'Arial'" shape-rendering="geometricPrecision" stroke="white" stroke-miterlimit="1.45">
      <text x="134.4171" xml:space="preserve" y="691.2402" clip-path="url(#clipPath2)" stroke="none">Quelle: BIBB - Medien anwenden und produzieren - Abschlussbericht September 2015</text>
    </g>
    <g fill="rgb(138,27,97)" text-rendering="geometricPrecision" shape-rendering="geometricPrecision" transform="matrix(1,0,0,1,0,-82)" stroke="rgb(138,27,97)">
      <rect x="0.2434" y="82.0882" clip-path="url(#clipPath2)" width="470.8064" rx="4" ry="4" height="80.5903" stroke="none"/>
    </g>
    <g stroke-linecap="butt" font-size="28px" transform="matrix(1,0,0,1,0,-82)" fill="white" text-rendering="geometricPrecision" font-family="'Arial'" shape-rendering="geometricPrecision" stroke="white" font-weight="bold" stroke-miterlimit="1.45">
      <text x="187.419" xml:space="preserve" y="116.4498" clip-path="url(#clipPath2)" stroke="none">Medien</text>
      <text x="101.0743" xml:space="preserve" y="147.731" clip-path="url(#clipPath2)" stroke="none">zielgerichtet nutzen </text>
    </g>
    <g stroke-linecap="butt" transform="matrix(1,0,0,1,0,-82)" fill="silver" text-rendering="geometricPrecision" shape-rendering="geometricPrecision" stroke="silver" stroke-width="2" stroke-miterlimit="1.45">
      <rect x="0.2434" y="82.0882" clip-path="url(#clipPath2)" fill="none" width="470.8064" rx="4" ry="4" height="80.5903"/>
    </g>
    <g fill="rgb(51,51,51)" text-rendering="geometricPrecision" shape-rendering="geometricPrecision" transform="matrix(1,0,0,1,0,-82)" stroke="rgb(51,51,51)">
      <rect x="0.2434" y="352.8395" clip-path="url(#clipPath2)" width="470.8064" rx="4" ry="4" height="80.5903" stroke="none"/>
    </g>
    <g stroke-linecap="butt" font-size="28px" transform="matrix(1,0,0,1,0,-82)" fill="silver" text-rendering="geometricPrecision" font-family="'Arial'" shape-rendering="geometricPrecision" stroke="silver" stroke-miterlimit="1.45">
      <text x="151.5919" xml:space="preserve" y="387.2011" clip-path="url(#clipPath2)" stroke="none">Selbstst채ndig</text>
      <text x="196.7296" xml:space="preserve" y="418.4824" clip-path="url(#clipPath2)" stroke="none">lernen</text>
      <rect x="0.2434" y="352.8395" clip-path="url(#clipPath2)" fill="none" width="470.8064" rx="4" ry="4" height="80.5903"/>
    </g>
    <g fill="rgb(51,51,51)" text-rendering="geometricPrecision" shape-rendering="geometricPrecision" transform="matrix(1,0,0,1,0,-82)" stroke="rgb(51,51,51)">
      <rect x="0.2434" y="443.09" clip-path="url(#clipPath2)" width="470.8064" rx="4" ry="4" height="80.5903" stroke="none"/>
    </g>
    <g stroke-linecap="butt" font-size="28px" transform="matrix(1,0,0,1,0,-82)" fill="silver" text-rendering="geometricPrecision" font-family="'Arial'" shape-rendering="geometricPrecision" stroke="silver" stroke-miterlimit="1.45">
      <text x="77.6339" xml:space="preserve" y="477.4516" clip-path="url(#clipPath2)" stroke="none">Rahmenbedingungen der</text>
      <text x="38.7442" xml:space="preserve" y="508.7328" clip-path="url(#clipPath2)" stroke="none">Mediennutzung ber체cksichtigen</text>
      <rect x="0.2434" y="443.09" clip-path="url(#clipPath2)" fill="none" width="470.8064" rx="4" ry="4" height="80.5903"/>
    </g>
    <g fill="rgb(51,51,51)" text-rendering="geometricPrecision" shape-rendering="geometricPrecision" transform="matrix(1,0,0,1,0,-82)" stroke="rgb(51,51,51)">
      <rect x="0.2434" y="172.3387" clip-path="url(#clipPath2)" width="470.8064" rx="4" ry="4" height="80.5903" stroke="none"/>
    </g>
    <g stroke-linecap="butt" font-size="28px" transform="matrix(1,0,0,1,0,-82)" fill="silver" text-rendering="geometricPrecision" font-family="'Arial'" shape-rendering="geometricPrecision" stroke="silver" stroke-miterlimit="1.45">
      <text x="116.585" xml:space="preserve" y="206.7002" clip-path="url(#clipPath2)" stroke="none">Verantwortungsvoll</text>
      <text x="116.585" xml:space="preserve" y="237.9815" clip-path="url(#clipPath2)" stroke="none">zusammenarbeiten</text>
      <rect x="0.2434" y="172.3387" clip-path="url(#clipPath2)" fill="none" width="470.8064" rx="4" ry="4" height="80.5903"/>
    </g>
    <g fill="rgb(51,51,51)" text-rendering="geometricPrecision" shape-rendering="geometricPrecision" transform="matrix(1,0,0,1,0,-82)" stroke="rgb(51,51,51)">
      <rect x="0.2434" y="262.5891" clip-path="url(#clipPath2)" width="470.8064" rx="4" ry="4" height="80.5903" stroke="none"/>
    </g>
    <g stroke-linecap="butt" font-size="28px" transform="matrix(1,0,0,1,0,-82)" fill="silver" text-rendering="geometricPrecision" font-family="'Arial'" shape-rendering="geometricPrecision" stroke="silver" stroke-miterlimit="1.45">
      <text x="183.502" xml:space="preserve" y="296.9507" clip-path="url(#clipPath2)" stroke="none">Sprache</text>
      <text x="115.0196" xml:space="preserve" y="328.2319" clip-path="url(#clipPath2)" stroke="none">zielgerichtet nutzen</text>
      <rect x="0.2434" y="262.5891" clip-path="url(#clipPath2)" fill="none" width="470.8064" rx="4" ry="4" height="80.5903" stroke-width="2"/>
    </g>
    <g fill="rgb(51,51,51)" text-rendering="geometricPrecision" shape-rendering="geometricPrecision" transform="matrix(1,0,0,1,0,-82)" stroke="rgb(51,51,51)">
      <rect x="0.2434" y="533.3404" clip-path="url(#clipPath2)" width="470.8064" rx="4" ry="4" height="80.5903" stroke="none"/>
    </g>
    <g stroke-linecap="butt" font-size="28px" transform="matrix(1,0,0,1,0,-82)" fill="silver" text-rendering="geometricPrecision" font-family="'Arial'" shape-rendering="geometricPrecision" stroke="silver" stroke-miterlimit="1.45">
      <text x="155.4678" xml:space="preserve" y="567.702" clip-path="url(#clipPath2)" stroke="none">Innovationen</text>
      <text x="64.4132" xml:space="preserve" y="598.9833" clip-path="url(#clipPath2)" stroke="none">aufgreifen und vorantreiben</text>
      <rect x="0.2434" y="533.3404" clip-path="url(#clipPath2)" fill="none" width="470.8064" rx="4" ry="4" height="80.5903"/>
    </g>
    <g fill="rgb(244,233,240)" text-rendering="geometricPrecision" shape-rendering="geometricPrecision" transform="matrix(1,0,0,1,0,-82)" stroke="rgb(244,233,240)">
      <rect x="538.0257" y="82.0882" clip-path="url(#clipPath2)" width="421.9743" rx="4" ry="4" height="80.5903" stroke="none"/>
    </g>
    <g font-size="28px" stroke-linecap="butt" transform="matrix(1,0,0,1,0,-82)" text-rendering="geometricPrecision" font-family="'Arial'" shape-rendering="geometricPrecision" stroke-miterlimit="1.45">
      <text x="587.0968" xml:space="preserve" y="116.4498" clip-path="url(#clipPath2)" stroke="none">Medien aufgabenbezogen</text>
      <text x="682.0753" xml:space="preserve" y="147.731" clip-path="url(#clipPath2)" stroke="none">ausw채hlen</text>
    </g>
    <g stroke-linecap="butt" transform="matrix(1,0,0,1,0,-82)" fill="rgb(138,27,97)" text-rendering="geometricPrecision" shape-rendering="geometricPrecision" stroke="rgb(138,27,97)" stroke-miterlimit="1.45">
      <rect x="538.0257" y="82.0882" clip-path="url(#clipPath2)" fill="none" width="421.9743" rx="4" ry="4" height="80.5903"/>
    </g>
    <g fill="rgb(244,233,240)" text-rendering="geometricPrecision" shape-rendering="geometricPrecision" transform="matrix(1,0,0,1,0,-82)" stroke="rgb(244,233,240)">
      <rect x="538.0257" y="172.3387" clip-path="url(#clipPath2)" width="421.9743" rx="4" ry="4" height="80.5903" stroke="none"/>
    </g>
    <g font-size="28px" stroke-linecap="butt" transform="matrix(1,0,0,1,0,-82)" text-rendering="geometricPrecision" font-family="'Arial'" shape-rendering="geometricPrecision" stroke-miterlimit="1.45">
      <text x="627.6202" xml:space="preserve" y="206.7002" clip-path="url(#clipPath2)" stroke="none">Hard- und Software</text>
      <text x="590.9796" xml:space="preserve" y="237.9815" clip-path="url(#clipPath2)" stroke="none">aufgabenbezogen nutzen</text>
    </g>
    <g stroke-linecap="butt" transform="matrix(1,0,0,1,0,-82)" fill="rgb(138,27,97)" text-rendering="geometricPrecision" shape-rendering="geometricPrecision" stroke="rgb(138,27,97)" stroke-miterlimit="1.45">
      <rect x="538.0257" y="172.3387" clip-path="url(#clipPath2)" fill="none" width="421.9743" rx="4" ry="4" height="80.5903"/>
    </g>
    <g fill="rgb(244,233,240)" text-rendering="geometricPrecision" shape-rendering="geometricPrecision" transform="matrix(1,0,0,1,0,-82)" stroke="rgb(244,233,240)">
      <rect x="538.0257" y="262.5891" clip-path="url(#clipPath2)" width="421.9743" rx="4" ry="4" height="80.5903" stroke="none"/>
    </g>
    <g font-size="28px" stroke-linecap="butt" transform="matrix(1,0,0,1,0,-82)" text-rendering="geometricPrecision" font-family="'Arial'" shape-rendering="geometricPrecision" stroke-miterlimit="1.45">
      <text x="548.2277" xml:space="preserve" y="296.9507" clip-path="url(#clipPath2)" stroke="none">Recherchieren in verschiedenen</text>
      <text x="552.8761" xml:space="preserve" y="328.2319" clip-path="url(#clipPath2)" stroke="none">Medien und Quellen ausw채hlen</text>
    </g>
    <g stroke-linecap="butt" transform="matrix(1,0,0,1,0,-82)" fill="rgb(138,27,97)" text-rendering="geometricPrecision" shape-rendering="geometricPrecision" stroke="rgb(138,27,97)" stroke-miterlimit="1.45">
      <rect x="538.0257" y="262.5891" clip-path="url(#clipPath2)" fill="none" width="421.9743" rx="4" ry="4" height="80.5903"/>
    </g>
    <g fill="rgb(244,233,240)" text-rendering="geometricPrecision" shape-rendering="geometricPrecision" transform="matrix(1,0,0,1,0,-82)" stroke="rgb(244,233,240)">
      <rect x="538.0257" y="352.8395" clip-path="url(#clipPath2)" width="421.9743" rx="4" ry="4" height="80.5903" stroke="none"/>
    </g>
    <g stroke-linecap="butt" font-size="28px" transform="matrix(1,0,0,1,0,-82)" fill="rgb(34,34,34)" text-rendering="geometricPrecision" font-family="'Arial'" shape-rendering="geometricPrecision" stroke="rgb(34,34,34)" stroke-miterlimit="1.45">
      <text x="576.2413" xml:space="preserve" y="387.2011" clip-path="url(#clipPath2)" stroke="none">Arbeitsergebnisse gestalten</text>
      <text x="597.2413" xml:space="preserve" y="418.4824" clip-path="url(#clipPath2)" stroke="none">und/oder dokumentieren</text>
    </g>
    <g stroke-linecap="butt" transform="matrix(1,0,0,1,0,-82)" fill="rgb(138,27,97)" text-rendering="geometricPrecision" shape-rendering="geometricPrecision" stroke="rgb(138,27,97)" stroke-width="2" stroke-miterlimit="1.45">
      <rect x="538.0257" y="352.8395" clip-path="url(#clipPath2)" fill="none" width="421.9743" rx="4" ry="4" height="80.5903"/>
    </g>
    <g fill="rgb(244,233,240)" text-rendering="geometricPrecision" shape-rendering="geometricPrecision" transform="matrix(1,0,0,1,0,-82)" stroke="rgb(244,233,240)">
      <rect x="538.0257" y="443.09" clip-path="url(#clipPath2)" width="421.9743" rx="4" ry="4" height="80.5903" stroke="none"/>
    </g>
    <g font-size="28px" stroke-linecap="butt" transform="matrix(1,0,0,1,0,-82)" text-rendering="geometricPrecision" font-family="'Arial'" shape-rendering="geometricPrecision" stroke-miterlimit="1.45">
      <text x="597.2482" xml:space="preserve" y="477.4516" clip-path="url(#clipPath2)" stroke="none">Fachbezogene Software</text>
      <text x="671.1857" xml:space="preserve" y="508.7328" clip-path="url(#clipPath2)" stroke="none">beherrschen</text>
    </g>
    <g stroke-linecap="butt" transform="matrix(1,0,0,1,0,-82)" fill="rgb(138,27,97)" text-rendering="geometricPrecision" shape-rendering="geometricPrecision" stroke="rgb(138,27,97)" stroke-miterlimit="1.45">
      <rect x="538.0257" y="443.09" clip-path="url(#clipPath2)" fill="none" width="421.9743" rx="4" ry="4" height="80.5903"/>
    </g>
  </g>
</svg>
