<?xml version="1.0" encoding="UTF-8"?><svg xmlns="http://www.w3.org/2000/svg" xmlns:xlink="http://www.w3.org/1999/xlink" fill-opacity="1" color-rendering="auto" color-interpolation="auto" text-rendering="auto" stroke="black" stroke-linecap="square" width="961" stroke-miterlimit="10" shape-rendering="auto" stroke-opacity="1" fill="black" stroke-dasharray="none" font-weight="normal" stroke-width="1" height="618" font-family="'Dialog'" font-style="normal" stroke-linejoin="miter" font-size="12px" stroke-dashoffset="0" image-rendering="auto">
  <!--Generated by ySVG 2.5-->
  <defs id="genericDefs"/>
  <g>
    <defs id="defs1">
      <clipPath clipPathUnits="userSpaceOnUse" id="clipPath1">
        <path d="M0 0 L961 0 L961 618 L0 618 L0 0 Z"/>
      </clipPath>
      <clipPath clipPathUnits="userSpaceOnUse" id="clipPath2">
        <path d="M0 82 L961 82 L961 700 L0 700 L0 82 Z"/>
      </clipPath>
    </defs>
    <g stroke-linecap="butt" transform="matrix(1,0,0,1,0,-82)" fill="rgb(198,53,39)" text-rendering="geometricPrecision" shape-rendering="geometricPrecision" stroke-dasharray="18,6" stroke="rgb(198,53,39)" stroke-width="3" stroke-miterlimit="1.45">
      <path fill="none" d="M471.037 392.9904 L475.7419 391.7718 L480.4352 390.5077 L485.0312 389.1719 L489.4815 387.7284 L493.7373 386.1414 L497.75 384.375 L501.4711 382.3933 L504.8519 380.1605 L507.8438 377.6406 L510.3981 374.7979 L512.4664 371.5963 L514 368 L514.9739 363.994 L515.4583 359.6466 L515.5469 355.0469 L515.3333 350.2839 L514.9114 345.447 L514.375 340.625 L513.8177 335.9072 L513.3333 331.3827 L513.0156 327.1406 L512.9583 323.2701 L513.2552 319.8601 L514 317 L515.2633 314.755 L517.0231 313.0957 L519.2344 311.9688 L521.8519 311.321 L524.8304 311.0992 L528.125 311.25 L531.6904 311.7203 L535.4815 312.4568 L538.773 313.2437 L538.8691 313.2712" clip-path="url(#clipPath2)"/>
    </g>
    <g stroke-linecap="butt" transform="matrix(1,0,0,1,0,-82)" fill="rgb(198,53,39)" text-rendering="geometricPrecision" shape-rendering="geometricPrecision" stroke-dasharray="18,6" stroke="rgb(198,53,39)" stroke-width="3" stroke-miterlimit="1.45">
      <path d="M552.0961 317.0273 L539.7155 305.715 L535.6179 320.1445 Z" stroke="none" clip-path="url(#clipPath2)"/>
      <path fill="none" d="M471.0355 393.0108 L475.5421 394.3839 L480.037 395.804 L484.4375 397.2969 L488.6963 398.8988 L492.7662 400.646 L496.6 402.575 L500.1505 404.722 L503.3704 407.1234 L506.2125 409.8156 L508.6296 412.8349 L510.5745 416.2176 L512 420 L512.8823 424.1973 L513.2917 428.7392 L513.3219 433.5344 L513.0667 438.4914 L512.6198 443.5187 L512.075 448.525 L511.526 453.4188 L511.0667 458.1086 L510.7906 462.5031 L510.7917 466.5108 L511.1635 470.0403 L512 473 L513.3714 475.3231 L515.2546 477.0401 L517.6031 478.2062 L520.3704 478.8766 L523.5098 479.1061 L526.975 478.95 L530.7193 478.4633 L534.6963 477.7012 L538.7685 476.7402 L538.8647 476.713" clip-path="url(#clipPath2)"/>
      <path d="M552.0962 472.9728 L535.6217 469.8358 L539.7019 484.2702 Z" clip-path="url(#clipPath2)" stroke="none"/>
    </g>
    <g stroke-linecap="butt" font-size="18px" transform="matrix(1,0,0,1,0,-82)" fill="white" text-rendering="geometricPrecision" font-family="'Arial'" shape-rendering="geometricPrecision" stroke="white" stroke-miterlimit="1.45">
      <text x="120.0382" xml:space="preserve" y="691.2402" clip-path="url(#clipPath2)" stroke="none">Quelle: Kr채mer et al. (2015) - BIBB Abschlussbericht "Medien anwenden und produzieren"</text>
    </g>
    <g fill="rgb(51,51,51)" text-rendering="geometricPrecision" shape-rendering="geometricPrecision" transform="matrix(1,0,0,1,0,-82)" stroke="rgb(51,51,51)">
      <rect x="0.2434" y="82.0882" clip-path="url(#clipPath2)" width="470.8064" rx="4" ry="4" height="80.5903" stroke="none"/>
    </g>
    <g stroke-linecap="butt" font-size="28px" transform="matrix(1,0,0,1,0,-82)" fill="silver" text-rendering="geometricPrecision" font-family="'Arial'" shape-rendering="geometricPrecision" stroke="silver" stroke-miterlimit="1.45">
      <text x="189.7296" xml:space="preserve" y="116.4498" clip-path="url(#clipPath2)" stroke="none">Medien</text>
      <text x="111.13" xml:space="preserve" y="147.731" clip-path="url(#clipPath2)" stroke="none">zielgerichtet nutzen </text>
      <rect x="0.2434" y="82.0882" clip-path="url(#clipPath2)" fill="none" width="470.8064" rx="4" ry="4" height="80.5903"/>
    </g>
    <g fill="rgb(198,53,39)" text-rendering="geometricPrecision" shape-rendering="geometricPrecision" transform="matrix(1,0,0,1,0,-82)" stroke="rgb(198,53,39)">
      <rect x="0.2434" y="352.8395" clip-path="url(#clipPath2)" width="470.8064" rx="4" ry="4" height="80.5903" stroke="none"/>
    </g>
    <g stroke-linecap="butt" font-size="28px" transform="matrix(1,0,0,1,0,-82)" fill="white" text-rendering="geometricPrecision" font-family="'Arial'" shape-rendering="geometricPrecision" stroke="white" font-weight="bold" stroke-miterlimit="1.45">
      <text x="143.8536" xml:space="preserve" y="387.2011" clip-path="url(#clipPath2)" stroke="none">Selbstst채ndig</text>
      <text x="193.6329" xml:space="preserve" y="418.4824" clip-path="url(#clipPath2)" stroke="none">lernen</text>
    </g>
    <g stroke-linecap="butt" transform="matrix(1,0,0,1,0,-82)" fill="white" text-rendering="geometricPrecision" shape-rendering="geometricPrecision" stroke="white" stroke-width="2" stroke-miterlimit="1.45">
      <rect x="0.2434" y="352.8395" clip-path="url(#clipPath2)" fill="none" width="470.8064" rx="4" ry="4" height="80.5903"/>
    </g>
    <g fill="rgb(51,51,51)" text-rendering="geometricPrecision" shape-rendering="geometricPrecision" transform="matrix(1,0,0,1,0,-82)" stroke="rgb(51,51,51)">
      <rect x="0.2434" y="443.09" clip-path="url(#clipPath2)" width="470.8064" rx="4" ry="4" height="80.5903" stroke="none"/>
    </g>
    <g stroke-linecap="butt" font-size="28px" transform="matrix(1,0,0,1,0,-82)" fill="silver" text-rendering="geometricPrecision" font-family="'Arial'" shape-rendering="geometricPrecision" stroke="silver" stroke-miterlimit="1.45">
      <text x="77.6339" xml:space="preserve" y="477.4516" clip-path="url(#clipPath2)" stroke="none">Rahmenbedingungen der</text>
      <text x="38.7442" xml:space="preserve" y="508.7328" clip-path="url(#clipPath2)" stroke="none">Mediennutzung ber체cksichtigen</text>
      <rect x="0.2434" y="443.09" clip-path="url(#clipPath2)" fill="none" width="470.8064" rx="4" ry="4" height="80.5903"/>
    </g>
    <g fill="rgb(51,51,51)" text-rendering="geometricPrecision" shape-rendering="geometricPrecision" transform="matrix(1,0,0,1,0,-82)" stroke="rgb(51,51,51)">
      <rect x="0.2434" y="172.3387" clip-path="url(#clipPath2)" width="470.8064" rx="4" ry="4" height="80.5903" stroke="none"/>
    </g>
    <g stroke-linecap="butt" font-size="28px" transform="matrix(1,0,0,1,0,-82)" fill="silver" text-rendering="geometricPrecision" font-family="'Arial'" shape-rendering="geometricPrecision" stroke="silver" stroke-miterlimit="1.45">
      <text x="116.585" xml:space="preserve" y="206.7002" clip-path="url(#clipPath2)" stroke="none">Verantwortungsvoll</text>
      <text x="116.585" xml:space="preserve" y="237.9815" clip-path="url(#clipPath2)" stroke="none">zusammenarbeiten</text>
      <rect x="0.2434" y="172.3387" clip-path="url(#clipPath2)" fill="none" width="470.8064" rx="4" ry="4" height="80.5903"/>
    </g>
    <g fill="rgb(51,51,51)" text-rendering="geometricPrecision" shape-rendering="geometricPrecision" transform="matrix(1,0,0,1,0,-82)" stroke="rgb(51,51,51)">
      <rect x="0.2434" y="262.5891" clip-path="url(#clipPath2)" width="470.8064" rx="4" ry="4" height="80.5903" stroke="none"/>
    </g>
    <g stroke-linecap="butt" font-size="28px" transform="matrix(1,0,0,1,0,-82)" fill="silver" text-rendering="geometricPrecision" font-family="'Arial'" shape-rendering="geometricPrecision" stroke="silver" stroke-miterlimit="1.45">
      <text x="183.502" xml:space="preserve" y="296.9507" clip-path="url(#clipPath2)" stroke="none">Sprache</text>
      <text x="115.0196" xml:space="preserve" y="328.2319" clip-path="url(#clipPath2)" stroke="none">zielgerichtet nutzen</text>
      <rect x="0.2434" y="262.5891" clip-path="url(#clipPath2)" fill="none" width="470.8064" rx="4" ry="4" height="80.5903"/>
    </g>
    <g fill="rgb(51,51,51)" text-rendering="geometricPrecision" shape-rendering="geometricPrecision" transform="matrix(1,0,0,1,0,-82)" stroke="rgb(51,51,51)">
      <rect x="0.2434" y="533.3404" clip-path="url(#clipPath2)" width="470.8064" rx="4" ry="4" height="80.5903" stroke="none"/>
    </g>
    <g stroke-linecap="butt" font-size="28px" transform="matrix(1,0,0,1,0,-82)" fill="silver" text-rendering="geometricPrecision" font-family="'Arial'" shape-rendering="geometricPrecision" stroke="silver" stroke-miterlimit="1.45">
      <text x="155.4678" xml:space="preserve" y="567.702" clip-path="url(#clipPath2)" stroke="none">Innovationen</text>
      <text x="64.4132" xml:space="preserve" y="598.9833" clip-path="url(#clipPath2)" stroke="none">aufgreifen und vorantreiben</text>
      <rect x="0.2434" y="533.3404" clip-path="url(#clipPath2)" fill="none" width="470.8064" rx="4" ry="4" height="80.5903"/>
    </g>
    <g fill="rgb(249,235,234)" text-rendering="geometricPrecision" shape-rendering="geometricPrecision" transform="matrix(1,0,0,1,0,-82)" stroke="rgb(249,235,234)">
      <rect x="552.8378" y="243.8384" clip-path="url(#clipPath2)" width="407.1622" rx="4" ry="4" height="146.6011" stroke="none"/>
    </g>
    <g font-size="28px" stroke-linecap="butt" transform="matrix(1,0,0,1,0,-82)" text-rendering="geometricPrecision" font-family="'Arial'" shape-rendering="geometricPrecision" stroke-miterlimit="1.45">
      <text x="566.5166" xml:space="preserve" y="279.9241" clip-path="url(#clipPath2)" stroke="none">Neue Entwicklungen erkennen</text>
      <text x="733.0605" xml:space="preserve" y="311.2054" clip-path="url(#clipPath2)" stroke="none">und</text>
      <text x="686.3643" xml:space="preserve" y="342.4866" clip-path="url(#clipPath2)" stroke="none">daraus den</text>
      <text x="635.7715" xml:space="preserve" y="373.7679" clip-path="url(#clipPath2)" stroke="none">Lernbedarf ableiten</text>
    </g>
    <g stroke-linecap="butt" transform="matrix(1,0,0,1,0,-82)" fill="rgb(198,53,39)" text-rendering="geometricPrecision" shape-rendering="geometricPrecision" stroke="rgb(198,53,39)" stroke-miterlimit="1.45">
      <rect x="552.8378" y="243.8384" clip-path="url(#clipPath2)" fill="none" width="407.1622" rx="4" ry="4" height="146.6011"/>
    </g>
    <g fill="rgb(249,235,234)" text-rendering="geometricPrecision" shape-rendering="geometricPrecision" transform="matrix(1,0,0,1,0,-82)" stroke="rgb(249,235,234)">
      <rect x="552.8378" y="400.0996" clip-path="url(#clipPath2)" width="407.1622" rx="4" ry="4" height="146.6011" stroke="none"/>
    </g>
    <g font-size="28px" stroke-linecap="butt" transform="matrix(1,0,0,1,0,-82)" text-rendering="geometricPrecision" font-family="'Arial'" shape-rendering="geometricPrecision" stroke-miterlimit="1.45">
      <text x="672.3643" xml:space="preserve" y="436.1853" clip-path="url(#clipPath2)" stroke="none">Selbstst채ndig</text>
      <text x="733.0605" xml:space="preserve" y="467.4666" clip-path="url(#clipPath2)" stroke="none">und</text>
      <text x="681.7158" xml:space="preserve" y="498.7478" clip-path="url(#clipPath2)" stroke="none">zielgerichtet</text>
      <text x="717.502" xml:space="preserve" y="530.0291" clip-path="url(#clipPath2)" stroke="none">lernen</text>
    </g>
    <g stroke-linecap="butt" transform="matrix(1,0,0,1,0,-82)" fill="rgb(198,53,39)" text-rendering="geometricPrecision" shape-rendering="geometricPrecision" stroke="rgb(198,53,39)" stroke-miterlimit="1.45">
      <rect x="552.8378" y="400.0996" clip-path="url(#clipPath2)" fill="none" width="407.1622" rx="4" ry="4" height="146.6011"/>
    </g>
  </g>
</svg>
