<?xml version="1.0" encoding="UTF-8"?><svg xmlns="http://www.w3.org/2000/svg" xmlns:xlink="http://www.w3.org/1999/xlink" fill-opacity="1" color-rendering="auto" color-interpolation="auto" text-rendering="auto" stroke="black" stroke-linecap="square" width="963" stroke-miterlimit="10" shape-rendering="auto" stroke-opacity="1" fill="black" stroke-dasharray="none" font-weight="normal" stroke-width="1" height="618" font-family="'Dialog'" font-style="normal" stroke-linejoin="miter" font-size="12px" stroke-dashoffset="0" image-rendering="auto">
  <!--Generated by ySVG 2.5-->
  <defs id="genericDefs"/>
  <g>
    <defs id="defs1">
      <clipPath clipPathUnits="userSpaceOnUse" id="clipPath1">
        <path d="M0 0 L963 0 L963 618 L0 618 L0 0 Z"/>
      </clipPath>
      <clipPath clipPathUnits="userSpaceOnUse" id="clipPath2">
        <path d="M0 82 L963 82 L963 700 L0 700 L0 82 Z"/>
      </clipPath>
    </defs>
    <g stroke-linecap="butt" transform="matrix(1,0,0,1,0,-82)" fill="rgb(255,130,0)" text-rendering="geometricPrecision" shape-rendering="geometricPrecision" stroke-dasharray="18,6" stroke="rgb(255,130,0)" stroke-width="3" stroke-miterlimit="1.45">
      <path fill="none" d="M471.0436 302.0095 L476.5771 303.2137 L482.1404 304.2507 L487.6763 304.9341 L493.171 305.087 L498.6108 304.5327 L503.9821 303.0945 L509.2709 300.5954 L514.4637 296.8588 L519.5468 291.7077 L524.5063 284.9654 L529.3286 276.4551 L534 266 L538.5169 253.5231 L542.917 239.3468 L547.2479 223.8933 L551.5575 207.5848 L555.8936 190.8435 L560.3038 174.0915 L564.8361 157.7511 L569.5382 142.2445 L574.4578 127.9939 L579.6428 115.4215 L585.141 104.9495 L591 97 L597.2527 91.8662 L603.8723 89.325 L610.8165 89.0239 L618.0434 90.6108 L625.5111 93.7335 L633.1776 98.0395 L641.0009 103.1766 L648.939 108.7927 L656.95 114.5353 L664.9918 120.0522 L673.0225 124.9912 L681 129 L688.8823 131.8146 L696.6264 133.5246 L704.1894 134.3079 L711.5281 134.3422 L718.5995 133.8055 L725.3607 132.8756 L731.7684 131.7304 L737.7797 130.5478 L743.3516 129.5055 L748.441 128.7816 L753.0048 128.5538 L757 129 L760.3992 130.2566 L763.2378 132.2941 L765.5667 135.0415 L767.4368 138.4278 L768.8992 142.382 L770.0048 146.8331 L770.8046 151.7102 L771.3495 156.9422 L771.6905 162.4582 L771.8151 166.2513 L771.8161 166.3512" clip-path="url(#clipPath2)"/>
    </g>
    <g stroke-linecap="butt" transform="matrix(1,0,0,1,0,-82)" fill="rgb(255,130,0)" text-rendering="geometricPrecision" shape-rendering="geometricPrecision" stroke-dasharray="18,6" stroke="rgb(255,130,0)" stroke-width="3" stroke-miterlimit="1.45">
      <path d="M772.0013 180.1 L779.2986 165.0003 L764.2999 165.2024 Z" stroke="none" clip-path="url(#clipPath2)"/>
      <path fill="none" d="M471.0275 302.0114 L474.5148 303.4599 L478.0185 304.946 L481.5 306.4844 L484.9482 308.1012 L488.3518 309.8227 L491.7 311.675 L494.9815 313.6842 L498.1852 315.8766 L501.3 318.2781 L504.3148 320.9151 L507.2185 323.8137 L510 327 L512.6541 330.4856 L515.1991 334.2238 L517.6594 338.1531 L520.0593 342.2123 L522.423 346.3401 L524.775 350.475 L527.1395 354.5558 L529.5408 358.521 L532.0031 362.3094 L534.5509 365.8596 L537.2084 369.1102 L540 372 L542.9437 374.4836 L546.0324 376.5803 L549.2531 378.325 L552.5926 379.7531 L556.0376 380.8997 L559.575 381.8 L563.1915 382.4892 L566.8741 383.0025 L568.2768 383.1424 L568.3766 383.1479" clip-path="url(#clipPath2)"/>
      <path d="M582.0999 384.0063 L567.5974 375.5845 L566.6609 390.5552 Z" clip-path="url(#clipPath2)" stroke="none"/>
      <path fill="none" d="M471.0723 302.0638 L477.1705 307.4492 L483.2639 312.9599 L489.2031 318.5938 L494.9111 324.4124 L500.3108 330.4772 L505.325 336.85 L509.8767 343.5922 L513.8889 350.7654 L517.2844 358.4312 L519.9861 366.6512 L521.917 375.487 L523 385 L523.1986 395.2152 L522.6389 406.0108 L521.4875 417.2281 L519.9111 428.7086 L518.0764 440.2938 L516.15 451.825 L514.2986 463.1437 L512.6889 474.0914 L511.4875 484.5094 L510.8611 494.2392 L510.9764 503.1223 L512 511 L514.0559 517.7565 L517.0972 523.446 L521.0344 528.1656 L525.7778 532.0123 L531.2379 535.0831 L537.325 537.475 L543.9496 539.2849 L551.0222 540.6099 L558.4531 541.5469 L566.1528 542.1929 L568.2671 542.3142 L568.367 542.3187" clip-path="url(#clipPath2)"/>
      <path d="M582.0999 543.005 L567.4929 534.7656 L566.7442 549.7469 Z" clip-path="url(#clipPath2)" stroke="none"/>
    </g>
    <g stroke-linecap="butt" font-size="18px" transform="matrix(1,0,0,1,0,-82)" fill="white" text-rendering="geometricPrecision" font-family="'Arial'" shape-rendering="geometricPrecision" stroke="white" stroke-miterlimit="1.45">
      <text x="120.0382" xml:space="preserve" y="691.2402" clip-path="url(#clipPath2)" stroke="none">Quelle: Krämer et al. (2015) - BIBB Abschlussbericht "Medien anwenden und produzieren"</text>
    </g>
    <g fill="rgb(51,51,51)" text-rendering="geometricPrecision" shape-rendering="geometricPrecision" transform="matrix(1,0,0,1,0,-82)" stroke="rgb(51,51,51)">
      <rect x="0.2434" y="82.0882" clip-path="url(#clipPath2)" width="470.8064" rx="4" ry="4" height="80.5903" stroke="none"/>
    </g>
    <g stroke-linecap="butt" font-size="28px" transform="matrix(1,0,0,1,0,-82)" fill="silver" text-rendering="geometricPrecision" font-family="'Arial'" shape-rendering="geometricPrecision" stroke="silver" stroke-miterlimit="1.45">
      <text x="189.7296" xml:space="preserve" y="116.4498" clip-path="url(#clipPath2)" stroke="none">Medien</text>
      <text x="111.13" xml:space="preserve" y="147.731" clip-path="url(#clipPath2)" stroke="none">zielgerichtet nutzen </text>
      <rect x="0.2434" y="82.0882" clip-path="url(#clipPath2)" fill="none" width="470.8064" rx="4" ry="4" height="80.5903"/>
    </g>
    <g fill="rgb(51,51,51)" text-rendering="geometricPrecision" shape-rendering="geometricPrecision" transform="matrix(1,0,0,1,0,-82)" stroke="rgb(51,51,51)">
      <rect x="0.2434" y="352.8395" clip-path="url(#clipPath2)" width="470.8064" rx="4" ry="4" height="80.5903" stroke="none"/>
    </g>
    <g stroke-linecap="butt" font-size="28px" transform="matrix(1,0,0,1,0,-82)" fill="silver" text-rendering="geometricPrecision" font-family="'Arial'" shape-rendering="geometricPrecision" stroke="silver" stroke-miterlimit="1.45">
      <text x="151.5919" xml:space="preserve" y="387.2011" clip-path="url(#clipPath2)" stroke="none">Selbstständig</text>
      <text x="196.7296" xml:space="preserve" y="418.4824" clip-path="url(#clipPath2)" stroke="none">lernen</text>
      <rect x="0.2434" y="352.8395" clip-path="url(#clipPath2)" fill="none" width="470.8064" rx="4" ry="4" height="80.5903"/>
    </g>
    <g fill="rgb(51,51,51)" text-rendering="geometricPrecision" shape-rendering="geometricPrecision" transform="matrix(1,0,0,1,0,-82)" stroke="rgb(51,51,51)">
      <rect x="0.2434" y="443.09" clip-path="url(#clipPath2)" width="470.8064" rx="4" ry="4" height="80.5903" stroke="none"/>
    </g>
    <g stroke-linecap="butt" font-size="28px" transform="matrix(1,0,0,1,0,-82)" fill="silver" text-rendering="geometricPrecision" font-family="'Arial'" shape-rendering="geometricPrecision" stroke="silver" stroke-miterlimit="1.45">
      <text x="77.6339" xml:space="preserve" y="477.4516" clip-path="url(#clipPath2)" stroke="none">Rahmenbedingungen der</text>
      <text x="38.7442" xml:space="preserve" y="508.7328" clip-path="url(#clipPath2)" stroke="none">Mediennutzung berücksichtigen</text>
      <rect x="0.2434" y="443.09" clip-path="url(#clipPath2)" fill="none" width="470.8064" rx="4" ry="4" height="80.5903"/>
    </g>
    <g fill="rgb(51,51,51)" text-rendering="geometricPrecision" shape-rendering="geometricPrecision" transform="matrix(1,0,0,1,0,-82)" stroke="rgb(51,51,51)">
      <rect x="0.2434" y="172.3387" clip-path="url(#clipPath2)" width="470.8064" rx="4" ry="4" height="80.5903" stroke="none"/>
    </g>
    <g stroke-linecap="butt" font-size="28px" transform="matrix(1,0,0,1,0,-82)" fill="silver" text-rendering="geometricPrecision" font-family="'Arial'" shape-rendering="geometricPrecision" stroke="silver" stroke-miterlimit="1.45">
      <text x="116.585" xml:space="preserve" y="206.7002" clip-path="url(#clipPath2)" stroke="none">Verantwortungsvoll</text>
      <text x="116.585" xml:space="preserve" y="237.9815" clip-path="url(#clipPath2)" stroke="none">zusammenarbeiten</text>
      <rect x="0.2434" y="172.3387" clip-path="url(#clipPath2)" fill="none" width="470.8064" rx="4" ry="4" height="80.5903"/>
    </g>
    <g fill="rgb(255,130,0)" text-rendering="geometricPrecision" shape-rendering="geometricPrecision" transform="matrix(1,0,0,1,0,-82)" stroke="rgb(255,130,0)">
      <rect x="0.2434" y="262.5891" clip-path="url(#clipPath2)" width="470.8064" rx="4" ry="4" height="80.5903" stroke="none"/>
    </g>
    <g stroke-linecap="butt" font-size="28px" transform="matrix(1,0,0,1,0,-82)" fill="rgb(34,34,34)" text-rendering="geometricPrecision" font-family="'Arial'" shape-rendering="geometricPrecision" stroke="rgb(34,34,34)" font-weight="bold" stroke-miterlimit="1.45">
      <text x="180.3985" xml:space="preserve" y="296.9507" clip-path="url(#clipPath2)" stroke="none">Sprache</text>
      <text x="104.9639" xml:space="preserve" y="328.2319" clip-path="url(#clipPath2)" stroke="none">zielgerichtet nutzen</text>
    </g>
    <g stroke-linecap="butt" transform="matrix(1,0,0,1,0,-82)" fill="white" text-rendering="geometricPrecision" shape-rendering="geometricPrecision" stroke="white" stroke-width="2" stroke-miterlimit="1.45">
      <rect x="0.2434" y="262.5891" clip-path="url(#clipPath2)" fill="none" width="470.8064" rx="4" ry="4" height="80.5903"/>
    </g>
    <g fill="rgb(51,51,51)" text-rendering="geometricPrecision" shape-rendering="geometricPrecision" transform="matrix(1,0,0,1,0,-82)" stroke="rgb(51,51,51)">
      <rect x="0.2434" y="533.3404" clip-path="url(#clipPath2)" width="470.8064" rx="4" ry="4" height="80.5903" stroke="none"/>
    </g>
    <g stroke-linecap="butt" font-size="28px" transform="matrix(1,0,0,1,0,-82)" fill="silver" text-rendering="geometricPrecision" font-family="'Arial'" shape-rendering="geometricPrecision" stroke="silver" stroke-miterlimit="1.45">
      <text x="155.4678" xml:space="preserve" y="567.702" clip-path="url(#clipPath2)" stroke="none">Innovationen</text>
      <text x="64.4132" xml:space="preserve" y="598.9833" clip-path="url(#clipPath2)" stroke="none">aufgreifen und vorantreiben</text>
      <rect x="0.2434" y="533.3404" clip-path="url(#clipPath2)" fill="none" width="470.8064" rx="4" ry="4" height="80.5903"/>
    </g>
    <g fill="rgb(255,243,230)" text-rendering="geometricPrecision" shape-rendering="geometricPrecision" transform="matrix(1,0,0,1,0,-82)" stroke="rgb(255,243,230)">
      <rect x="582.0861" y="180.3627" clip-path="url(#clipPath2)" width="380.1139" rx="4" ry="4" height="118.2648" stroke="none"/>
    </g>
    <g font-size="28px" stroke-linecap="butt" transform="matrix(1,0,0,1,0,-82)" text-rendering="geometricPrecision" font-family="'Arial'" shape-rendering="geometricPrecision" stroke-miterlimit="1.45">
      <text x="626.6333" xml:space="preserve" y="217.9208" clip-path="url(#clipPath2)" stroke="none">Mündlich und schriftlich</text>
      <text x="659.2817" xml:space="preserve" y="249.2021" clip-path="url(#clipPath2)" stroke="none">situationsbezogen</text>
      <text x="699.7642" xml:space="preserve" y="280.4833" clip-path="url(#clipPath2)" stroke="none">ausdrücken</text>
    </g>
    <g stroke-linecap="butt" transform="matrix(1,0,0,1,0,-82)" fill="rgb(255,130,0)" text-rendering="geometricPrecision" shape-rendering="geometricPrecision" stroke="rgb(255,130,0)" stroke-miterlimit="1.45">
      <rect x="582.0861" y="180.3627" clip-path="url(#clipPath2)" fill="none" width="380.1139" rx="4" ry="4" height="118.2648"/>
    </g>
    <g fill="rgb(255,243,230)" text-rendering="geometricPrecision" shape-rendering="geometricPrecision" transform="matrix(1,0,0,1,0,-82)" stroke="rgb(255,243,230)">
      <rect x="582.0861" y="310.9583" clip-path="url(#clipPath2)" width="380.1139" rx="4" ry="4" height="146.6011" stroke="none"/>
    </g>
    <g font-size="28px" stroke-linecap="butt" transform="matrix(1,0,0,1,0,-82)" text-rendering="geometricPrecision" font-family="'Arial'" shape-rendering="geometricPrecision" stroke-miterlimit="1.45">
      <text x="703.6538" xml:space="preserve" y="347.044" clip-path="url(#clipPath2)" stroke="none">Regeln der</text>
      <text x="595.4888" xml:space="preserve" y="378.3253" clip-path="url(#clipPath2)" stroke="none">mündlichen und schriftlichen</text>
      <text x="675.6538" xml:space="preserve" y="409.6065" clip-path="url(#clipPath2)" stroke="none">Kommunikation</text>
      <text x="674.8677" xml:space="preserve" y="440.8878" clip-path="url(#clipPath2)" stroke="none">berücksichtigen</text>
    </g>
    <g stroke-linecap="butt" transform="matrix(1,0,0,1,0,-82)" fill="rgb(255,130,0)" text-rendering="geometricPrecision" shape-rendering="geometricPrecision" stroke="rgb(255,130,0)" stroke-miterlimit="1.45">
      <rect x="582.0861" y="310.9583" clip-path="url(#clipPath2)" fill="none" width="380.1139" rx="4" ry="4" height="146.6011"/>
    </g>
    <g fill="rgb(255,243,230)" text-rendering="geometricPrecision" shape-rendering="geometricPrecision" transform="matrix(1,0,0,1,0,-82)" stroke="rgb(255,243,230)">
      <rect x="582.0861" y="469.8903" clip-path="url(#clipPath2)" width="380.1139" rx="4" ry="4" height="146.6011" stroke="none"/>
    </g>
    <g font-size="28px" stroke-linecap="butt" transform="matrix(1,0,0,1,0,-82)" text-rendering="geometricPrecision" font-family="'Arial'" shape-rendering="geometricPrecision" stroke-miterlimit="1.45">
      <text x="625.0542" xml:space="preserve" y="505.976" clip-path="url(#clipPath2)" stroke="none">Informationen bewerten</text>
      <text x="679.5161" xml:space="preserve" y="537.2572" clip-path="url(#clipPath2)" stroke="none">und beurteilen,</text>
      <text x="652.3022" xml:space="preserve" y="568.5385" clip-path="url(#clipPath2)" stroke="none">ob diese wichtig für</text>
      <text x="611.7993" xml:space="preserve" y="599.8197" clip-path="url(#clipPath2)" stroke="none">die Aufgabenstellung sind</text>
    </g>
    <g stroke-linecap="butt" transform="matrix(1,0,0,1,0,-82)" fill="rgb(255,130,0)" text-rendering="geometricPrecision" shape-rendering="geometricPrecision" stroke="rgb(255,130,0)" stroke-miterlimit="1.45">
      <rect x="582.0861" y="469.8903" clip-path="url(#clipPath2)" fill="none" width="380.1139" rx="4" ry="4" height="146.6011"/>
    </g>
  </g>
</svg>
