<?xml version="1.0" encoding="UTF-8"?><svg xmlns="http://www.w3.org/2000/svg" xmlns:xlink="http://www.w3.org/1999/xlink" fill-opacity="1" color-rendering="auto" color-interpolation="auto" text-rendering="auto" stroke="black" stroke-linecap="square" width="961" stroke-miterlimit="10" shape-rendering="auto" stroke-opacity="1" fill="black" stroke-dasharray="none" font-weight="normal" stroke-width="1" height="618" font-family="'Dialog'" font-style="normal" stroke-linejoin="miter" font-size="12px" stroke-dashoffset="0" image-rendering="auto">
  <!--Generated by ySVG 2.5-->
  <defs id="genericDefs"/>
  <g>
    <defs id="defs1">
      <clipPath clipPathUnits="userSpaceOnUse" id="clipPath1">
        <path d="M0 0 L961 0 L961 618 L0 618 L0 0 Z"/>
      </clipPath>
      <clipPath clipPathUnits="userSpaceOnUse" id="clipPath2">
        <path d="M0 82 L961 82 L961 700 L0 700 L0 82 Z"/>
      </clipPath>
    </defs>
    <g stroke-linecap="butt" transform="matrix(1,0,0,1,0,-82)" fill="rgb(208,223,0)" text-rendering="geometricPrecision" shape-rendering="geometricPrecision" stroke-dasharray="18,6" stroke="rgb(208,223,0)" stroke-width="3" stroke-miterlimit="1.45">
      <path fill="none" d="M471.0297 572.9854 L478.6002 569.2637 L486.1019 565.3765 L493.4062 561.1875 L500.4148 556.5457 L507.0289 551.3002 L513.15 545.3 L518.6794 538.3943 L523.5185 530.4321 L527.5687 521.2625 L530.7315 510.7346 L532.9081 498.6974 L534 485 L533.9551 469.5718 L532.9074 452.6636 L531.0375 434.6063 L528.5259 415.7309 L525.5532 396.3684 L522.3 376.85 L518.9468 357.5066 L515.6741 338.6691 L512.6625 320.6688 L510.0926 303.8364 L508.1449 288.5032 L507 275 L506.7947 263.5728 L507.4908 254.1265 L509.0063 246.4812 L511.2592 240.4568 L514.1678 235.8731 L517.65 232.55 L521.6238 230.3075 L526.0074 228.9654 L530.7188 228.3438 L532.2669 228.3183 L532.3666 228.3255" clip-path="url(#clipPath2)"/>
    </g>
    <g stroke-linecap="butt" transform="matrix(1,0,0,1,0,-82)" fill="rgb(208,223,0)" text-rendering="geometricPrecision" shape-rendering="geometricPrecision" stroke-dasharray="18,6" stroke="rgb(208,223,0)" stroke-width="3" stroke-miterlimit="1.45">
      <path d="M546.0999 229.0049 L531.4888 220.7729 L530.7476 235.7545 Z" stroke="none" clip-path="url(#clipPath2)"/>
      <path fill="none" d="M471.0287 572.9984 L478.3618 572.5712 L485.6979 572.0695 L492.9827 571.4219 L500.1905 570.5555 L507.2956 569.3976 L514.2723 567.875 L521.095 565.9149 L527.7381 563.4445 L534.1758 560.3906 L540.3824 556.6805 L546.3324 552.2413 L552 547 L557.3788 540.9305 L562.5399 534.1945 L567.5731 527 L572.5688 519.5555 L577.6171 512.0695 L582.808 504.75 L588.2319 497.8056 L593.9788 491.4445 L600.1389 485.875 L606.8024 481.3055 L614.0594 477.9445 L622 476 L630.6731 475.6007 L639.9622 476.5555 L649.7093 478.5938 L659.7566 481.4445 L669.9464 484.8368 L680.1205 488.5 L690.1214 492.1632 L699.791 495.5555 L708.9716 498.4062 L717.5051 500.4445 L725.2339 501.3993 L732 501 L737.6874 499.0434 L742.3477 495.5972 L746.0742 490.7969 L748.9603 484.7778 L751.0994 477.6754 L752.5848 469.625 L753.51 460.7621 L753.9683 451.2222 L754.053 441.1406 L753.8577 430.6528 L753.5811 422.8656 L753.5767 422.7657" clip-path="url(#clipPath2)"/>
      <path d="M753.0013 409.0277 L746.1356 424.3284 L761.1224 423.7008 Z" clip-path="url(#clipPath2)" stroke="none"/>
      <path fill="none" d="M471.0567 572.9332 L475.8377 567.2971 L480.6019 561.4105 L485.2188 555.1562 L489.6148 548.3506 L493.7164 540.8098 L497.45 532.35 L500.7419 522.7874 L503.5185 511.9383 L505.7062 499.6187 L507.2315 485.6451 L508.0206 469.8334 L508 452 L507.1355 432.0598 L505.5509 410.3225 L503.4094 387.1969 L500.8741 363.0914 L498.1082 338.4146 L495.275 313.575 L492.5376 288.9813 L490.0593 265.042 L488.0031 242.1656 L486.5324 220.7608 L485.8103 201.2361 L486 184 L487.2226 169.3556 L489.4305 157.1836 L492.5344 147.2594 L496.4445 139.358 L501.0712 133.2548 L506.325 128.725 L512.1163 125.5438 L518.3555 123.4864 L524.9531 122.3281 L531.8195 121.8441 L532.2509 121.842 L532.3509 121.8447" clip-path="url(#clipPath2)"/>
      <path d="M546.1 122.0012 L531.1863 114.331 L531.0156 129.33 Z" clip-path="url(#clipPath2)" stroke="none"/>
    </g>
    <g stroke-linecap="butt" font-size="18px" transform="matrix(1,0,0,1,0,-82)" fill="white" text-rendering="geometricPrecision" font-family="'Arial'" shape-rendering="geometricPrecision" stroke="white" stroke-miterlimit="1.45">
      <text x="120.0382" xml:space="preserve" y="691.2402" clip-path="url(#clipPath2)" stroke="none">Quelle: Kr채mer et al. (2015) - BIBB Abschlussbericht "Medien anwenden und produzieren"</text>
    </g>
    <g fill="rgb(51,51,51)" text-rendering="geometricPrecision" shape-rendering="geometricPrecision" transform="matrix(1,0,0,1,0,-82)" stroke="rgb(51,51,51)">
      <rect x="0.2434" y="82.0882" clip-path="url(#clipPath2)" width="470.8064" rx="4" ry="4" height="80.5903" stroke="none"/>
    </g>
    <g stroke-linecap="butt" font-size="28px" transform="matrix(1,0,0,1,0,-82)" fill="silver" text-rendering="geometricPrecision" font-family="'Arial'" shape-rendering="geometricPrecision" stroke="silver" stroke-miterlimit="1.45">
      <text x="189.7296" xml:space="preserve" y="116.4498" clip-path="url(#clipPath2)" stroke="none">Medien</text>
      <text x="111.13" xml:space="preserve" y="147.731" clip-path="url(#clipPath2)" stroke="none">zielgerichtet nutzen </text>
      <rect x="0.2434" y="82.0882" clip-path="url(#clipPath2)" fill="none" width="470.8064" rx="4" ry="4" height="80.5903"/>
    </g>
    <g fill="rgb(51,51,51)" text-rendering="geometricPrecision" shape-rendering="geometricPrecision" transform="matrix(1,0,0,1,0,-82)" stroke="rgb(51,51,51)">
      <rect x="0.2434" y="352.8395" clip-path="url(#clipPath2)" width="470.8064" rx="4" ry="4" height="80.5903" stroke="none"/>
    </g>
    <g stroke-linecap="butt" font-size="28px" transform="matrix(1,0,0,1,0,-82)" fill="silver" text-rendering="geometricPrecision" font-family="'Arial'" shape-rendering="geometricPrecision" stroke="silver" stroke-miterlimit="1.45">
      <text x="151.5919" xml:space="preserve" y="387.2011" clip-path="url(#clipPath2)" stroke="none">Selbstst채ndig</text>
      <text x="196.7296" xml:space="preserve" y="418.4824" clip-path="url(#clipPath2)" stroke="none">lernen</text>
      <rect x="0.2434" y="352.8395" clip-path="url(#clipPath2)" fill="none" width="470.8064" rx="4" ry="4" height="80.5903"/>
    </g>
    <g fill="rgb(51,51,51)" text-rendering="geometricPrecision" shape-rendering="geometricPrecision" transform="matrix(1,0,0,1,0,-82)" stroke="rgb(51,51,51)">
      <rect x="0.2434" y="443.09" clip-path="url(#clipPath2)" width="470.8064" rx="4" ry="4" height="80.5903" stroke="none"/>
    </g>
    <g stroke-linecap="butt" font-size="28px" transform="matrix(1,0,0,1,0,-82)" fill="silver" text-rendering="geometricPrecision" font-family="'Arial'" shape-rendering="geometricPrecision" stroke="silver" stroke-miterlimit="1.45">
      <text x="77.6339" xml:space="preserve" y="477.4516" clip-path="url(#clipPath2)" stroke="none">Rahmenbedingungen der</text>
      <text x="38.7442" xml:space="preserve" y="508.7328" clip-path="url(#clipPath2)" stroke="none">Mediennutzung ber체cksichtigen</text>
      <rect x="0.2434" y="443.09" clip-path="url(#clipPath2)" fill="none" width="470.8064" rx="4" ry="4" height="80.5903"/>
    </g>
    <g fill="rgb(51,51,51)" text-rendering="geometricPrecision" shape-rendering="geometricPrecision" transform="matrix(1,0,0,1,0,-82)" stroke="rgb(51,51,51)">
      <rect x="0.2434" y="172.3387" clip-path="url(#clipPath2)" width="470.8064" rx="4" ry="4" height="80.5903" stroke="none"/>
    </g>
    <g stroke-linecap="butt" font-size="28px" transform="matrix(1,0,0,1,0,-82)" fill="silver" text-rendering="geometricPrecision" font-family="'Arial'" shape-rendering="geometricPrecision" stroke="silver" stroke-miterlimit="1.45">
      <text x="116.585" xml:space="preserve" y="206.7002" clip-path="url(#clipPath2)" stroke="none">Verantwortungsvoll</text>
      <text x="116.585" xml:space="preserve" y="237.9815" clip-path="url(#clipPath2)" stroke="none">zusammenarbeiten</text>
      <rect x="0.2434" y="172.3387" clip-path="url(#clipPath2)" fill="none" width="470.8064" rx="4" ry="4" height="80.5903"/>
    </g>
    <g fill="rgb(51,51,51)" text-rendering="geometricPrecision" shape-rendering="geometricPrecision" transform="matrix(1,0,0,1,0,-82)" stroke="rgb(51,51,51)">
      <rect x="0.2434" y="262.5891" clip-path="url(#clipPath2)" width="470.8064" rx="4" ry="4" height="80.5903" stroke="none"/>
    </g>
    <g stroke-linecap="butt" font-size="28px" transform="matrix(1,0,0,1,0,-82)" fill="silver" text-rendering="geometricPrecision" font-family="'Arial'" shape-rendering="geometricPrecision" stroke="silver" stroke-miterlimit="1.45">
      <text x="183.502" xml:space="preserve" y="296.9507" clip-path="url(#clipPath2)" stroke="none">Sprache</text>
      <text x="115.0196" xml:space="preserve" y="328.2319" clip-path="url(#clipPath2)" stroke="none">zielgerichtet nutzen</text>
      <rect x="0.2434" y="262.5891" clip-path="url(#clipPath2)" fill="none" width="470.8064" rx="4" ry="4" height="80.5903"/>
    </g>
    <g fill="rgb(208,223,0)" text-rendering="geometricPrecision" shape-rendering="geometricPrecision" transform="matrix(1,0,0,1,0,-82)" stroke="rgb(208,223,0)">
      <rect x="0.2434" y="533.3404" clip-path="url(#clipPath2)" width="470.8064" rx="4" ry="4" height="80.5903" stroke="none"/>
    </g>
    <g stroke-linecap="butt" font-size="28px" transform="matrix(1,0,0,1,0,-82)" fill="rgb(34,34,34)" text-rendering="geometricPrecision" font-family="'Arial'" shape-rendering="geometricPrecision" stroke="rgb(34,34,34)" font-weight="bold" stroke-miterlimit="1.45">
      <text x="148.5362" xml:space="preserve" y="567.702" clip-path="url(#clipPath2)" stroke="none">Innovationen</text>
      <text x="49.7364" xml:space="preserve" y="598.9833" clip-path="url(#clipPath2)" stroke="none">aufgreifen und vorantreiben</text>
    </g>
    <g stroke-linecap="butt" transform="matrix(1,0,0,1,0,-82)" fill="silver" text-rendering="geometricPrecision" shape-rendering="geometricPrecision" stroke="silver" stroke-miterlimit="1.45">
      <rect x="0.2434" y="533.3404" clip-path="url(#clipPath2)" fill="none" width="470.8064" rx="4" ry="4" height="80.5903"/>
    </g>
    <g fill="rgb(250,252,230)" text-rendering="geometricPrecision" shape-rendering="geometricPrecision" transform="matrix(1,0,0,1,0,-82)" stroke="rgb(250,252,230)">
      <rect x="546.3978" y="174.0841" clip-path="url(#clipPath2)" width="413.6022" rx="4" ry="4" height="111.8247" stroke="none"/>
    </g>
    <g font-size="28px" stroke-linecap="butt" transform="matrix(1,0,0,1,0,-82)" text-rendering="geometricPrecision" font-family="'Arial'" shape-rendering="geometricPrecision" stroke-miterlimit="1.45">
      <text x="638.0202" xml:space="preserve" y="208.4222" clip-path="url(#clipPath2)" stroke="none">Beurteilen, ob sich</text>
      <text x="564.0485" xml:space="preserve" y="239.7035" clip-path="url(#clipPath2)" stroke="none">neue Medienanwendungen f체r</text>
      <text x="557.8415" xml:space="preserve" y="270.9847" clip-path="url(#clipPath2)" stroke="none">die eigene Arbeit nutzen lassen</text>
    </g>
    <g stroke-linecap="butt" transform="matrix(1,0,0,1,0,-82)" fill="rgb(208,223,0)" text-rendering="geometricPrecision" shape-rendering="geometricPrecision" stroke="rgb(208,223,0)" stroke-miterlimit="1.45">
      <rect x="546.3978" y="174.0841" clip-path="url(#clipPath2)" fill="none" width="413.6022" rx="4" ry="4" height="111.8247"/>
    </g>
    <g fill="rgb(250,252,230)" text-rendering="geometricPrecision" shape-rendering="geometricPrecision" transform="matrix(1,0,0,1,0,-82)" stroke="rgb(250,252,230)">
      <rect x="546.3978" y="297.3143" clip-path="url(#clipPath2)" width="413.6022" rx="4" ry="4" height="111.8247" stroke="none"/>
    </g>
    <g font-size="28px" stroke-linecap="butt" transform="matrix(1,0,0,1,0,-82)" text-rendering="geometricPrecision" font-family="'Arial'" shape-rendering="geometricPrecision" stroke-miterlimit="1.45">
      <text x="559.4479" xml:space="preserve" y="331.6524" clip-path="url(#clipPath2)" stroke="none">Weiterntwickeln oder Gestalten</text>
      <text x="579.614" xml:space="preserve" y="362.9337" clip-path="url(#clipPath2)" stroke="none">neuer Medienanwendungen</text>
      <text x="584.3307" xml:space="preserve" y="394.2149" clip-path="url(#clipPath2)" stroke="none">im Rahmen der Ausbildung</text>
    </g>
    <g stroke-linecap="butt" transform="matrix(1,0,0,1,0,-82)" fill="rgb(208,223,0)" text-rendering="geometricPrecision" shape-rendering="geometricPrecision" stroke="rgb(208,223,0)" stroke-miterlimit="1.45">
      <rect x="546.3978" y="297.3143" clip-path="url(#clipPath2)" fill="none" width="413.6022" rx="4" ry="4" height="111.8247"/>
    </g>
    <g fill="rgb(250,252,230)" text-rendering="geometricPrecision" shape-rendering="geometricPrecision" transform="matrix(1,0,0,1,0,-82)" stroke="rgb(250,252,230)">
      <rect x="546.3978" y="82.0882" clip-path="url(#clipPath2)" width="413.6022" rx="4" ry="4" height="80.5903" stroke="none"/>
    </g>
    <g font-size="28px" stroke-linecap="butt" transform="matrix(1,0,0,1,0,-82)" text-rendering="geometricPrecision" font-family="'Arial'" shape-rendering="geometricPrecision" stroke-miterlimit="1.45">
      <text x="584.3239" xml:space="preserve" y="116.4498" clip-path="url(#clipPath2)" stroke="none">Aktives Auseinandersetzen</text>
      <text x="553.9382" xml:space="preserve" y="147.731" clip-path="url(#clipPath2)" stroke="none">mit neuen Medienanwendungen</text>
    </g>
    <g stroke-linecap="butt" transform="matrix(1,0,0,1,0,-82)" fill="rgb(208,223,0)" text-rendering="geometricPrecision" shape-rendering="geometricPrecision" stroke="rgb(208,223,0)" stroke-miterlimit="1.45">
      <rect x="546.3978" y="82.0882" clip-path="url(#clipPath2)" fill="none" width="413.6022" rx="4" ry="4" height="80.5903"/>
    </g>
  </g>
</svg>
