<?xml version="1.0" encoding="UTF-8"?><svg xmlns="http://www.w3.org/2000/svg" xmlns:xlink="http://www.w3.org/1999/xlink" fill-opacity="1" color-rendering="auto" color-interpolation="auto" text-rendering="auto" stroke="black" stroke-linecap="square" width="961" stroke-miterlimit="10" shape-rendering="auto" stroke-opacity="1" fill="black" stroke-dasharray="none" font-weight="normal" stroke-width="1" height="619" font-family="'Dialog'" font-style="normal" stroke-linejoin="miter" font-size="12px" stroke-dashoffset="0" image-rendering="auto">
  <!--Generated by ySVG 2.5-->
  <defs id="genericDefs"/>
  <g>
    <defs id="defs1">
      <clipPath clipPathUnits="userSpaceOnUse" id="clipPath1">
        <path d="M0 0 L961 0 L961 619 L0 619 L0 0 Z"/>
      </clipPath>
      <clipPath clipPathUnits="userSpaceOnUse" id="clipPath2">
        <path d="M0 81 L961 81 L961 700 L0 700 L0 81 Z"/>
      </clipPath>
    </defs>
    <g stroke-linecap="butt" transform="matrix(1,0,0,1,0,-81)" fill="rgb(0,155,119)" text-rendering="geometricPrecision" shape-rendering="geometricPrecision" stroke-dasharray="18,6" stroke="rgb(0,155,119)" stroke-width="3" stroke-miterlimit="1.45">
      <path fill="none" d="M471.0621 211.8612 L477.364 197.7888 L483.7512 183.7298 L490.1847 169.9752 L496.6878 156.6772 L503.2837 143.9882 L509.9955 132.0603 L516.8465 121.0456 L523.8598 111.0966 L531.0586 102.3652 L538.4661 95.0039 L546.1055 89.1647 L554 85 L562.1641 82.5953 L570.5772 81.7701 L579.2104 82.2771 L588.0344 83.869 L597.0201 86.2988 L606.1384 89.3192 L615.3601 92.6829 L624.6561 96.1429 L633.9972 99.4517 L643.3543 102.3624 L652.6983 104.6275 L662 106 L671.2258 106.3033 L680.3242 105.6436 L689.2394 104.1978 L697.9153 102.1429 L706.2961 99.6556 L714.3259 96.9129 L721.9486 94.0918 L729.1085 91.369 L735.7495 88.9216 L741.8157 86.9263 L747.2512 85.5602 L752 85 L756.0259 85.3796 L759.3712 86.6601 L762.0977 88.7598 L764.2672 91.5966 L765.9417 95.0886 L767.183 99.154 L768.0531 103.7109 L768.6138 108.6773 L768.9269 113.9713 L769.0023 117.25 L769.0018 117.35" clip-path="url(#clipPath2)"/>
    </g>
    <g stroke-linecap="butt" transform="matrix(1,0,0,1,0,-81)" fill="rgb(0,155,119)" text-rendering="geometricPrecision" shape-rendering="geometricPrecision" stroke-dasharray="18,6" stroke="rgb(0,155,119)" stroke-width="3" stroke-miterlimit="1.45">
      <path d="M769 131.1 L776.502 116.101 L761.502 116.099 Z" stroke="none" clip-path="url(#clipPath2)"/>
      <path fill="none" d="M471.039 212.0148 L475.9948 213.8922 L480.9583 215.838 L485.8594 217.8906 L490.6667 220.1037 L495.349 222.5307 L499.875 225.225 L504.2135 228.2402 L508.3333 231.6296 L512.2031 235.4469 L515.7917 239.7454 L519.0677 244.5786 L522 250 L524.5712 256.0339 L526.8195 262.588 L528.7969 269.5406 L530.5555 276.7704 L532.1476 284.1557 L533.625 291.575 L535.0399 298.9068 L536.4445 306.0296 L537.8906 312.8219 L539.4305 319.162 L541.1163 324.9286 L543 330 L545.1215 334.2863 L547.4722 337.8241 L550.0312 340.6812 L552.7778 342.9259 L555.691 344.6262 L558.75 345.85 L561.934 346.6655 L565.2222 347.1407 L565.2507 347.1425 L565.3507 347.1392" clip-path="url(#clipPath2)"/>
      <path d="M579.1 346.999 L564.0243 339.6523 L564.1772 354.6515 Z" clip-path="url(#clipPath2)" stroke="none"/>
      <path fill="none" d="M471.0516 212.2 L481.5621 252.9687 L491.9433 293.5261 L501.9626 333.2609 L511.4391 371.7619 L520.192 408.6178 L528.0402 443.4174 L534.8028 475.7493 L540.299 505.2024 L544.3477 531.3652 L546.768 553.8267 L547.3791 572.1753 L546 586 L542.5624 595.0611 L537.4486 599.8058 L531.1534 600.853 L524.1719 598.8214 L516.999 594.3301 L510.1295 587.9978 L504.0583 580.4434 L499.2804 572.2857 L496.2907 564.1437 L495.5842 556.6362 L497.6556 550.382 L503 546 L511.9429 543.9478 L524.1328 544.0378 L539.0485 545.921 L556.1693 549.2487 L574.9741 553.6718 L594.942 558.8415 L615.5519 564.4089 L636.2831 570.0251 L656.6144 575.3412 L676.025 580.0084 L693.9938 583.6776 L710 586 L723.6439 586.7084 L735.0111 585.8625 L744.3086 583.6035 L751.7434 580.0728 L757.5224 575.4116 L761.8527 569.7612 L764.9411 563.2629 L766.9947 556.0582 L768.2204 548.2882 L768.8253 540.0944 L768.8846 537.4564 L768.8845 537.3564" clip-path="url(#clipPath2)"/>
      <path d="M769.0022 523.6069 L761.374 538.5422 L776.3735 538.6706 Z" clip-path="url(#clipPath2)" stroke="none"/>
    </g>
    <g stroke-linecap="butt" font-size="18px" transform="matrix(1,0,0,1,0,-81)" fill="white" text-rendering="geometricPrecision" font-family="'Arial'" shape-rendering="geometricPrecision" stroke="white" stroke-miterlimit="1.45">
      <text x="134.4171" xml:space="preserve" y="691.2402" clip-path="url(#clipPath2)" stroke="none">Quelle: BIBB - Medien anwenden und produzieren - Abschlussbericht September 2015</text>
    </g>
    <g fill="rgb(51,51,51)" text-rendering="geometricPrecision" shape-rendering="geometricPrecision" transform="matrix(1,0,0,1,0,-81)" stroke="rgb(51,51,51)">
      <rect x="0.2434" y="82.0882" clip-path="url(#clipPath2)" width="470.8064" rx="4" ry="4" height="80.5903" stroke="none"/>
    </g>
    <g stroke-linecap="butt" font-size="28px" transform="matrix(1,0,0,1,0,-81)" fill="silver" text-rendering="geometricPrecision" font-family="'Arial'" shape-rendering="geometricPrecision" stroke="silver" stroke-miterlimit="1.45">
      <text x="189.7296" xml:space="preserve" y="116.4498" clip-path="url(#clipPath2)" stroke="none">Medien</text>
      <text x="111.13" xml:space="preserve" y="147.731" clip-path="url(#clipPath2)" stroke="none">zielgerichtet nutzen </text>
      <rect x="0.2434" y="82.0882" clip-path="url(#clipPath2)" fill="none" width="470.8064" rx="4" ry="4" height="80.5903"/>
    </g>
    <g fill="rgb(51,51,51)" text-rendering="geometricPrecision" shape-rendering="geometricPrecision" transform="matrix(1,0,0,1,0,-81)" stroke="rgb(51,51,51)">
      <rect x="0.2434" y="352.8395" clip-path="url(#clipPath2)" width="470.8064" rx="4" ry="4" height="80.5903" stroke="none"/>
    </g>
    <g stroke-linecap="butt" font-size="28px" transform="matrix(1,0,0,1,0,-81)" fill="silver" text-rendering="geometricPrecision" font-family="'Arial'" shape-rendering="geometricPrecision" stroke="silver" stroke-miterlimit="1.45">
      <text x="151.5919" xml:space="preserve" y="387.2011" clip-path="url(#clipPath2)" stroke="none">Selbstständig</text>
      <text x="196.7296" xml:space="preserve" y="418.4824" clip-path="url(#clipPath2)" stroke="none">lernen</text>
      <rect x="0.2434" y="352.8395" clip-path="url(#clipPath2)" fill="none" width="470.8064" rx="4" ry="4" height="80.5903"/>
    </g>
    <g fill="rgb(51,51,51)" text-rendering="geometricPrecision" shape-rendering="geometricPrecision" transform="matrix(1,0,0,1,0,-81)" stroke="rgb(51,51,51)">
      <rect x="0.2434" y="443.09" clip-path="url(#clipPath2)" width="470.8064" rx="4" ry="4" height="80.5903" stroke="none"/>
    </g>
    <g stroke-linecap="butt" font-size="28px" transform="matrix(1,0,0,1,0,-81)" fill="silver" text-rendering="geometricPrecision" font-family="'Arial'" shape-rendering="geometricPrecision" stroke="silver" stroke-miterlimit="1.45">
      <text x="77.6339" xml:space="preserve" y="477.4516" clip-path="url(#clipPath2)" stroke="none">Rahmenbedingungen der</text>
      <text x="38.7442" xml:space="preserve" y="508.7328" clip-path="url(#clipPath2)" stroke="none">Mediennutzung berücksichtigen</text>
      <rect x="0.2434" y="443.09" clip-path="url(#clipPath2)" fill="none" width="470.8064" rx="4" ry="4" height="80.5903"/>
    </g>
    <g fill="rgb(0,155,119)" text-rendering="geometricPrecision" shape-rendering="geometricPrecision" transform="matrix(1,0,0,1,0,-81)" stroke="rgb(0,155,119)">
      <rect x="0.2434" y="172.3387" clip-path="url(#clipPath2)" width="470.8064" rx="4" ry="4" height="80.5903" stroke="none"/>
    </g>
    <g stroke-linecap="butt" font-size="28px" transform="matrix(1,0,0,1,0,-81)" fill="white" text-rendering="geometricPrecision" font-family="'Arial'" shape-rendering="geometricPrecision" stroke="white" font-weight="bold" stroke-miterlimit="1.45">
      <text x="104.9639" xml:space="preserve" y="206.7002" clip-path="url(#clipPath2)" stroke="none">Verantwortungsvoll</text>
      <text x="108.8262" xml:space="preserve" y="237.9815" clip-path="url(#clipPath2)" stroke="none">zusammenarbeiten</text>
    </g>
    <g stroke-linecap="butt" transform="matrix(1,0,0,1,0,-81)" fill="silver" text-rendering="geometricPrecision" shape-rendering="geometricPrecision" stroke="silver" stroke-miterlimit="1.45">
      <rect x="0.2434" y="172.3387" clip-path="url(#clipPath2)" fill="none" width="470.8064" rx="4" ry="4" height="80.5903"/>
    </g>
    <g fill="rgb(51,51,51)" text-rendering="geometricPrecision" shape-rendering="geometricPrecision" transform="matrix(1,0,0,1,0,-81)" stroke="rgb(51,51,51)">
      <rect x="0.2434" y="262.5891" clip-path="url(#clipPath2)" width="470.8064" rx="4" ry="4" height="80.5903" stroke="none"/>
    </g>
    <g stroke-linecap="butt" font-size="28px" transform="matrix(1,0,0,1,0,-81)" fill="silver" text-rendering="geometricPrecision" font-family="'Arial'" shape-rendering="geometricPrecision" stroke="silver" stroke-miterlimit="1.45">
      <text x="183.502" xml:space="preserve" y="296.9507" clip-path="url(#clipPath2)" stroke="none">Sprache</text>
      <text x="115.0196" xml:space="preserve" y="328.2319" clip-path="url(#clipPath2)" stroke="none">zielgerichtet nutzen</text>
      <rect x="0.2434" y="262.5891" clip-path="url(#clipPath2)" fill="none" width="470.8064" rx="4" ry="4" height="80.5903"/>
    </g>
    <g fill="rgb(51,51,51)" text-rendering="geometricPrecision" shape-rendering="geometricPrecision" transform="matrix(1,0,0,1,0,-81)" stroke="rgb(51,51,51)">
      <rect x="0.2434" y="533.3404" clip-path="url(#clipPath2)" width="470.8064" rx="4" ry="4" height="80.5903" stroke="none"/>
    </g>
    <g stroke-linecap="butt" font-size="28px" transform="matrix(1,0,0,1,0,-81)" fill="silver" text-rendering="geometricPrecision" font-family="'Arial'" shape-rendering="geometricPrecision" stroke="silver" stroke-miterlimit="1.45">
      <text x="155.4678" xml:space="preserve" y="567.702" clip-path="url(#clipPath2)" stroke="none">Innovationen</text>
      <text x="64.4132" xml:space="preserve" y="598.9833" clip-path="url(#clipPath2)" stroke="none">aufgreifen und vorantreiben</text>
      <rect x="0.2434" y="533.3404" clip-path="url(#clipPath2)" fill="none" width="470.8064" rx="4" ry="4" height="80.5903"/>
    </g>
    <g fill="rgb(230,245,242)" text-rendering="geometricPrecision" shape-rendering="geometricPrecision" transform="matrix(1,0,0,1,0,-81)" stroke="rgb(230,245,242)">
      <rect x="579.8861" y="131.8199" clip-path="url(#clipPath2)" width="380.1139" rx="4" ry="4" height="146.6011" stroke="none"/>
    </g>
    <g font-size="28px" stroke-linecap="butt" transform="matrix(1,0,0,1,0,-81)" text-rendering="geometricPrecision" font-family="'Arial'" shape-rendering="geometricPrecision" stroke-miterlimit="1.45">
      <text x="641.53" xml:space="preserve" y="167.9056" clip-path="url(#clipPath2)" stroke="none">Nutzung von Medien</text>
      <text x="646.985" xml:space="preserve" y="199.1868" clip-path="url(#clipPath2)" stroke="none">zum Austausch und</text>
      <text x="641.5641" xml:space="preserve" y="230.4681" clip-path="url(#clipPath2)" stroke="none">zur Zusammenarbeit</text>
      <text x="694.4606" xml:space="preserve" y="261.7493" clip-path="url(#clipPath2)" stroke="none">mit Anderen</text>
    </g>
    <g stroke-linecap="butt" transform="matrix(1,0,0,1,0,-81)" fill="rgb(0,155,119)" text-rendering="geometricPrecision" shape-rendering="geometricPrecision" stroke="rgb(0,155,119)" stroke-miterlimit="1.45">
      <rect x="579.8861" y="131.8199" clip-path="url(#clipPath2)" fill="none" width="380.1139" rx="4" ry="4" height="146.6011"/>
    </g>
    <g fill="rgb(230,245,242)" text-rendering="geometricPrecision" shape-rendering="geometricPrecision" transform="matrix(1,0,0,1,0,-81)" stroke="rgb(230,245,242)">
      <rect x="579.8861" y="293.09" clip-path="url(#clipPath2)" width="380.1139" rx="4" ry="4" height="107.9606" stroke="none"/>
    </g>
    <g font-size="28px" stroke-linecap="butt" transform="matrix(1,0,0,1,0,-81)" text-rendering="geometricPrecision" font-family="'Arial'" shape-rendering="geometricPrecision" stroke-miterlimit="1.45">
      <text x="697.571" xml:space="preserve" y="325.4961" clip-path="url(#clipPath2)" stroke="none">Aktiv in den</text>
      <text x="635.2956" xml:space="preserve" y="356.7773" clip-path="url(#clipPath2)" stroke="none">Austausch einbringen</text>
      <text x="619.7233" xml:space="preserve" y="388.0586" clip-path="url(#clipPath2)" stroke="none">und diesen vorantreiben</text>
    </g>
    <g stroke-linecap="butt" transform="matrix(1,0,0,1,0,-81)" fill="rgb(0,155,119)" text-rendering="geometricPrecision" shape-rendering="geometricPrecision" stroke="rgb(0,155,119)" stroke-miterlimit="1.45">
      <rect x="579.8861" y="293.09" clip-path="url(#clipPath2)" fill="none" width="380.1139" rx="4" ry="4" height="107.9606"/>
    </g>
    <g fill="rgb(230,245,242)" text-rendering="geometricPrecision" shape-rendering="geometricPrecision" transform="matrix(1,0,0,1,0,-81)" stroke="rgb(230,245,242)">
      <rect x="579.8861" y="415.7197" clip-path="url(#clipPath2)" width="380.1139" rx="4" ry="4" height="107.9606" stroke="none"/>
    </g>
    <g font-size="28px" stroke-linecap="butt" transform="matrix(1,0,0,1,0,-81)" text-rendering="geometricPrecision" font-family="'Arial'" shape-rendering="geometricPrecision" stroke-miterlimit="1.45">
      <text x="678.1091" xml:space="preserve" y="448.1258" clip-path="url(#clipPath2)" stroke="none">Darauf achten,</text>
      <text x="626.7438" xml:space="preserve" y="479.407" clip-path="url(#clipPath2)" stroke="none">andere zu respektieren</text>
      <text x="594.0475" xml:space="preserve" y="510.6883" clip-path="url(#clipPath2)" stroke="none">und niemandem zu schaden</text>
    </g>
    <g stroke-linecap="butt" transform="matrix(1,0,0,1,0,-81)" fill="rgb(0,155,119)" text-rendering="geometricPrecision" shape-rendering="geometricPrecision" stroke="rgb(0,155,119)" stroke-miterlimit="1.45">
      <rect x="579.8861" y="415.7197" clip-path="url(#clipPath2)" fill="none" width="380.1139" rx="4" ry="4" height="107.9606"/>
    </g>
  </g>
</svg>
