<?xml version="1.0" encoding="UTF-8"?><svg xmlns="http://www.w3.org/2000/svg" xmlns:xlink="http://www.w3.org/1999/xlink" fill-opacity="1" color-rendering="auto" color-interpolation="auto" text-rendering="auto" stroke="black" stroke-linecap="square" width="990" stroke-miterlimit="10" shape-rendering="auto" stroke-opacity="1" fill="black" stroke-dasharray="none" font-weight="normal" stroke-width="1" height="285" font-family="'Dialog'" font-style="normal" stroke-linejoin="miter" font-size="12px" stroke-dashoffset="0" image-rendering="auto">
  <!--Generated by ySVG 2.5-->
  <defs id="genericDefs"/>
  <g>
    <defs id="defs1">
      <clipPath clipPathUnits="userSpaceOnUse" id="clipPath1">
        <path d="M0 0 L990 0 L990 285 L0 285 L0 0 Z"/>
      </clipPath>
      <clipPath clipPathUnits="userSpaceOnUse" id="clipPath2">
        <path d="M-27 -2 L963 -2 L963 283 L-27 283 L-27 -2 Z"/>
      </clipPath>
    </defs>
    <g stroke-linecap="butt" font-size="18px" transform="matrix(1,0,0,1,27,2)" fill="white" text-rendering="geometricPrecision" font-family="'Arial'" shape-rendering="geometricPrecision" stroke="white" stroke-miterlimit="1.45">
      <text x="422.1634" xml:space="preserve" y="242.0602" clip-path="url(#clipPath2)" stroke="none">Quelle: </text>
    </g>
    <g transform="matrix(1,0,0,1,27,2)" fill-opacity="0.9412" fill="rgb(255,198,0)" text-rendering="geometricPrecision" shape-rendering="geometricPrecision" stroke="rgb(255,198,0)" stroke-opacity="0.9412">
      <rect x="0" y="85.69" clip-path="url(#clipPath2)" width="373.52" rx="4" ry="4" height="79.44" stroke="none"/>
    </g>
    <g stroke-linecap="butt" font-size="28px" transform="matrix(1,0,0,1,27,2)" fill="rgb(34,34,34)" text-rendering="geometricPrecision" font-family="'Arial'" shape-rendering="geometricPrecision" stroke="rgb(34,34,34)" stroke-miterlimit="1.45">
      <text x="49.009" xml:space="preserve" y="119.4764" clip-path="url(#clipPath2)" stroke="none">Verfügbarmachen von</text>
      <text x="20.1955" xml:space="preserve" y="150.7577" clip-path="url(#clipPath2)" stroke="none">Informationen und Inhalten</text>
    </g>
    <g stroke-linecap="butt" transform="matrix(1,0,0,1,27,2)" fill="silver" text-rendering="geometricPrecision" shape-rendering="geometricPrecision" stroke="silver" stroke-miterlimit="1.45">
      <rect x="0" y="85.69" clip-path="url(#clipPath2)" fill="none" width="373.52" rx="4" ry="4" height="79.44"/>
    </g>
    <g transform="matrix(1,0,0,1,27,2)" fill-opacity="0.9412" fill="rgb(255,198,0)" text-rendering="geometricPrecision" shape-rendering="geometricPrecision" stroke="rgb(255,198,0)" stroke-opacity="0.9412">
      <rect x="-0.81" y="172.63" clip-path="url(#clipPath2)" width="374.33" rx="4" ry="4" height="79.44" stroke="none"/>
    </g>
    <g stroke-linecap="butt" font-size="28px" transform="matrix(1,0,0,1,27,2)" fill="rgb(34,34,34)" text-rendering="geometricPrecision" font-family="'Arial'" shape-rendering="geometricPrecision" stroke="rgb(34,34,34)" stroke-miterlimit="1.45">
      <text x="36.1763" xml:space="preserve" y="206.4164" clip-path="url(#clipPath2)" stroke="none">Visualisieren, Animieren</text>
      <text x="92.9693" xml:space="preserve" y="237.6977" clip-path="url(#clipPath2)" stroke="none">und Simulieren</text>
    </g>
    <g stroke-linecap="butt" transform="matrix(1,0,0,1,27,2)" fill="silver" text-rendering="geometricPrecision" shape-rendering="geometricPrecision" stroke="silver" stroke-miterlimit="1.45">
      <rect x="-0.81" y="172.63" clip-path="url(#clipPath2)" fill="none" width="374.33" rx="4" ry="4" height="79.44"/>
    </g>
    <g transform="matrix(1,0,0,1,27,2)" fill-opacity="0.9412" fill="rgb(255,198,0)" text-rendering="geometricPrecision" shape-rendering="geometricPrecision" stroke="rgb(255,198,0)" stroke-opacity="0.9412">
      <rect x="380.85" y="85.69" clip-path="url(#clipPath2)" width="285" rx="4" ry="4" height="79.44" stroke="none"/>
    </g>
    <g stroke-linecap="butt" font-size="28px" transform="matrix(1,0,0,1,27,2)" fill="rgb(34,34,34)" text-rendering="geometricPrecision" font-family="'Arial'" shape-rendering="geometricPrecision" stroke="rgb(34,34,34)" stroke-miterlimit="1.45">
      <text x="426.0883" xml:space="preserve" y="119.4764" clip-path="url(#clipPath2)" stroke="none">Kommunizieren</text>
      <text x="419.8266" xml:space="preserve" y="150.7577" clip-path="url(#clipPath2)" stroke="none">und Kooperieren</text>
    </g>
    <g stroke-linecap="butt" transform="matrix(1,0,0,1,27,2)" fill="silver" text-rendering="geometricPrecision" shape-rendering="geometricPrecision" stroke="silver" stroke-miterlimit="1.45">
      <rect x="380.85" y="85.69" clip-path="url(#clipPath2)" fill="none" width="285" rx="4" ry="4" height="79.44"/>
    </g>
    <g transform="matrix(1,0,0,1,27,2)" fill-opacity="0.9412" fill="rgb(255,198,0)" text-rendering="geometricPrecision" shape-rendering="geometricPrecision" stroke="rgb(255,198,0)" stroke-opacity="0.9412">
      <rect x="380.85" y="172.63" clip-path="url(#clipPath2)" width="285" rx="4" ry="4" height="79.44" stroke="none"/>
    </g>
    <g stroke-linecap="butt" font-size="28px" transform="matrix(1,0,0,1,27,2)" fill="rgb(34,34,34)" text-rendering="geometricPrecision" font-family="'Arial'" shape-rendering="geometricPrecision" stroke="rgb(34,34,34)" stroke-miterlimit="1.45">
      <text x="415.9574" xml:space="preserve" y="206.4164" clip-path="url(#clipPath2)" stroke="none">Strukturieren und</text>
      <text x="423.7572" xml:space="preserve" y="237.6977" clip-path="url(#clipPath2)" stroke="none">Systematisieren</text>
    </g>
    <g stroke-linecap="butt" transform="matrix(1,0,0,1,27,2)" fill="silver" text-rendering="geometricPrecision" shape-rendering="geometricPrecision" stroke="silver" stroke-miterlimit="1.45">
      <rect x="380.85" y="172.63" clip-path="url(#clipPath2)" fill="none" width="285" rx="4" ry="4" height="79.44"/>
    </g>
    <g transform="matrix(1,0,0,1,27,2)" fill-opacity="0.9412" fill="rgb(255,198,0)" text-rendering="geometricPrecision" shape-rendering="geometricPrecision" stroke="rgb(255,198,0)" stroke-opacity="0.9412">
      <rect x="673.18" y="85.69" clip-path="url(#clipPath2)" width="285" rx="4" ry="4" height="79.44" stroke="none"/>
    </g>
    <g stroke-linecap="butt" font-size="28px" transform="matrix(1,0,0,1,27,2)" fill="rgb(34,34,34)" text-rendering="geometricPrecision" font-family="'Arial'" shape-rendering="geometricPrecision" stroke="rgb(34,34,34)" stroke-miterlimit="1.45">
      <text x="719.1839" xml:space="preserve" y="119.4764" clip-path="url(#clipPath2)" stroke="none">Diagnostizieren</text>
      <text x="745.6321" xml:space="preserve" y="150.7577" clip-path="url(#clipPath2)" stroke="none">und Testen</text>
    </g>
    <g stroke-linecap="butt" transform="matrix(1,0,0,1,27,2)" fill="silver" text-rendering="geometricPrecision" shape-rendering="geometricPrecision" stroke="silver" stroke-miterlimit="1.45">
      <rect x="673.18" y="85.69" clip-path="url(#clipPath2)" fill="none" width="285" rx="4" ry="4" height="79.44"/>
    </g>
    <g transform="matrix(1,0,0,1,27,2)" fill-opacity="0.9412" fill="rgb(255,198,0)" text-rendering="geometricPrecision" shape-rendering="geometricPrecision" stroke="rgb(255,198,0)" stroke-opacity="0.9412">
      <rect x="673.18" y="172.63" clip-path="url(#clipPath2)" width="285" rx="4" ry="4" height="79.44" stroke="none"/>
    </g>
    <g stroke-linecap="butt" font-size="28px" transform="matrix(1,0,0,1,27,2)" fill="rgb(34,34,34)" text-rendering="geometricPrecision" font-family="'Arial'" shape-rendering="geometricPrecision" stroke="rgb(34,34,34)" stroke-miterlimit="1.45">
      <text x="740.9769" xml:space="preserve" y="222.057" clip-path="url(#clipPath2)" stroke="none">Reflektieren</text>
    </g>
    <g stroke-linecap="butt" transform="matrix(1,0,0,1,27,2)" fill="silver" text-rendering="geometricPrecision" shape-rendering="geometricPrecision" stroke="silver" stroke-miterlimit="1.45">
      <rect x="673.18" y="172.63" clip-path="url(#clipPath2)" fill="none" width="285" rx="4" ry="4" height="79.44"/>
    </g>
    <g stroke-linecap="butt" font-size="18px" transform="matrix(1,0,0,1,27,2)" fill="white" text-rendering="geometricPrecision" font-family="'Arial'" shape-rendering="geometricPrecision" stroke="white" stroke-miterlimit="1.45">
      <text x="351.6087" xml:space="preserve" y="273.3102" clip-path="url(#clipPath2)" stroke="none">Quelle: Howe &amp; Knutzen (2013)</text>
    </g>
    <g transform="matrix(1,0,0,1,27,2)" fill-opacity="0.7765" fill="rgb(0,0,0)" text-rendering="geometricPrecision" shape-rendering="geometricPrecision" stroke="rgb(0,0,0)" stroke-opacity="0.7765">
      <rect x="0" y="-1.25" clip-path="url(#clipPath2)" width="960" rx="4" ry="4" height="79.44" stroke="none"/>
    </g>
    <g stroke-linecap="butt" font-size="30px" transform="matrix(1,0,0,1,27,2)" fill="white" text-rendering="geometricPrecision" font-family="'Arial'" shape-rendering="geometricPrecision" stroke="white" stroke-miterlimit="1.45">
      <text x="53.9209" xml:space="preserve" y="32.1126" clip-path="url(#clipPath2)" stroke="none">Digitale Medien in der gewerblich-technischen Berufsausbildung</text>
      <text x="31.3989" xml:space="preserve" y="65.6282" clip-path="url(#clipPath2)" stroke="none">Einsatzmöglichkeiten digitaler Medien in Lern- und Arbeitsaufgaben</text>
    </g>
  </g>
</svg>
